<svg version="1.1" id="Layer_1" xmlns="http://www.w3.org/2000/svg" xmlns:xlink="http://www.w3.org/1999/xlink" x="0px" y="0px"
	 width="100%" viewBox="0 0 200 533" enable-background="new 0 0 200 533" xml:space="preserve">
<path fill="#519B44" opacity="1.000000" stroke="none" 
	d="
M78.000000,534.000000 
	C52.349686,534.000000 26.699371,534.000000 1.052289,534.000000 
	C1.055521,356.333313 1.055521,178.666656 1.055521,1.000000 
	C26.428255,1.000000 51.745468,1.000000 77.531342,1.468657 
	C78.000023,30.902758 78.000046,59.868198 77.717072,89.159119 
	C77.289421,106.138680 77.026672,122.792709 77.020943,139.446823 
	C76.998413,204.940689 77.051048,270.434601 77.123222,335.928436 
	C77.124779,337.341400 77.695084,338.753723 78.000046,340.623596 
	C78.000015,405.387238 78.000008,469.693634 78.000000,534.000000 
z"/>
<path fill="#044F7A" opacity="1.000000" stroke="none" 
	d="
M78.000061,340.166351 
	C77.695084,338.753723 77.124779,337.341400 77.123222,335.928436 
	C77.051048,270.434601 76.998413,204.940689 77.020943,139.446823 
	C77.026672,122.792709 77.289421,106.138680 78.183197,89.214325 
	C119.621544,88.962700 160.310776,88.981354 201.000000,89.000000 
	C201.000000,172.354233 201.000000,255.708450 200.537872,339.446136 
	C196.756104,339.886383 193.436539,339.987335 190.116791,339.993225 
	C152.744553,340.059357 115.372307,340.110901 78.000061,340.166351 
z"/>
<path fill="#000000" opacity="1.000000" stroke="none" 
	d="
M78.000038,340.623596 
	C115.372307,340.110901 152.744553,340.059357 190.116791,339.993225 
	C193.436539,339.987335 196.756104,339.886383 200.537872,339.914795 
	C201.000000,404.577332 201.000000,469.154663 201.000000,534.000000 
	C160.312836,534.000000 119.625076,534.000000 78.468658,534.000000 
	C78.000008,469.693634 78.000015,405.387238 78.000038,340.623596 
z"/>
<path fill="#000000" opacity="1.000000" stroke="none" 
	d="
M201.000000,88.531342 
	C160.310776,88.981354 119.621544,88.962700 78.466187,88.888847 
	C78.000046,59.868198 78.000023,30.902758 78.000000,1.468657 
	C118.914818,1.000000 159.829636,1.000000 201.000000,1.000000 
	C201.000000,30.020395 201.000000,59.041538 201.000000,88.531342 
z"/>
</svg>