<?xml version="1.0" encoding="UTF-8"?>
<svg version="1.1" xmlns="http://www.w3.org/2000/svg" width="511" height="488">
<path d="M0 0 C0.97066406 0.57234375 1.94132812 1.1446875 2.94140625 1.734375 C10.78158118 6.52749504 17.89084662 12.20260772 25 18 C25.56009766 18.4542334 26.12019531 18.9084668 26.69726562 19.37646484 C38.708852 29.16146162 49.51621524 39.71382809 59 52 C59.45874512 52.59296875 59.91749023 53.1859375 60.39013672 53.796875 C71.45359561 68.15420246 81.3715089 82.52037472 89 99 C89.45802002 99.97622314 89.45802002 99.97622314 89.92529297 100.97216797 C112.72251323 149.86508509 119.55635173 215.58160989 101 267 C98.27571889 274.1250429 95.17532706 281.06706995 92 288 C91.25766047 289.66008827 90.51547061 291.32024349 89.7734375 292.98046875 C82.14797688 309.79865833 72.30028858 324.44933751 61 339 C60.30132812 339.91394531 59.60265625 340.82789063 58.8828125 341.76953125 C51.19322713 351.64474565 42.71212792 361.08285282 33 369 C31.8146782 369.99688958 30.62983059 370.99434308 29.4453125 371.9921875 C21.02324706 379.03053939 12.49858954 385.47917478 3 391 C2.16001465 391.48968262 1.3200293 391.97936523 0.45458984 392.48388672 C-32.11558027 411.25439478 -68.73553603 423.24071054 -106.375 426.1875 C-107.35267334 426.26645508 -108.33034668 426.34541016 -109.33764648 426.42675781 C-156.3337314 429.96727004 -201.46137213 418.63203277 -242 395 C-243.71123047 394.01386719 -243.71123047 394.01386719 -245.45703125 393.0078125 C-261.97348142 383.19162386 -276.71341815 370.72278373 -290.875 357.8125 C-291.64203247 357.11833984 -291.64203247 357.11833984 -292.42456055 356.41015625 C-301.83531442 347.71532185 -309.45048 337.29624575 -317 327 C-317.4748584 326.35482422 -317.9497168 325.70964844 -318.43896484 325.04492188 C-340.110115 295.06636725 -352.95970093 256.71168447 -355.83691406 220.05566406 C-355.98416802 218.19955875 -356.15843492 216.34564467 -356.3359375 214.4921875 C-359.91919621 175.07634173 -352.84448931 135.58925878 -335.87988281 99.85791016 C-334.98080265 97.95946397 -334.11209012 96.04868223 -333.2421875 94.13671875 C-328.02519479 82.94892092 -321.22906978 72.97701431 -314 63 C-313.54302734 62.36900391 -313.08605469 61.73800781 -312.61523438 61.08789062 C-306.62336073 52.89566277 -300.02441282 45.31549835 -293 38 C-292.1953833 37.15453613 -292.1953833 37.15453613 -291.37451172 36.29199219 C-283.15155973 27.69149201 -274.58229523 20.04762359 -265 13 C-264.32533691 12.49694336 -263.65067383 11.99388672 -262.95556641 11.47558594 C-253.65695357 4.5695111 -244.50510097 -1.08745836 -234 -6 C-232.76759668 -6.63306125 -231.53849728 -7.2725889 -230.3125 -7.91796875 C-214.67500416 -16.11235933 -198.30340952 -22.40508905 -181 -26 C-180.05527832 -26.20222168 -179.11055664 -26.40444336 -178.13720703 -26.61279297 C-116.70502557 -39.64212115 -54.32638831 -32.49951511 0 0 Z M-247 24 C-247.56960449 24.38720215 -248.13920898 24.7744043 -248.72607422 25.17333984 C-256.6810014 30.64434653 -263.61522625 37.12934554 -270.58203125 43.7734375 C-273.12713052 46.19740749 -275.73087178 48.50599782 -278.4375 50.75 C-282.01520842 53.84506253 -284.85342563 57.33515928 -287.734375 61.078125 C-289.41980467 63.25174809 -291.12931537 65.37401835 -292.890625 67.484375 C-299.09330269 74.9623696 -304.32749841 82.40091372 -308.88720703 90.98535156 C-310.32536788 93.58906006 -311.86229708 96.12947152 -313.38671875 98.68359375 C-341.04150822 146.02210789 -342.5630119 202.85619654 -330 255 C-322.80175637 282.05160835 -308.59191848 307.99365122 -290.50585938 329.21337891 C-289.12372407 330.85320806 -287.7802853 332.5147869 -286.453125 334.19921875 C-282.63902951 339.01944632 -278.82282305 343.33475177 -274.08984375 347.26171875 C-271.69945637 349.24998489 -269.41793068 351.33773352 -267.125 353.4375 C-256.77769347 362.70631083 -245.93862354 369.96441019 -234 377 C-233.02329346 377.58128662 -233.02329346 377.58128662 -232.02685547 378.17431641 C-199.75302051 397.35053146 -163.75299337 407.46586628 -126.25 407.375 C-125.39994385 407.37445618 -124.5498877 407.37391235 -123.67407227 407.37335205 C-84.15754501 407.25782286 -38.42455075 397.94720906 -6.20703125 373.62890625 C-3.76677679 371.82786888 -1.22714196 370.30686853 1.375 368.75 C7.98248062 364.60046479 13.36424277 359.34370818 19 354 C20.42906776 352.71969185 21.86541777 351.44741136 23.3125 350.1875 C24.25029297 349.36765625 24.25029297 349.36765625 25.20703125 348.53125 C26.37589732 347.53300273 27.56038896 346.55268287 28.76171875 345.59375 C33.0143886 342.15338788 36.30304615 338.33892854 39.640625 334.01171875 C41.40465322 331.75995425 43.19475601 329.57151328 45.046875 327.39453125 C52.87616171 318.13412214 59.19823027 308.63228716 65 298 C65.85280642 296.48043611 66.70567193 294.96090537 67.55859375 293.44140625 C83.80171451 264.06024072 91.48363439 231.41688226 91.3125 197.875 C91.31034485 197.10898468 91.3081897 196.34296936 91.30596924 195.55374146 C91.25017389 183.14443649 90.53010464 171.17850546 88 159 C87.79068848 157.96552734 87.58137695 156.93105469 87.36572266 155.86523438 C82.22542337 130.90949969 73.76455085 107.5923146 60 86 C59.34826916 84.81572645 58.70209245 83.62837297 58.0625 82.4375 C52.63053134 72.95345794 44.6691459 64.92055053 37.49853516 56.73974609 C36.10457837 55.12141177 34.76132306 53.47202572 33.421875 51.80859375 C31.07007792 49.08126778 28.70615266 46.96421492 25.875 44.75 C21.9207038 41.6014049 18.17778632 38.34202492 14.5 34.875 C9.34761188 30.15741256 3.9835093 26.56949817 -2 23 C-3.32069191 22.17325297 -4.63957636 21.3436144 -5.95703125 20.51171875 C-10.59346122 17.59797497 -15.28289321 14.78094589 -20 12 C-21.18698486 11.29472168 -21.18698486 11.29472168 -22.39794922 10.57519531 C-90.4575602 -29.26524944 -183.46321036 -19.63712398 -247 24 Z " fill="#689B54" transform="translate(379,49)"/>
<path d="M0 0 C1.20762749 -0.00143509 1.20762749 -0.00143509 2.43965149 -0.00289917 C4.13644489 -0.0035764 5.83324095 -0.00175417 7.5300293 0.00244141 C10.08844025 0.00776085 12.64667282 0.002499 15.20507812 -0.00390625 C39.13022775 -0.01496425 39.13022775 -0.01496425 43.42578125 2.1328125 C43.42578125 17.9728125 43.42578125 33.8128125 43.42578125 50.1328125 C39.36930547 50.94410766 36.00133345 51.29238677 31.91015625 51.37890625 C30.65847656 51.41177734 29.40679687 51.44464844 28.1171875 51.47851562 C25.50528839 51.53934776 22.89330531 51.59668237 20.28125 51.65039062 C8.13016784 51.82440545 8.13016784 51.82440545 -2.94921875 56.2578125 C-8.43377519 62.26470765 -9.02687194 68.88112733 -9.0859375 76.6640625 C-9.10257446 77.44233398 -9.11921143 78.22060547 -9.13635254 79.02246094 C-9.19359839 81.89231144 -9.22626574 84.76261006 -9.26171875 87.6328125 C-9.36484375 94.0678125 -9.46796875 100.5028125 -9.57421875 107.1328125 C7.25578125 107.1328125 24.08578125 107.1328125 41.42578125 107.1328125 C42.45092489 110.20824342 42.42481516 111.4856915 42.02026367 114.61669922 C41.90651901 115.52128876 41.79277435 116.4258783 41.67558289 117.35787964 C41.54545303 118.33290436 41.41532318 119.30792908 41.28125 120.3125 C41.15140213 121.31741486 41.02155426 122.32232971 40.88777161 123.35769653 C40.61107546 125.48483492 40.33092766 127.61152673 40.04760742 129.73779297 C39.61608132 132.98673094 39.19887963 136.23728196 38.78320312 139.48828125 C38.51258106 141.55480061 38.24112401 143.62121083 37.96875 145.6875 C37.84469284 146.65847626 37.72063568 147.62945251 37.59281921 148.62985229 C36.39667884 157.47357658 36.39667884 157.47357658 34.42578125 161.1328125 C30.99201857 162.84969384 27.0446376 162.37790252 23.26171875 162.44921875 C21.90090683 162.4803904 21.90090683 162.4803904 20.51260376 162.51219177 C17.60874145 162.57768385 14.7047872 162.63657064 11.80078125 162.6953125 C9.83462583 162.73849805 7.86847978 162.78211235 5.90234375 162.82617188 C1.07691763 162.93336489 -3.74860115 163.03463331 -8.57421875 163.1328125 C-8.5775289 163.78972486 -8.58083904 164.44663721 -8.5842495 165.123456 C-8.66542056 181.09730407 -8.7574935 197.07104629 -8.86174583 213.0447588 C-8.91189746 220.76948371 -8.95834004 228.49419787 -8.99609375 236.21899414 C-9.02900389 242.95083038 -9.0688296 249.68258383 -9.11700881 256.41432875 C-9.14228362 259.97973035 -9.16406192 263.54507696 -9.17756271 267.1105442 C-9.19275248 271.08787473 -9.22337979 275.06500364 -9.25537109 279.04223633 C-9.25753128 280.22834503 -9.25969147 281.41445374 -9.26191711 282.63650513 C-9.2730806 283.71764084 -9.28424408 284.79877655 -9.29574585 285.91267395 C-9.30404199 287.32439991 -9.30404199 287.32439991 -9.31250572 288.76464558 C-9.57421875 291.1328125 -9.57421875 291.1328125 -11.57421875 294.1328125 C-13.89601135 294.50030518 -13.89601135 294.50030518 -16.83422852 294.48925781 C-18.48087242 294.49375946 -18.48087242 294.49375946 -20.16078186 294.49835205 C-21.94517921 294.47983185 -21.94517921 294.47983185 -23.765625 294.4609375 C-24.9812059 294.45906433 -26.1967868 294.45719116 -27.44920349 294.45526123 C-30.02239722 294.44852926 -32.59558053 294.43459229 -35.16870117 294.4140625 C-39.12363103 294.38291557 -43.07816281 294.37309459 -47.03320312 294.3671875 C-49.52734865 294.35801781 -52.02149009 294.34764215 -54.515625 294.3359375 C-55.70724747 294.33168762 -56.89886993 294.32743774 -58.12660217 294.32305908 C-59.76851784 294.30864777 -59.76851784 294.30864777 -61.44360352 294.29394531 C-62.41241959 294.28711731 -63.38123566 294.28028931 -64.37940979 294.27325439 C-66.57421875 294.1328125 -66.57421875 294.1328125 -67.57421875 293.1328125 C-67.67041316 291.43722547 -67.69609534 289.7376041 -67.69447327 288.03929138 C-67.69584793 286.93566254 -67.6972226 285.83203369 -67.69863892 284.69496155 C-67.693246 282.86293434 -67.693246 282.86293434 -67.68774414 280.99389648 C-67.68789017 279.71603271 -67.68803619 278.43816895 -67.68818665 277.12158203 C-67.6884746 273.60727659 -67.68257815 270.093005 -67.67561269 266.57870746 C-67.66937887 262.90981894 -67.66877533 259.24092973 -67.66758728 255.57203674 C-67.66447405 248.61990815 -67.65626077 241.6677952 -67.64623779 234.71567351 C-67.63507641 226.8028647 -67.62956614 218.89005516 -67.62454236 210.97724044 C-67.61407815 194.69575385 -67.59573277 178.41428881 -67.57421875 162.1328125 C-82.09421875 162.1328125 -96.61421875 162.1328125 -111.57421875 162.1328125 C-111.57421875 143.9828125 -111.57421875 125.8328125 -111.57421875 107.1328125 C-97.05421875 107.1328125 -82.53421875 107.1328125 -67.57421875 107.1328125 C-67.57421875 101.5228125 -67.57421875 95.9128125 -67.57421875 90.1328125 C-67.49930704 84.75466805 -67.40125507 79.38391005 -67.26171875 74.0078125 C-67.25052002 73.34604004 -67.23932129 72.68426758 -67.2277832 72.00244141 C-66.9255281 54.38589901 -64.3741323 36.93546367 -52.57421875 23.1328125 C-51.9503125 22.33101562 -51.32640625 21.52921875 -50.68359375 20.703125 C-38.16839728 5.45312634 -19.21858498 -0.05136165 0 0 Z " fill="#659A51" transform="translate(290.57421875,97.8671875)"/>
<path d="M0 0 C0.33 0 0.66 0 1 0 C1 5.94 1 11.88 1 18 C-1.86429688 18.06058594 -4.72859375 18.12117188 -7.6796875 18.18359375 C-10.44647933 18.24535977 -13.21322928 18.30875715 -15.97998047 18.37231445 C-17.90637504 18.41569001 -19.83280871 18.45736314 -21.75927734 18.49731445 C-24.52453408 18.55495362 -27.2895935 18.61866616 -30.0546875 18.68359375 C-30.9193161 18.70030624 -31.7839447 18.71701874 -32.67477417 18.73423767 C-36.97395852 18.72159896 -36.97395852 18.72159896 -41 20 C-41.00808685 20.62196259 -41.01617371 21.24392517 -41.02450562 21.88473511 C-41.11036507 28.34085016 -41.20985976 34.79665154 -41.31738281 41.25244141 C-41.35573647 43.66384628 -41.3905779 46.07530962 -41.421875 48.48681641 C-41.46738703 51.94715313 -41.52540404 55.40708508 -41.5859375 58.8671875 C-41.59748871 59.95055389 -41.60903992 61.03392029 -41.62094116 62.15011597 C-41.64081085 63.1510025 -41.66068054 64.15188904 -41.68115234 65.18310547 C-41.69447601 66.06690887 -41.70779968 66.95071228 -41.7215271 67.86129761 C-42 70 -42 70 -44 72 C-44 53.85 -44 35.7 -44 17 C-29.48 17 -14.96 17 0 17 C0 11.39 0 5.78 0 0 Z " fill="#A4C19A" transform="translate(223,188)"/>
<path d="M0 0 C1.32 0.33 2.64 0.66 4 1 C3.360625 1.9075 2.72125 2.815 2.0625 3.75 C-0.41036132 7.64662996 -1.10198096 10.48716216 -1.20532227 15.03417969 C-1.22526749 15.81468689 -1.24521271 16.59519409 -1.26576233 17.39935303 C-1.28247482 18.23178528 -1.29918732 19.06421753 -1.31640625 19.921875 C-1.33718735 20.78186096 -1.35796844 21.64184692 -1.37937927 22.52789307 C-1.44463739 25.26851598 -1.50364917 28.00923275 -1.5625 30.75 C-1.60570781 32.6106867 -1.64932282 34.47136398 -1.69335938 36.33203125 C-1.80029442 40.88792523 -1.90162851 45.4439134 -2 50 C-2.33 50 -2.66 50 -3 50 C-3.94685282 40.77665683 -4.04435017 31.7572765 -3.703125 22.51220703 C-3.62382941 20.34297711 -3.55730273 18.17360387 -3.4921875 16.00390625 C-3.14079403 5.42238209 -3.14079403 5.42238209 -2 2 C-1.34 2 -0.68 2 0 2 C0 1.34 0 0.68 0 0 Z " fill="#669059" transform="translate(283,154)"/>
<path d="M0 0 C0.66 0.33 1.32 0.66 2 1 C-0.32385453 3.67504798 -2.66119737 6.33801737 -5 9 C-5.79148437 9.91007812 -6.58296875 10.82015625 -7.3984375 11.7578125 C-8.19507813 12.66273438 -8.99171875 13.56765625 -9.8125 14.5 C-10.93591797 15.78390625 -10.93591797 15.78390625 -12.08203125 17.09375 C-14 19 -14 19 -16 19 C-15.67 17.35 -15.34 15.7 -15 14 C-14.01 13.67 -13.02 13.34 -12 13 C-11.67 12.34 -11.34 11.68 -11 11 C-9.625 8.875 -9.625 8.875 -8 7 C-7.01 7 -6.02 7 -5 7 C-4.731875 6.030625 -4.46375 5.06125 -4.1875 4.0625 C-3.5996875 2.5465625 -3.5996875 2.5465625 -3 1 C-2.01 0.67 -1.02 0.34 0 0 Z " fill="#81A675" transform="translate(434,392)"/>
<path d="M0 0 C3.1875 -0.5 3.1875 -0.5 7 0 C9.15024236 2.42700622 10.59103494 5.09116891 12 8 C13.32 7.34 14.64 6.68 16 6 C16.28875 7.093125 16.5775 8.18625 16.875 9.3125 C17.81893204 13.04013845 17.81893204 13.04013845 20 16 C16.4102982 14.46155637 13.96162103 12.28488452 11.125 9.625 C7.56470764 6.34910969 4.07849263 3.57589008 0 1 C0 0.67 0 0.34 0 0 Z " fill="#83A372" transform="translate(382,75)"/>
<path d="M0 0 C-3.10965283 1.63201638 -6.26690587 2.91437359 -9.5625 4.125 C-10.51253906 4.47820313 -11.46257812 4.83140625 -12.44140625 5.1953125 C-15 6 -15 6 -18 6 C-18 6.66 -18 7.32 -18 8 C-21.375 8.125 -21.375 8.125 -25 8 C-25.66 7.34 -26.32 6.68 -27 6 C-24.45986091 5.1824493 -21.91806769 4.37084814 -19.375 3.5625 C-18.66214844 3.33240234 -17.94929687 3.10230469 -17.21484375 2.86523438 C-11.47660204 1.04900191 -6.06296468 -0.17832249 0 0 Z " fill="#8AAB7C" transform="translate(203,23)"/>
<path d="M0 0 C2.97 0 5.94 0 9 0 C9 0.66 9 1.32 9 2 C9.66386719 2.06058594 10.32773437 2.12117188 11.01171875 2.18359375 C13.67676306 2.43648117 16.33792096 2.71784416 19 3 C20.423125 3.12375 20.423125 3.12375 21.875 3.25 C24.9536648 4.33658758 26.18209083 6.3741312 28 9 C27.48695313 8.84144531 26.97390625 8.68289062 26.4453125 8.51953125 C17.67685235 5.8476604 8.83633815 3.43528709 0 1 C0 0.67 0 0.34 0 0 Z " fill="#9BB990" transform="translate(305,40)"/>
<path d="M0 0 C-0.33 0.99 -0.66 1.98 -1 3 C-3.76951222 3.38922874 -6.5395547 3.76184952 -9.3125 4.125 C-10.09818359 4.23714844 -10.88386719 4.34929687 -11.69335938 4.46484375 C-12.45068359 4.56152344 -13.20800781 4.65820312 -13.98828125 4.7578125 C-14.68477783 4.8520752 -15.38127441 4.94633789 -16.09887695 5.04345703 C-18 5 -18 5 -21 3 C-18.6263603 2.49265716 -16.25142575 1.99397614 -13.875 1.5 C-13.20984375 1.35691406 -12.5446875 1.21382813 -11.859375 1.06640625 C-7.83943578 0.2387717 -4.10095101 -0.15330658 0 0 Z " fill="#84A375" transform="translate(288,98)"/>
<path d="M0 0 C0.66 0.99 1.32 1.98 2 3 C0.71034824 4.37562854 -0.62689293 5.70766393 -2 7 C-2.66 7 -3.32 7 -4 7 C-4.66 8.32 -5.32 9.64 -6 11 C-6.99 11 -7.98 11 -9 11 C-9.66 12.32 -10.32 13.64 -11 15 C-11.66 14.34 -12.32 13.68 -13 13 C-8.71 8.71 -4.42 4.42 0 0 Z " fill="#6D9960" transform="translate(99,74)"/>
<path d="M0 0 C0 0.66 0 1.32 0 2 C-7.92 1.34 -15.84 0.68 -24 0 C-24 -0.33 -24 -0.66 -24 -1 C-15.17136286 -3.17585206 -8.62946268 -2.84588663 0 0 Z " fill="#89AB7B" transform="translate(294,36)"/>
<path d="M0 0 C-0.49514018 4.34037775 -3.31113872 7.08612375 -6.0625 10.25 C-6.53494141 10.80429688 -7.00738281 11.35859375 -7.49414062 11.9296875 C-8.65658967 13.291749 -9.82747855 14.64659956 -11 16 C-11.640625 14.1484375 -11.640625 14.1484375 -12 12 C-10.37897032 10.28891311 -8.70496537 8.62746694 -7 7 C-5.96958573 5.01549844 -4.96314063 3.01800895 -4 1 C-2 0 -2 0 0 0 Z " fill="#8BA87D" transform="translate(93,107)"/>
<path d="M0 0 C2.13093906 1.06546953 3.36587557 2.29159719 5 4 C5.33 3.01 5.66 2.02 6 1 C7.32 1.33 8.64 1.66 10 2 C8.75443908 2.81928886 7.50333365 3.63015186 6.25 4.4375 C5.55390625 4.88996094 4.8578125 5.34242188 4.140625 5.80859375 C2.07042986 6.9608009 0.31303676 7.54676982 -2 8 C-2.20086443 4.28400809 -2.1519437 3.22791555 0 0 Z " fill="#7FA671" transform="translate(378,434)"/>
<path d="M0 0 C0.66 0.33 1.32 0.66 2 1 C1.34 2.32 0.68 3.64 0 5 C-0.99 5 -1.98 5 -3 5 C-3 5.66 -3 6.32 -3 7 C-3.99 7 -4.98 7 -6 7 C-6 7.99 -6 8.98 -6 10 C-8.97 9.505 -8.97 9.505 -12 9 C-9.67350413 6.49280542 -7.17318479 4.67816399 -4.3125 2.8125 C-3.50425781 2.28269531 -2.69601562 1.75289063 -1.86328125 1.20703125 C-1.24839844 0.80871094 -0.63351562 0.41039062 0 0 Z " fill="#90AD81" transform="translate(378,418)"/>
<path d="M0 0 C7.36259293 -0.22424141 13.87049629 0.09879901 21 2 C21 2.66 21 3.32 21 4 C18.4372008 3.68981396 15.8747789 3.37693109 13.3125 3.0625 C12.59126953 2.97548828 11.87003906 2.88847656 11.12695312 2.79882812 C7.37989416 2.33686195 3.69207089 1.80832321 0 1 C0 0.67 0 0.34 0 0 Z " fill="#82A276" transform="translate(204,470)"/>
<path d="M0 0 C4.87598383 1.13394973 9.72091243 3.38556941 14 6 C14.33 6.66 14.66 7.32 15 8 C8.89262558 6.23536928 2.92566493 4.30442525 -3 2 C-2.01 1.34 -1.02 0.68 0 0 Z " fill="#98B68F" transform="translate(166,456)"/>
<path d="M0 0 C0.33 0.66 0.66 1.32 1 2 C1.66 2 2.32 2 3 2 C2.67 2.99 2.34 3.98 2 5 C1.21625 4.95875 0.4325 4.9175 -0.375 4.875 C-3.16116119 4.71271266 -3.16116119 4.71271266 -5 7 C-7.625 6.625 -7.625 6.625 -10 6 C-10 5.34 -10 4.68 -10 4 C-6.7 2.68 -3.4 1.36 0 0 Z " fill="#62994C" transform="translate(195,25)"/>
<path d="M0 0 C0 0.33 0 0.66 0 1 C-2.74837849 1.53107314 -5.49812375 2.05015881 -8.25 2.5625 C-9.02730469 2.71396484 -9.80460938 2.86542969 -10.60546875 3.02148438 C-11.35957031 3.16005859 -12.11367187 3.29863281 -12.890625 3.44140625 C-13.58188477 3.57232666 -14.27314453 3.70324707 -14.98535156 3.83813477 C-17.21287942 4.01710362 -18.87506962 3.65206197 -21 3 C-14.58288701 -1.27807533 -7.38114155 -1.36687806 0 0 Z " fill="#97B487" transform="translate(227,37)"/>
<path d="M0 0 C0.33 0 0.66 0 1 0 C1 5.61 1 11.22 1 17 C-2 14 -2 14 -2.109375 11.15234375 C-1.99078125 10.09144531 -1.8721875 9.03054688 -1.75 7.9375 C-1.64171875 6.87402344 -1.5334375 5.81054688 -1.421875 4.71484375 C-1 2 -1 2 0 0 Z " fill="#7A9D6E" transform="translate(280,352)"/>
<path d="M0 0 C0.99 0.495 0.99 0.495 2 1 C2.6328125 3.109375 2.6328125 3.109375 3.125 5.75 C3.29257812 6.61109375 3.46015625 7.4721875 3.6328125 8.359375 C3.9923991 10.94533821 4.06564041 13.39313809 4 16 C3.34 16 2.68 16 2 16 C0.80911014 10.61972975 -0.2919519 5.54708616 0 0 Z " fill="#88AA7E" transform="translate(465,197)"/>
<path d="M0 0 C1.65 0.33 3.3 0.66 5 1 C1.17058011 4.32993034 -3.37522222 6.05324525 -8 8 C-7.67 6.68 -7.34 5.36 -7 4 C-5.02 3.67 -3.04 3.34 -1 3 C-0.67 2.01 -0.34 1.02 0 0 Z " fill="#789E6B" transform="translate(162,52)"/>
<path d="M0 0 C-1.45855647 3.68646141 -3.30229045 5.16143971 -6.625 7.25 C-7.44226563 7.77078125 -8.25953125 8.2915625 -9.1015625 8.828125 C-10.04128906 9.40820312 -10.04128906 9.40820312 -11 10 C-10.30621489 6.73988358 -9.54106009 5.20961747 -7 3 C-6.34 3.33 -5.68 3.66 -5 4 C-5 3.34 -5 2.68 -5 2 C-2 0 -2 0 0 0 Z " fill="#86A778" transform="translate(412,416)"/>
<path d="M0 0 C0.33 0.66 0.66 1.32 1 2 C1.94875 1.95875 2.8975 1.9175 3.875 1.875 C7 2 7 2 9 4 C9 4.66 9 5.32 9 6 C9.66 6.33 10.32 6.66 11 7 C10.67 7.66 10.34 8.32 10 9 C6.04 6.69 2.08 4.38 -2 2 C-1.34 1.34 -0.68 0.68 0 0 Z " fill="#88A979" transform="translate(139,442)"/>
<path d="M0 0 C0.33 1.32 0.66 2.64 1 4 C-0.07107117 4.86949317 -1.15745944 5.72014205 -2.25 6.5625 C-2.85328125 7.03816406 -3.4565625 7.51382813 -4.078125 8.00390625 C-6 9 -6 9 -10 8 C-6.7 5.36 -3.4 2.72 0 0 Z " fill="#86A778" transform="translate(118,59)"/>
<path d="M0 0 C1.58467728 0.28427417 3.1677057 0.57774818 4.75 0.875 C6.07257813 1.11863281 6.07257813 1.11863281 7.421875 1.3671875 C9.86947744 1.96796264 11.80599857 2.77997117 14 4 C11.13391871 5.43304064 9.18699217 5.30644155 6 5 C2.625 3.0625 2.625 3.0625 0 1 C0 0.67 0 0.34 0 0 Z " fill="#87A87A" transform="translate(191,447)"/>
<path d="M0 0 C0 0.66 0 1.32 0 2 C-4.21545052 5.26357459 -8.88068021 6.05197782 -14 7 C-11.725306 4.44736912 -9.56797307 3.15855185 -6.4375 1.8125 C-5.65246094 1.46832031 -4.86742187 1.12414062 -4.05859375 0.76953125 C-2 0 -2 0 0 0 Z " fill="#9AB58A" transform="translate(266,102)"/>
<path d="M0 0 C0.33 0 0.66 0 1 0 C1.16767864 1.95824694 1.33411205 3.91660055 1.5 5.875 C1.5928125 6.96554687 1.685625 8.05609375 1.78125 9.1796875 C1.90562958 10.78329564 2 12.39157551 2 14 C0.68 13.67 -0.64 13.34 -2 13 C-1.34 8.71 -0.68 4.42 0 0 Z " fill="#91B182" transform="translate(467,279)"/>
<path d="M0 0 C0.33 0 0.66 0 1 0 C0.67 5.61 0.34 11.22 0 17 C-0.66 17 -1.32 17 -2 17 C-2.05441656 15.10448978 -2.09298035 13.2085208 -2.125 11.3125 C-2.14820313 10.25675781 -2.17140625 9.20101563 -2.1953125 8.11328125 C-1.99858729 4.97748141 -1.33057654 2.82354627 0 0 Z " fill="#6A8E58" transform="translate(487,272)"/>
<path d="M0 0 C0.6875 1.6875 0.6875 1.6875 1 4 C-0.1875 6.6875 -0.1875 6.6875 -2 9 C-4.1875 9.8125 -4.1875 9.8125 -6 10 C-4.6302836 6.00499382 -2.74277578 3.19990508 0 0 Z " fill="#789E69" transform="translate(68,108)"/>
<path d="M0 0 C0.99 0.33 1.98 0.66 3 1 C1.50958227 4.79379058 -0.69062512 6.68343758 -4 9 C-4.66 9 -5.32 9 -6 9 C-4.47291037 5.56404834 -2.40072955 2.88087546 0 0 Z " fill="#82A572" transform="translate(75,99)"/>
<path d="M0 0 C5.94 1.485 5.94 1.485 12 3 C9 5 9 5 6.73828125 4.7578125 C5.93777344 4.54898437 5.13726562 4.34015625 4.3125 4.125 C3.50425781 3.92132812 2.69601562 3.71765625 1.86328125 3.5078125 C1.24839844 3.34023438 0.63351562 3.17265625 0 3 C0 2.01 0 1.02 0 0 Z " fill="#94B28A" transform="translate(320,24)"/>
<path d="M0 0 C1.60597325 0.45196245 3.20972508 0.91182327 4.8125 1.375 C6.15248047 1.75785156 6.15248047 1.75785156 7.51953125 2.1484375 C10 3 10 3 13 5 C10.08517222 5.80967438 8.53886783 6.21845993 5.6875 5.0625 C5.130625 4.711875 4.57375 4.36125 4 4 C4 3.34 4 2.68 4 2 C3.01 2.33 2.02 2.66 1 3 C0.67 2.01 0.34 1.02 0 0 Z " fill="#94B98A" transform="translate(178,442)"/>
<path d="M0 0 C1.32 0.33 2.64 0.66 4 1 C3.38125 1.9075 2.7625 2.815 2.125 3.75 C0.55610389 6.14948817 -0.80443821 8.40961612 -2 11 C-3.125 5.375 -3.125 5.375 -2 2 C-1.34 2 -0.68 2 0 2 C0 1.34 0 0.68 0 0 Z " fill="#8BAF7C" transform="translate(283,154)"/>
<path d="M0 0 C1.32 0 2.64 0 4 0 C4 0.66 4 1.32 4 2 C4.7425 1.87625 5.485 1.7525 6.25 1.625 C9 2 9 2 11.3125 5 C12.1478125 6.485 12.1478125 6.485 13 8 C8.27626146 6.37621488 4.05818166 3.89006982 0 1 C0 0.67 0 0.34 0 0 Z " fill="#9AB48D" transform="translate(364,64)"/>
<path d="M0 0 C2.31 0 4.62 0 7 0 C7.33 0.66 7.66 1.32 8 2 C10.52733235 2.65555119 10.52733235 2.65555119 13 3 C12.67 3.99 12.34 4.98 12 6 C7.76570244 4.68938409 3.92592596 3.05643741 0 1 C0 0.67 0 0.34 0 0 Z " fill="#99B98D" transform="translate(151,451)"/>
<path d="M0 0 C2.97 0.495 2.97 0.495 6 1 C6 1.66 6 2.32 6 3 C7.98 3 9.96 3 12 3 C12.33 3.66 12.66 4.32 13 5 C12.34 5.66 11.68 6.32 11 7 C7.37 5.02 3.74 3.04 0 1 C0 0.67 0 0.34 0 0 Z " fill="#8FAE83" transform="translate(352,57)"/>
<path d="M0 0 C0.99 0.33 1.98 0.66 3 1 C1.71480435 3.86697492 0.42870746 5.97607712 -2 8 C-2.66 8 -3.32 8 -4 8 C-3.67 6.35 -3.34 4.7 -3 3 C-2.01 2.67 -1.02 2.34 0 2 C0 1.34 0 0.68 0 0 Z " fill="#95B489" transform="translate(422,403)"/>
<path d="M0 0 C1.32 0.33 2.64 0.66 4 1 C4.66 4.3 5.32 7.6 6 11 C2.90407165 7.4912812 1.25805377 4.50802601 0 0 Z " fill="#94B285" transform="translate(49,353)"/>
<path d="M0 0 C0.96516243 3.00272755 1.22393475 5.04215769 0 8 C-0.99 8.33 -1.98 8.66 -3 9 C-3 9.66 -3 10.32 -3 11 C-3.66 11 -4.32 11 -5 11 C-3.55049545 7.2089881 -1.84827434 3.6125362 0 0 Z " fill="#8FAE84" transform="translate(449,336)"/>
<path d="M0 0 C0.33 0 0.66 0 1 0 C1 5.94 1 11.88 1 18 C-0.32 17.67 -1.64 17.34 -3 17 C-2.01 15.515 -2.01 15.515 -1 14 C-0.70547416 11.61322924 -0.5071783 9.21373906 -0.375 6.8125 C-0.30023438 5.54019531 -0.22546875 4.26789063 -0.1484375 2.95703125 C-0.09945313 1.98121094 -0.05046875 1.00539062 0 0 Z " fill="#628856" transform="translate(333,130)"/>
<path d="M0 0 C1.25 2.5625 1.25 2.5625 2 5 C-1.91211733 3.84414715 -4.8745041 2.64465038 -8 0 C-5.00112135 -0.96392528 -2.91185125 -1.35886391 0 0 Z " fill="#749C65" transform="translate(350,52)"/>
<path d="M0 0 C3.24208567 0.35049575 4.61527704 0.56221181 6.8125 3.0625 C7.204375 3.701875 7.59625 4.34125 8 5 C7.01 6.485 7.01 6.485 6 8 C4.02 5.36 2.04 2.72 0 0 Z " fill="#89AB7C" transform="translate(77,394)"/>
<path d="M0 0 C2.375 0.1875 2.375 0.1875 5 1 C6.3125 3.5625 6.3125 3.5625 7 6 C6.34 6.66 5.68 7.32 5 8 C2.525 4.04 2.525 4.04 0 0 Z " fill="#7DA36F" transform="translate(56,366)"/>
<path d="M0 0 C0.99 1.32 1.98 2.64 3 4 C2.360625 4.20625 1.72125 4.4125 1.0625 4.625 C-1.34925077 5.89538209 -1.34925077 5.89538209 -1.75 9.125 C-1.8325 10.07375 -1.915 11.0225 -2 12 C-2.66 12 -3.32 12 -4 12 C-2.66666667 8 -1.33333333 4 0 0 Z " fill="#85A56C" transform="translate(457,318)"/>
<path d="M0 0 C2.93200474 2.85276137 5.64315404 5.65079784 8 9 C7.67 9.66 7.34 10.32 7 11 C6.01 10.67 5.02 10.34 4 10 C3.67 8.35 3.34 6.7 3 5 C2.34 5 1.68 5 1 5 C0.67 3.35 0.34 1.7 0 0 Z " fill="#84A678" transform="translate(440,105)"/>
<path d="M0 0 C0.66 0 1.32 0 2 0 C2.433125 1.6396875 2.433125 1.6396875 2.875 3.3125 C3.81893204 7.04013845 3.81893204 7.04013845 6 10 C3.15425032 8.72431911 0.81910019 7.58503711 -1 5 C-0.6875 2.3125 -0.6875 2.3125 0 0 Z " fill="#8EB37E" transform="translate(396,81)"/>
<path d="M0 0 C-3.0469629 1.69433918 -5.82821466 2.49467112 -9.25 3.125 C-10.58804688 3.37636719 -10.58804688 3.37636719 -11.953125 3.6328125 C-12.62859375 3.75398438 -13.3040625 3.87515625 -14 4 C-12 1 -12 1 -10.375 0.3125 C-6.900172 -0.14471421 -3.50413832 -0.05840231 0 0 Z " fill="#9DBB95" transform="translate(201,42)"/>
<path d="M0 0 C0 2 0 2 -2.125 4.5 C-5.0833566 7.072484 -7.24219895 8.03870206 -11 9 C-9.33333333 7.33333333 -7.66666667 5.66666667 -6 4 C-5.278125 3.236875 -4.55625 2.47375 -3.8125 1.6875 C-2 0 -2 0 0 0 Z " fill="#99B88E" transform="translate(400,402)"/>
<path d="M0 0 C1.98 0.66 3.96 1.32 6 2 C5.67 3.98 5.34 5.96 5 8 C2.74754119 5.31158141 1.11786042 3.35358125 0 0 Z " fill="#759C68" transform="translate(431,122)"/>
<path d="M0 0 C4.75481646 0.57634139 7.97048212 2.55068521 12 5 C10 6 10 6 7.6171875 5.22265625 C6.71226562 4.83980469 5.80734375 4.45695312 4.875 4.0625 C3.50988281 3.49208984 3.50988281 3.49208984 2.1171875 2.91015625 C1.41851562 2.60980469 0.71984375 2.30945312 0 2 C0 1.34 0 0.68 0 0 Z " fill="#9EBA95" transform="translate(352,36)"/>
<path d="M0 0 C0 0.66 0 1.32 0 2 C-0.66 2 -1.32 2 -2 2 C-2 2.66 -2 3.32 -2 4 C-3.98 4.66 -5.96 5.32 -8 6 C-8.66 5.34 -9.32 4.68 -10 4 C-8.71086513 3.32845067 -7.41859796 2.66291141 -6.125 2 C-5.40570313 1.62875 -4.68640625 1.2575 -3.9453125 0.875 C-2 0 -2 0 0 0 Z " fill="#89B078" transform="translate(359,431)"/>
<path d="M0 0 C0.66 0.33 1.32 0.66 2 1 C1.60196439 3.88575819 1.20990931 4.82189513 -1.0625 6.75 C-1.701875 7.1625 -2.34125 7.575 -3 8 C-3.66 7.67 -4.32 7.34 -5 7 C-3.35 4.69 -1.7 2.38 0 0 Z " fill="#7FA06C" transform="translate(437,358)"/>
<path d="M0 0 C0.33 0.99 0.66 1.98 1 3 C-0.375 5.5625 -0.375 5.5625 -2 8 C-2.33 8.66 -2.66 9.32 -3 10 C-3.99 10 -4.98 10 -6 10 C-4.6302836 6.00499382 -2.74277578 3.19990508 0 0 Z " fill="#8AAC79" transform="translate(61,118)"/>
<path d="M0 0 C2.475 0.495 2.475 0.495 5 1 C5.66 3.31 6.32 5.62 7 8 C3.75700849 5.61042731 1.49097658 3.7952131 0 0 Z " fill="#93B186" transform="translate(417,106)"/>
<path d="M0 0 C0.99 0.33 1.98 0.66 3 1 C-0.465 3.97 -0.465 3.97 -4 7 C-4.33 6.01 -4.66 5.02 -5 4 C-3.36587557 2.29159719 -2.13093906 1.06546953 0 0 Z " fill="#94B48A" transform="translate(108,90)"/>
<path d="M0 0 C1.29640378 0.59393382 2.58698839 1.20057989 3.875 1.8125 C4.59429687 2.14894531 5.31359375 2.48539063 6.0546875 2.83203125 C8 4 8 4 10 7 C9.01 7 8.02 7 7 7 C7 6.34 7 5.68 7 5 C4.69 4.34 2.38 3.68 0 3 C0 2.01 0 1.02 0 0 Z " fill="#97B18D" transform="translate(378,49)"/>
<path d="M0 0 C-1 3 -1 3 -3.8125 4.75 C-7.13982105 6.05483179 -7.79584277 6.02866653 -11 5 C-9.54462432 4.16151196 -8.08559627 3.32936066 -6.625 2.5 C-5.81289062 2.0359375 -5.00078125 1.571875 -4.1640625 1.09375 C-2 0 -2 0 0 0 Z " fill="#8BAA80" transform="translate(141,46)"/>
<path d="M0 0 C-0.33 0.99 -0.66 1.98 -1 3 C-8.42857143 3.28571429 -8.42857143 3.28571429 -12 1 C-7.95858806 0.36605303 -4.0934693 -0.12404452 0 0 Z " fill="#8EAF81" transform="translate(294,453)"/>
<path d="M0 0 C4.455 1.98 4.455 1.98 9 4 C8.67 4.99 8.34 5.98 8 7 C5 6 5 6 3 4 C2.67 3.34 2.34 2.68 2 2 C1.34 2 0.68 2 0 2 C0 1.34 0 0.68 0 0 Z " fill="#84AE72" transform="translate(158,433)"/>
<path d="M0 0 C0.99 0.66 1.98 1.32 3 2 C-1.455 3.485 -1.455 3.485 -6 5 C-6 4.01 -6 3.02 -6 2 C-3.1875 0.875 -3.1875 0.875 0 0 Z " fill="#8BAC7E" transform="translate(352,452)"/>
<path d="M0 0 C1.65 0.33 3.3 0.66 5 1 C2.63707344 3.52588702 1.33537489 4.88820837 -2 6 C-2 5.01 -2 4.02 -2 3 C-1.34 3 -0.68 3 0 3 C0 2.01 0 1.02 0 0 Z " fill="#86AB7B" transform="translate(395,426)"/>
<path d="M0 0 C1.7074998 1.28062485 3.37373596 2.61767557 5 4 C5 4.66 5 5.32 5 6 C3.68 6.33 2.36 6.66 1 7 C-0.0625 4.625 -0.0625 4.625 -1 2 C-0.67 1.34 -0.34 0.68 0 0 Z " fill="#789E6A" transform="translate(92,383)"/>
<path d="M0 0 C2.15377564 2.62198774 3.40072174 4.64404172 4 8 C2.68 8.33 1.36 8.66 0 9 C0 6.03 0 3.06 0 0 Z " fill="#8AAE76" transform="translate(60,333)"/>
<path d="M0 0 C0.33 0.66 0.66 1.32 1 2 C1.66 2 2.32 2 3 2 C4.125 4.8125 4.125 4.8125 5 8 C4.01 9.485 4.01 9.485 3 11 C2.49384702 9.73160474 1.99530901 8.46016898 1.5 7.1875 C1.2215625 6.47980469 0.943125 5.77210938 0.65625 5.04296875 C0 3 0 3 0 0 Z " fill="#91AF85" transform="translate(32,312)"/>
<path d="M0 0 C0.66 0 1.32 0 2 0 C1.34 2.97 0.68 5.94 0 9 C-0.66 8.67 -1.32 8.34 -2 8 C-1.125 1.125 -1.125 1.125 0 0 Z " fill="#79A16F" transform="translate(481,304)"/>
<path d="M0 0 C2 2 2 2 2.1953125 4.3828125 C2.17210937 5.28773438 2.14890625 6.19265625 2.125 7.125 C2.10695313 8.03507812 2.08890625 8.94515625 2.0703125 9.8828125 C2.03550781 10.93082031 2.03550781 10.93082031 2 12 C0.02833476 8.35443121 -0.60930794 5.14133583 -1 1 C-0.67 0.67 -0.34 0.34 0 0 Z " fill="#94B586" transform="translate(28,292)"/>
<path d="M0 0 C0 0.99 0 1.98 0 3 C0.33 3.99 0.66 4.98 1 6 C-1.31 6.33 -3.62 6.66 -6 7 C-4.02 4.69 -2.04 2.38 0 0 Z " fill="#92B585" transform="translate(84,89)"/>
<path d="M0 0 C0.66 0.99 1.32 1.98 2 3 C0.35 4.32 -1.3 5.64 -3 7 C-3.66 6.34 -4.32 5.68 -5 5 C-3.35 3.35 -1.7 1.7 0 0 Z " fill="#85AC75" transform="translate(99,74)"/>
<path d="M0 0 C2.31 0.66 4.62 1.32 7 2 C7.33 3.32 7.66 4.64 8 6 C4.63408134 4.55746343 2.48952921 2.66735273 0 0 Z " fill="#8EB284" transform="translate(112,426)"/>
<path d="M0 0 C1.65 0 3.3 0 5 0 C5.33 1.65 5.66 3.3 6 5 C2.83884224 3.63016497 2.0072908 3.0109362 0 0 Z " fill="#8FAD83" transform="translate(95,412)"/>
<path d="M0 0 C0.66 0.99 1.32 1.98 2 3 C1.125 6.6875 1.125 6.6875 0 10 C-0.33 10 -0.66 10 -1 10 C-1.33 7.03 -1.66 4.06 -2 1 C-1.34 0.67 -0.68 0.34 0 0 Z " fill="#95B289" transform="translate(26,276)"/>
<path d="M0 0 C0.66 0.33 1.32 0.66 2 1 C0.70700306 3.88437779 -0.65941363 5.87219421 -3 8 C-2.25 2.25 -2.25 2.25 0 0 Z " fill="#7DA16C" transform="translate(84,115)"/>
<path d="M0 0 C0.66 0.33 1.32 0.66 2 1 C2.625 4.0625 2.625 4.0625 3 7 C1.02 5.35 -0.96 3.7 -3 2 C-2.01 1.34 -1.02 0.68 0 0 Z " fill="#A2BB99" transform="translate(87,401)"/>
<path d="M0 0 C0.66 0 1.32 0 2 0 C0.8141763 3.37503669 -0.27573689 5.64722731 -3 8 C-2.45276317 4.62537285 -1.9451 2.91765 0 0 Z " fill="#7FA26B" transform="translate(451,368)"/>
<path d="M0 0 C0.99 0 1.98 0 3 0 C2.67 1.65 2.34 3.3 2 5 C1.01 5.33 0.02 5.66 -1 6 C-0.67 4.02 -0.34 2.04 0 0 Z " fill="#7BA36A" transform="translate(228,138)"/>
<path d="M0 0 C-1.43120744 0.55808089 -2.87030355 1.09596462 -4.3125 1.625 C-5.11300781 1.92664063 -5.91351563 2.22828125 -6.73828125 2.5390625 C-7.48464844 2.69117187 -8.23101562 2.84328125 -9 3 C-9.99 2.34 -10.98 1.68 -12 1 C-3.96428571 -1.27678571 -3.96428571 -1.27678571 0 0 Z " fill="#A6C49F" transform="translate(279,100)"/>
<path d="M0 0 C2.97 1.98 2.97 1.98 6 4 C2.37673261 5.2077558 1.35853631 4.54311128 -2 3 C-1.34 2.67 -0.68 2.34 0 2 C0 1.34 0 0.68 0 0 Z " fill="#85AB77" transform="translate(393,59)"/>
<path d="M0 0 C2.0625 2.3125 2.0625 2.3125 4 5 C3.67 5.99 3.34 6.98 3 8 C0.9375 5.6875 0.9375 5.6875 -1 3 C-0.67 2.01 -0.34 1.02 0 0 Z " fill="#8FAF84" transform="translate(440,134)"/>
<path d="M0 0 C1.2065625 0.0309375 1.2065625 0.0309375 2.4375 0.0625 C-0.25091859 2.31495881 -2.20891875 3.94463958 -5.5625 5.0625 C-3.15007962 0.07683121 -3.15007962 0.07683121 0 0 Z " fill="#8BAA7E" transform="translate(150.5625,59.9375)"/>
</svg>
