<?xml version="1.0" encoding="UTF-8"?>
<svg version="1.1" xmlns="http://www.w3.org/2000/svg" width="500" height="499">
<path d="M0 0 C0.62503418 0.40798828 1.25006836 0.81597656 1.89404297 1.23632812 C20.67878305 13.58664657 39.75725713 27.42459562 54 45 C54.58523438 45.69738281 55.17046875 46.39476563 55.7734375 47.11328125 C66.02737927 59.56449626 75.0673299 72.96792674 83 87 C83.59893066 88.03833984 83.59893066 88.03833984 84.20996094 89.09765625 C95.57109984 108.9286528 102.92223309 130.76274785 108 153 C108.31541748 154.37285156 108.31541748 154.37285156 108.63720703 155.7734375 C118.9026847 202.71991338 111.50804228 258.20544021 90 301 C89.46439453 302.07749512 89.46439453 302.07749512 88.91796875 303.17675781 C77.99515736 324.97413496 64.08815611 345.55899111 47 363 C46.07531797 363.96334698 45.1508414 364.92689123 44.2265625 365.890625 C38.48755802 371.77431026 32.54640915 377.04059913 26 382 C24.80451022 382.9242499 23.60921128 383.84874669 22.4140625 384.7734375 C-0.00473577 401.99298256 -24.10088212 416.01910301 -51 425 C-51.93392578 425.31308105 -52.86785156 425.62616211 -53.83007812 425.94873047 C-113.80894353 445.64253076 -180.20405664 439.3141906 -236.72216797 411.93725586 C-253.68130558 403.3530507 -269.45039939 392.20530281 -284 380 C-284.59490234 379.50516113 -285.18980469 379.01032227 -285.80273438 378.50048828 C-296.27918064 369.76190601 -305.66718036 360.85440332 -314 350 C-314.43296387 349.44876465 -314.86592773 348.8975293 -315.31201172 348.32958984 C-333.58436456 325.05825707 -348.27792453 299.33944281 -357 271 C-357.23412598 270.24799316 -357.46825195 269.49598633 -357.70947266 268.72119141 C-375.40459597 211.04492704 -370.70306399 146.93400024 -342.29736328 93.36865234 C-335.70704137 81.33641615 -328.19637375 69.98947839 -320 59 C-319.39937744 58.18305664 -319.39937744 58.18305664 -318.78662109 57.34960938 C-306.59967954 40.79932065 -292.43733587 26.20953219 -275.69726562 14.22167969 C-273.85417384 12.89503537 -272.02922448 11.54523689 -270.203125 10.1953125 C-193.73904177 -45.72535917 -82.56424011 -53.7288614 0 0 Z M-233.04052734 8.96582031 C-235.10009286 10.05282748 -237.18071215 11.08761398 -239.26953125 12.1171875 C-249.16561043 17.05967872 -257.58315148 22.85079213 -266 30 C-267.23282595 31.02894181 -268.4659031 32.05758271 -269.69921875 33.0859375 C-310.67872085 67.50763801 -342.58452306 121.63946406 -347.5390625 175.515625 C-352.22336253 234.56509259 -335.4748181 294.95861029 -296.875 340.3125 C-292.76962463 345.0698679 -288.6243837 349.73566564 -284 354 C-283.45988281 354.49886719 -282.91976562 354.99773437 -282.36328125 355.51171875 C-280.27486713 357.38268411 -278.14546551 359.19450825 -276 361 C-275.44666992 361.46712402 -274.89333984 361.93424805 -274.32324219 362.41552734 C-259.53971036 374.83850047 -244.09858806 385.03352911 -227 394 C-226.33339355 394.35304199 -225.66678711 394.70608398 -224.97998047 395.06982422 C-205.79307958 405.09268893 -184.409353 411.89597591 -163 415 C-161.8255835 415.17136475 -161.8255835 415.17136475 -160.62744141 415.34619141 C-100.99058682 423.5732253 -39.85434089 407.86391159 8.140625 371.62890625 C22.07506684 360.46144643 34.93759533 348.01487078 46 334 C46.804375 333.01257813 47.60875 332.02515625 48.4375 331.0078125 C70.52887237 303.5669987 83.54204373 269.34803907 90 235 C90.13132324 234.32114746 90.26264648 233.64229492 90.39794922 232.94287109 C99.78555201 181.71262922 85.69370709 123.15499612 56.36816406 80.57006836 C49.53145786 70.90442658 41.97929443 61.63548939 33.4296875 53.43359375 C32 52 32 52 29.6875 49.0625 C29.130625 48.381875 28.57375 47.70125 28 47 C27.34 47 26.68 47 26 47 C26 46.34 26 45.68 26 45 C24.69113189 43.59698563 24.69113189 43.59698563 22.875 42.125 C22.14796875 41.50882813 21.4209375 40.89265625 20.671875 40.2578125 C19.79015625 39.51273438 18.9084375 38.76765625 18 38 C16.89960966 37.04070265 15.80074763 36.07965041 14.703125 35.1171875 C-16.67608347 7.6869892 -54.98689992 -8.66004143 -96 -15 C-96.7024585 -15.11126221 -97.40491699 -15.22252441 -98.12866211 -15.3371582 C-143.11117077 -21.39971074 -193.18917918 -12.39589235 -233.04052734 8.96582031 Z " fill="#689B54" transform="translate(376,52)"/>
<path d="M0 0 C1.23031952 -0.00175232 2.46063904 -0.00350464 3.72824097 -0.00531006 C7.09051984 -0.00894811 10.45273686 -0.00810654 13.81501222 -0.00493097 C17.35532856 -0.00238473 20.89564241 -0.00475177 24.43595886 -0.00631714 C30.39171823 -0.00813486 36.34746518 -0.00574567 42.30322266 -0.00097656 C49.1427571 0.00443778 55.9822616 0.0027225 62.82179528 -0.00280297 C68.72620547 -0.00737852 74.63060676 -0.00796234 80.53501815 -0.0053643 C84.04658762 -0.00382217 87.55814316 -0.0035494 91.06971169 -0.00690079 C155.09263492 -0.05931136 155.09263492 -0.05931136 179.30932617 22.70361328 C194.92251507 38.89024151 202.04634802 60.27932612 203.20336914 82.40771484 C203.24547956 83.1955196 203.28758999 83.98332436 203.33097649 84.79500198 C203.74328002 93.08962155 203.79455221 101.37318801 203.78198242 109.67626953 C203.78266025 111.30503351 203.78363418 112.93379739 203.78488159 114.56256104 C203.78634117 117.95415218 203.78426427 121.34571669 203.77954102 124.73730469 C203.77389882 128.98577495 203.77719449 133.23418181 203.78298092 137.4826498 C203.89706191 236.26597107 203.89706191 236.26597107 178.34448242 263.59423828 C160.69636679 280.51907049 138.84629033 284.14781812 115.33666992 285.25439453 C114.47367279 285.29608765 113.61067566 285.33778076 112.7215271 285.3807373 C74.20925259 287.16661912 35.2218585 287.18436613 -3.28833008 285.37939453 C-4.03077972 285.34881958 -4.77322937 285.31824463 -5.53817749 285.28674316 C-27.74913294 284.31667545 -49.91379073 277.7814024 -65.60083008 261.22705078 C-85.03894306 237.92734839 -86.38278152 212.73216486 -86.91333008 183.62939453 C-86.94410141 181.98763748 -86.94410141 181.98763748 -86.97549438 180.31271362 C-87.34143906 160.19546705 -87.48815088 140.07799804 -87.5320549 119.95779419 C-87.53825796 117.71793527 -87.54814602 115.47812149 -87.55911255 113.23828125 C-87.68389758 86.03067177 -87.68389758 86.03067177 -86.51098633 73.19580078 C-86.40381538 72.00139122 -86.40381538 72.00139122 -86.29447937 70.78285217 C-84.01019145 49.59876883 -72.76654949 30.0616898 -56.35864258 16.60986328 C-39.75989732 4.37071065 -20.26983505 -0.03559234 0 0 Z M-11.33764648 29.39990234 C-12.76185441 29.56198244 -12.76185441 29.56198244 -14.21483421 29.72733688 C-23.31381396 30.93912743 -31.97525486 33.50990865 -39.35083008 39.12939453 C-40.15520508 39.66564453 -40.95958008 40.20189453 -41.78833008 40.75439453 C-55.89318332 53.82718535 -57.385729 73.6380652 -58.46020508 91.76611328 C-58.50207695 92.45444433 -58.54394882 93.14277538 -58.58708954 93.85196495 C-59.50551221 109.17861226 -59.66921356 124.48519523 -59.60857773 139.83535385 C-59.60067777 141.9833054 -59.59619889 144.13124279 -59.59243774 146.27920532 C-59.5588022 162.79994365 -59.46814522 179.31793161 -58.53833008 195.81689453 C-58.46839844 197.1050708 -58.3984668 198.39324707 -58.32641602 199.72045898 C-57.22655317 215.91057147 -54.59943456 230.67678159 -43.04223633 242.80517578 C-26.18776308 257.36019985 -2.94217701 256.76479105 17.96166992 256.87939453 C20.5255683 256.90650193 23.08945235 256.93499813 25.65332031 256.96484375 C31.8867154 257.03227025 38.11997725 257.07677585 44.3536377 257.11047363 C47.27936486 257.12727134 50.20495651 257.14944817 53.13061523 257.17529297 C63.30518262 257.26324056 73.47491928 257.24272487 83.64916992 257.12939453 C84.5063562 257.12079407 85.36354248 257.1121936 86.2467041 257.10333252 C91.89166203 257.04530965 97.53586265 256.96662252 103.1802063 256.8649292 C104.99806995 256.83353548 106.81600985 256.80622101 108.63400269 256.7835083 C122.47235327 256.59988744 136.58148683 256.15120374 149.08666992 249.50439453 C149.75424316 249.15666992 150.42181641 248.80894531 151.10961914 248.45068359 C161.67705503 242.65655514 167.8666096 233.05346934 171.42109108 221.65373135 C173.58881146 213.73849404 174.07753743 206.39364911 174.03735352 198.21362305 C174.04143034 196.86350076 174.04677839 195.51338181 174.05328369 194.16326904 C174.06683264 190.53297229 174.06171039 186.90293444 174.05214643 183.27263379 C174.04448316 179.44972937 174.05161391 175.62684523 174.05630493 171.80393982 C174.06174392 165.38626174 174.05462062 158.96868764 174.0402832 152.55102539 C174.02396721 145.16305656 174.029245 137.7753363 174.04576242 130.38737351 C174.05943888 124.01158815 174.06126684 117.63587701 174.05344641 111.26008171 C174.04880264 107.46645826 174.04805289 103.67295108 174.05805588 99.8793354 C174.0668134 96.30946525 174.06054621 92.739911 174.04337311 89.17007446 C174.03760606 87.25827959 174.0463487 85.34645755 174.05575562 83.43467712 C173.94534301 68.16264173 170.59780281 55.06977371 159.89916992 43.81689453 C140.56854113 25.69263485 114.92650004 27.96541149 90.18823242 27.92626953 C88.36585619 27.92202847 88.36585619 27.92202847 86.50666428 27.91770172 C80.07288146 27.90278102 73.63912064 27.89350747 67.20532227 27.88916016 C60.63219522 27.88369571 54.05927739 27.85968958 47.48621559 27.8311882 C42.36741588 27.81236884 37.24866457 27.80734601 32.12983322 27.80582428 C29.71024817 27.80283896 27.29066308 27.79495427 24.87111282 27.7816391 C12.72377284 27.71957628 0.73642651 27.97154165 -11.33764648 29.39990234 Z " fill="#669B52" transform="translate(190.350830078125,109.87060546875)"/>
<path d="M0 0 C12.87841348 10.78648845 21.55483939 27.62813833 24.49609375 44.05859375 C24.72296875 45.23421875 24.94984375 46.40984375 25.18359375 47.62109375 C26.95649375 67.12299374 21.84230091 87.28929718 9.39453125 102.65234375 C7.1631784 105.19807965 4.86910113 107.64474287 2.49609375 110.05859375 C1.57376953 111.00025391 1.57376953 111.00025391 0.6328125 111.9609375 C-13.53271069 125.33780201 -33.37454879 131.73952357 -52.64453125 131.23828125 C-73.70151979 129.91502787 -91.72271334 122.40639905 -106.50390625 107.05859375 C-120.34411141 90.83646923 -127.08197728 71.26674291 -125.68847656 50.06347656 C-124.07482665 32.53531112 -115.78872486 13.73904097 -102.59765625 1.66796875 C-70.98590167 -22.63061873 -32.14584251 -24.92431158 0 0 Z M-89.50390625 30.05859375 C-96.68340659 41.94738405 -98.69710846 54.43139675 -96.10546875 68.17089844 C-95.04154268 72.04399853 -93.41076547 75.53746217 -91.50390625 79.05859375 C-91.05789062 79.89648438 -90.611875 80.734375 -90.15234375 81.59765625 C-83.72328534 92.33669796 -72.56850478 98.51407785 -60.6953125 101.51953125 C-46.08422175 103.98750007 -33.6760965 101.51926369 -21.50390625 93.05859375 C-12.04760498 86.19352094 -5.41238659 75.66014531 -3.50390625 64.05859375 C-2.43068851 50.1243569 -5.41133336 37.01937349 -14.1796875 25.94140625 C-19.39876394 20.21446937 -25.41948458 17.03516359 -32.50390625 14.05859375 C-33.67179687 13.54619141 -33.67179687 13.54619141 -34.86328125 13.0234375 C-55.34063767 5.43269331 -76.0460916 14.02699931 -89.50390625 30.05859375 Z " fill="#669A54" transform="translate(298.50390625,195.94140625)"/>
<path d="M0 0 C4.53039223 2.57700449 7.74922912 6.4135187 9.30078125 11.4140625 C10.18790912 16.05580226 10.14087754 20.04903129 8.6875 24.5 C5.43992696 29.26987291 1.23154571 33.58948476 -4.3125 35.4375 C-9.5799928 35.94192239 -13.94429168 36.1091659 -18.75 33.75 C-24.07360171 28.94577407 -27.03265191 24.85164674 -27.625 17.625 C-27.44467292 12.3053512 -26.32344113 7.62909306 -22.66015625 3.63671875 C-16.11582142 -2.16048271 -8.1975159 -3.64680365 0 0 Z " fill="#6A9D59" transform="translate(334.3125,159.5625)"/>
<path d="M0 0 C-3.3812575 2.25417166 -3.9588312 1.96423898 -7.70828247 1.29959106 C-12.95540267 0.61364687 -18.30767503 0.88061044 -23.58984375 0.90234375 C-24.88950577 0.9037587 -26.18916779 0.90517365 -27.5282135 0.90663147 C-30.96243253 0.91042666 -34.39660842 0.92023092 -37.83081055 0.93133545 C-41.34358131 0.94161445 -44.85635912 0.94614292 -48.36914062 0.95117188 C-55.24611133 0.96185624 -62.12305359 0.97889612 -69 1 C-69 0.67 -69 0.34 -69 0 C-46.12076019 -3.0146763 -22.86758029 -3.22565364 0 0 Z " fill="#9DBB92" transform="translate(283,18)"/>
<path d="M0 0 C0.66 0.66 1.32 1.32 2 2 C1.83492503 4.62874096 1.55214266 7.14669051 1.1875 9.75 C0.05017416 18.88237964 -0.35769037 27.99749025 -0.625 37.1875 C-0.64519196 37.87154907 -0.66538391 38.55559814 -0.68618774 39.26037598 C-0.80004942 43.17336555 -0.90415992 47.08653004 -1 51 C-1.33 51 -1.66 51 -2 51 C-3.72628923 38.70018923 -3.07358631 26.57864093 -2.0625 14.25 C-1.93234497 12.65949829 -1.93234497 12.65949829 -1.79956055 11.03686523 C-1.13046644 3.39139932 -1.13046644 3.39139932 0 0 Z " fill="#61894D" transform="translate(29,213)"/>
<path d="M0 0 C-2.74031127 2.74031127 -5.69247375 2.96123706 -9.375 3.625 C-10.44778198 3.82174316 -10.44778198 3.82174316 -11.54223633 4.02246094 C-19.44087831 5.37958563 -27.13700939 5.75677628 -35 4 C-35 3.67 -35 3.34 -35 3 C-33.11667969 2.92652344 -33.11667969 2.92652344 -31.1953125 2.8515625 C-19.48804524 2.37044678 -19.48804524 2.37044678 -7.95703125 0.41015625 C-5.2881824 -0.14918333 -2.713932 -0.14283853 0 0 Z " fill="#84A877" transform="translate(341,389)"/>
<path d="M0 0 C0 3.56229451 -0.76109009 4.41109679 -2.875 7.1875 C-3.40867187 7.90292969 -3.94234375 8.61835938 -4.4921875 9.35546875 C-4.98976563 9.89816406 -5.48734375 10.44085938 -6 11 C-6.66 11 -7.32 11 -8 11 C-8 11.99 -8 12.98 -8 14 C-8.66 14 -9.32 14 -10 14 C-10.33 15.32 -10.66 16.64 -11 18 C-13.31 18.66 -15.62 19.32 -18 20 C-12.23683566 13.11622037 -6.10986528 6.57453141 0 0 Z " fill="#92B187" transform="translate(418,390)"/>
<path d="M0 0 C0 0.66 0 1.32 0 2 C-2.91496831 2.8397028 -5.8317186 3.67196003 -8.75 4.5 C-9.9875 4.85771484 -9.9875 4.85771484 -11.25 5.22265625 C-12.04921875 5.44824219 -12.8484375 5.67382812 -13.671875 5.90625 C-14.77160645 6.22045898 -14.77160645 6.22045898 -15.89355469 6.54101562 C-18 7 -18 7 -22 7 C-21.67 5.68 -21.34 4.36 -21 3 C-18.25794005 2.35480942 -15.89011612 2.00233795 -13.0625 2.0625 C-8.41941937 1.96774325 -4.6927946 0 0 0 Z " fill="#7BA369" transform="translate(194,41)"/>
<path d="M0 0 C0 0.66 0 1.32 0 2 C-0.66 2 -1.32 2 -2 2 C-2 2.66 -2 3.32 -2 4 C-2.84884766 4.18369141 -2.84884766 4.18369141 -3.71484375 4.37109375 C-6.95090485 5.26170202 -9.85268805 6.72614729 -12.87890625 8.16015625 C-15 9 -15 9 -18 9 C-18 9.66 -18 10.32 -18 11 C-18.66 11 -19.32 11 -20 11 C-20 10.34 -20 9.68 -20 9 C-20.66 8.67 -21.32 8.34 -22 8 C-18.71057634 6.66108439 -15.41810891 5.32982297 -12.125 4 C-11.18785156 3.6184375 -10.25070312 3.236875 -9.28515625 2.84375 C-8.38925781 2.4828125 -7.49335938 2.121875 -6.5703125 1.75 C-5.74289551 1.41484375 -4.91547852 1.0796875 -4.06298828 0.734375 C-2 0 -2 0 0 0 Z " fill="#83AB73" transform="translate(344,448)"/>
<path d="M0 0 C7.78593716 1.61088355 15.37428218 3.76543688 23 6 C20.28184039 7.86789786 19.16019924 8.02511766 15.8359375 7.50390625 C14.69382813 7.19324219 13.55171875 6.88257813 12.375 6.5625 C8.09447625 5.08798686 8.09447625 5.08798686 4 6 C4 5.01 4 4.02 4 3 C2.68 2.67 1.36 2.34 0 2 C0 1.34 0 0.68 0 0 Z " fill="#81A676" transform="translate(174,457)"/>
<path d="M0 0 C0.33 0.66 0.66 1.32 1 2 C1.99 2.33 2.98 2.66 4 3 C-4.58 3.99 -13.16 4.98 -22 6 C-22 5.01 -22 4.02 -22 3 C-11.11 1.515 -11.11 1.515 0 0 Z " fill="#9BB48F" transform="translate(188,136)"/>
<path d="M0 0 C-3.01078374 2.56864067 -5.2936256 3.5069247 -9.1875 4.125 C-10.1465625 4.2796875 -11.105625 4.434375 -12.09375 4.59375 C-16.05746617 5.14781785 -20.01686002 5.60821574 -24 6 C-20.32798686 3.55199124 -16.76419546 2.55078304 -12.5625 1.3125 C-11.79873047 1.07466797 -11.03496094 0.83683594 -10.24804688 0.59179688 C-9.13719727 0.26211914 -9.13719727 0.26211914 -8.00390625 -0.07421875 C-6.99565796 -0.37718872 -6.99565796 -0.37718872 -5.96704102 -0.6862793 C-3.70038715 -1.04778485 -2.16955474 -0.6917026 0 0 Z " fill="#92B085" transform="translate(192,24)"/>
<path d="M0 0 C0.66 1.32 1.32 2.64 2 4 C1.34 4 0.68 4 0 4 C0 4.66 0 5.32 0 6 C-1.65 5.67 -3.3 5.34 -5 5 C-5 5.66 -5 6.32 -5 7 C-6.65 7 -8.3 7 -10 7 C-10.33 7.66 -10.66 8.32 -11 9 C-11 7.68 -11 6.36 -11 5 C-7.37 3.35 -3.74 1.7 0 0 Z M-4 6 C-2 7 -2 7 -2 7 Z " fill="#7DA370" transform="translate(342,357)"/>
<path d="M0 0 C0.33 0.66 0.66 1.32 1 2 C7.435 1.505 7.435 1.505 14 1 C14 1.66 14 2.32 14 3 C14.66 3.33 15.32 3.66 16 4 C15.67 4.66 15.34 5.32 15 6 C8.56318772 5.48914188 3.04057576 4.27057103 -3 2 C-2.01 1.34 -1.02 0.68 0 0 Z " fill="#83A876" transform="translate(223,320)"/>
<path d="M0 0 C8.47443032 2.33777388 15.5147726 6.5173816 23 11 C22.01 12.485 22.01 12.485 21 14 C20.67 13.34 20.34 12.68 20 12 C17.78473528 10.91001915 15.51659446 10.01889061 13.2265625 9.09765625 C10.95354419 7.9770981 9.76812829 6.77281828 8 5 C5.96922316 4.01371583 5.96922316 4.01371583 3.8125 3.3125 C3.09707031 3.06113281 2.38164062 2.80976562 1.64453125 2.55078125 C1.10183594 2.36902344 0.55914062 2.18726563 0 2 C0 1.34 0 0.68 0 0 Z " fill="#8FAC86" transform="translate(348,38)"/>
<path d="M0 0 C0.66 0 1.32 0 2 0 C2.16682272 4.92127034 2.24828052 8.50343896 0 13 C-0.99 13 -1.98 13 -3 13 C-2.979375 12.2575 -2.95875 11.515 -2.9375 10.75 C-2.99328688 8.29537721 -3.3069904 6.33890739 -4 4 C-2.68 4.33 -1.36 4.66 0 5 C0 3.35 0 1.7 0 0 Z " fill="#7AA36E" transform="translate(342,173)"/>
<path d="M0 0 C3 1 3 1 4.1875 2.8125 C5 5 5 5 5 9 C6.32 8.67 7.64 8.34 9 8 C9.25 14.625 9.25 14.625 7 18 C5.82887054 15.37690901 4.66294036 12.75171858 3.5 10.125 C3.16613281 9.37863281 2.83226562 8.63226563 2.48828125 7.86328125 C2.17246094 7.14785156 1.85664063 6.43242187 1.53125 5.6953125 C1.23798828 5.03547363 0.94472656 4.37563477 0.64257812 3.69580078 C0 2 0 2 0 0 Z " fill="#7DA56E" transform="translate(445,154)"/>
<path d="M0 0 C0.99 0 1.98 0 3 0 C3.12117188 0.56847656 3.24234375 1.13695312 3.3671875 1.72265625 C4.16109952 5.38075854 4.97809348 8.93184637 6.125 12.5 C7.18818087 16.75272348 7.1777722 20.64458116 7 25 C6.67 25 6.34 25 6 25 C4.99604779 21.2093684 3.99750906 17.41733176 3 13.625 C2.71382813 12.54476562 2.42765625 11.46453125 2.1328125 10.3515625 C1.72675781 8.8046875 1.72675781 8.8046875 1.3125 7.2265625 C1.06113281 6.27346191 0.80976563 5.32036133 0.55078125 4.33837891 C0 2 0 2 0 0 Z " fill="#88A97D" transform="translate(457,183)"/>
<path d="M0 0 C5.21202675 2.52704327 8.3880132 6.61773359 12 11 C9 12 9 12 6 11 C4.96986723 9.35178756 3.96885372 7.68496298 3 6 C2.34 5.67 1.68 5.34 1 5 C0.375 2.4375 0.375 2.4375 0 0 Z " fill="#86A77B" transform="translate(297,196)"/>
<path d="M0 0 C0.33 0.66 0.66 1.32 1 2 C-5.72478992 10.22689076 -5.72478992 10.22689076 -10 13 C-10.99 12.67 -11.98 12.34 -13 12 C-8.87675353 7.74790208 -4.48717034 3.86364295 0 0 Z " fill="#81A274" transform="translate(399,410)"/>
<path d="M0 0 C1.65 0 3.3 0 5 0 C1.12207712 4.92908146 -2.76116833 8.5423711 -8 12 C-8 10.68 -8 9.36 -8 8 C-7.01 8 -6.02 8 -5 8 C-5 7.34 -5 6.68 -5 6 C-4.01 5.34 -3.02 4.68 -2 4 C-0.80767387 1.94996045 -0.80767387 1.94996045 0 0 Z " fill="#6D975F" transform="translate(300,301)"/>
<path d="M0 0 C0.66 1.32 1.32 2.64 2 4 C0.25705322 4.86846831 -1.49468663 5.71930627 -3.25 6.5625 C-4.22453125 7.03816406 -5.1990625 7.51382812 -6.203125 8.00390625 C-9 9 -9 9 -13 8 C-8.71 5.36 -4.42 2.72 0 0 Z " fill="#8CAC7D" transform="translate(369,433)"/>
<path d="M0 0 C4.58477988 0.44948822 8.6789261 1.4191193 13 3 C12.67 3.99 12.34 4.98 12 6 C10.9275 5.649375 9.855 5.29875 8.75 4.9375 C4.74564889 3.93284239 4.74564889 3.93284239 1 5 C0.34 3.68 -0.32 2.36 -1 1 C-0.67 0.67 -0.34 0.34 0 0 Z " fill="#7FA46F" transform="translate(312,25)"/>
<path d="M0 0 C9.41002278 0.96355353 9.41002278 0.96355353 14 2 C14.33 3.32 14.66 4.64 15 6 C9.88634986 4.9318153 4.92772031 3.76892524 0 2 C0 1.34 0 0.68 0 0 Z " fill="#8BAC7E" transform="translate(169,474)"/>
<path d="M0 0 C0.66 0.33 1.32 0.66 2 1 C1.57045059 7.25107435 0.98598493 13.04204521 -1 19 C-1.66 18.34 -2.32 17.68 -3 17 C-2.79296875 15.1171875 -2.79296875 15.1171875 -2.1875 12.875 C-1.10829825 8.57908078 -0.48017349 4.40159028 0 0 Z " fill="#759A60" transform="translate(389,323)"/>
<path d="M0 0 C0.66 0.33 1.32 0.66 2 1 C1.47462276 6.0302076 0.89405214 11.01885239 0 16 C-1.32 14.35 -2.64 12.7 -4 11 C-3.525625 9.9275 -3.05125 8.855 -2.5625 7.75 C-1.46233668 5.19160135 -0.54832997 2.74164983 0 0 Z " fill="#4BA73A" transform="translate(134,171)"/>
<path d="M0 0 C-1.65167557 3.5786304 -3.78286492 6.74820188 -6 10 C-6.66 9.34 -7.32 8.68 -8 8 C-7.60467975 5.54901444 -6.78698574 3.36095721 -6 1 C-4 0 -4 0 0 0 Z " fill="#779C68" transform="translate(146,153)"/>
<path d="M0 0 C0.66 0 1.32 0 2 0 C2.74609375 1.578125 2.74609375 1.578125 3 4 C1.77369903 6.40041891 0.54429316 8.52118714 -0.9375 10.75 C-1.32357422 11.35199219 -1.70964844 11.95398438 -2.10742188 12.57421875 C-3.06045415 14.05671339 -4.02878012 15.52935633 -5 17 C-6 14 -6 14 -5.0390625 12.0625 C-4.57242188 11.381875 -4.10578125 10.70125 -3.625 10 C-1.98182037 7.57653954 -0.93700802 5.81102407 0 3 C-0.66 2.67 -1.32 2.34 -2 2 C-1.34 1.34 -0.68 0.68 0 0 Z " fill="#638D55" transform="translate(62,129)"/>
<path d="M0 0 C0.66 0.33 1.32 0.66 2 1 C0.77065985 4.68802044 -0.93859378 5.72356973 -4 8 C-4.66 7.67 -5.32 7.34 -6 7 C-6.33 7.99 -6.66 8.98 -7 10 C-9.0625 10.6875 -9.0625 10.6875 -11 11 C-7.6189962 6.86378916 -4.33409466 3.18683431 0 0 Z " fill="#98B489" transform="translate(202,193)"/>
<path d="M0 0 C0.99 0.33 1.98 0.66 3 1 C3 1.66 3 2.32 3 3 C6.465 2.505 6.465 2.505 10 2 C5.95001278 5.40198926 1.36373351 8 -4 8 C-4 7.34 -4 6.68 -4 6 C-2.68 5.34 -1.36 4.68 0 4 C-0.33 3.01 -0.66 2.02 -1 1 C-0.67 0.67 -0.34 0.34 0 0 Z " fill="#88AC79" transform="translate(340,464)"/>
<path d="M0 0 C0.33 0 0.66 0 1 0 C1 2.64 1 5.28 1 8 C0.34 8 -0.32 8 -1 8 C-0.938125 8.78375 -0.87625 9.5675 -0.8125 10.375 C-0.874375 11.24125 -0.93625 12.1075 -1 13 C-1.99 13.66 -2.98 14.32 -4 15 C-3.50341703 9.33895411 -2.45489316 5.12325529 0 0 Z " fill="#7A9D65" transform="translate(109,163)"/>
<path d="M0 0 C-2.98335668 2.9428062 -4.5365983 3.9519791 -8.76953125 4.390625 C-10.11774585 4.36431837 -11.46569518 4.31701804 -12.8125 4.25 C-13.50537109 4.23195313 -14.19824219 4.21390625 -14.91210938 4.1953125 C-16.60867664 4.14851064 -18.30452476 4.07677624 -20 4 C-20 3.67 -20 3.34 -20 3 C-17.60530271 2.49395076 -15.20948283 1.99500483 -12.8125 1.5 C-12.13896484 1.35691406 -11.46542969 1.21382812 -10.77148438 1.06640625 C-7.12490207 0.31930158 -3.72351043 -0.17352282 0 0 Z " fill="#98B88F" transform="translate(212,19)"/>
<path d="M0 0 C0.80050781 0.22042969 1.60101563 0.44085938 2.42578125 0.66796875 C3.23402344 0.88066406 4.04226563 1.09335937 4.875 1.3125 C5.79732422 1.58126953 5.79732422 1.58126953 6.73828125 1.85546875 C3.88349799 3.75865759 2.31886817 4.31737865 -0.94921875 4.98046875 C-1.75746094 5.14804687 -2.56570313 5.315625 -3.3984375 5.48828125 C-4.01332031 5.60945313 -4.62820313 5.730625 -5.26171875 5.85546875 C-5.26171875 2.85546875 -5.26171875 2.85546875 -4.0546875 1.1171875 C-2.26171875 -0.14453125 -2.26171875 -0.14453125 0 0 Z " fill="#769D65" transform="translate(321.26171875,473.14453125)"/>
<path d="M0 0 C5.72398793 0.74660712 11.34853777 1.82877141 17 3 C17 3.33 17 3.66 17 4 C14.91695462 4.05418326 12.83350232 4.09287551 10.75 4.125 C9.00976562 4.15980469 9.00976562 4.15980469 7.234375 4.1953125 C4.17213954 4.0103949 2.55797249 3.60823023 0 2 C0 1.34 0 0.68 0 0 Z " fill="#95B188" transform="translate(164,362)"/>
<path d="M0 0 C2.75328098 2.37783357 3.96944911 4.51198161 5 8 C5.07646165 10.3320802 5.09143299 12.66845878 5 15 C1.53471911 11.53471911 0.11494618 6.83913884 -0.1875 2 C-0.125625 1.34 -0.06375 0.68 0 0 Z " fill="#8BA87F" transform="translate(21,325)"/>
<path d="M0 0 C0 0.33 0 0.66 0 1 C-2.74837849 1.53107314 -5.49812375 2.05015881 -8.25 2.5625 C-9.02730469 2.71396484 -9.80460938 2.86542969 -10.60546875 3.02148438 C-11.35957031 3.16005859 -12.11367187 3.29863281 -12.890625 3.44140625 C-13.58188477 3.57232666 -14.27314453 3.70324707 -14.98535156 3.83813477 C-17.21287942 4.01710362 -18.87506962 3.65206197 -21 3 C-14.85090015 -1.0993999 -7.14435157 -0.11627335 0 0 Z " fill="#93AF89" transform="translate(216,38)"/>
<path d="M0 0 C5.94 0.66 11.88 1.32 18 2 C18 2.33 18 2.66 18 3 C12.0885256 3.77313045 6.8685408 4.14819277 1 3 C0.67 2.01 0.34 1.02 0 0 Z " fill="#89A97E" transform="translate(203,465)"/>
<path d="M0 0 C-0.92652701 1.17539996 -1.86663387 2.34010577 -2.8125 3.5 C-3.33457031 4.1496875 -3.85664063 4.799375 -4.39453125 5.46875 C-6 7 -6 7 -9 7 C-8.625 4.0625 -8.625 4.0625 -8 1 C-5.29120665 -0.35439668 -2.99066732 -0.06501451 0 0 Z " fill="#7BA56C" transform="translate(419,418)"/>
<path d="M0 0 C6.10575128 -0.49842868 9.11048764 0.57734135 14 4 C14.33 4.99 14.66 5.98 15 7 C9.80355921 5.40109514 4.93387858 3.25861997 0 1 C0 0.67 0 0.34 0 0 Z " fill="#9BBD90" transform="translate(332,51)"/>
<path d="M0 0 C2 2 2 2 2.04345703 3.97119141 C1.94919434 4.75671387 1.85493164 5.54223633 1.7578125 6.3515625 C1.66113281 7.20234375 1.56445312 8.053125 1.46484375 8.9296875 C1.29662109 10.26386719 1.29662109 10.26386719 1.125 11.625 C1.02058594 12.5221875 0.91617187 13.419375 0.80859375 14.34375 C0.54879548 16.5638443 0.27888059 18.78223534 0 21 C-0.33 21 -0.66 21 -1 21 C-1.0269501 18.06243881 -1.04681474 15.12512445 -1.0625 12.1875 C-1.07087891 11.35412109 -1.07925781 10.52074219 -1.08789062 9.66210938 C-1.09111328 8.85966797 -1.09433594 8.05722656 -1.09765625 7.23046875 C-1.10289307 6.49207764 -1.10812988 5.75368652 -1.11352539 4.99291992 C-1 3 -1 3 0 0 Z " fill="#448738" transform="translate(29,213)"/>
<path d="M0 0 C0 3.66666667 0 7.33333333 0 11 C-2.96404505 8.19195732 -5.44499019 5.81684226 -7 2 C-6.21625 2.04125 -5.4325 2.0825 -4.625 2.125 C-1.83883881 2.28728734 -1.83883881 2.28728734 0 0 Z " fill="#789D66" transform="translate(437,128)"/>
<path d="M0 0 C0.99 0.33 1.98 0.66 3 1 C1.3813036 4.23739279 -1.84489543 5.42244771 -5 7 C-5.66 6.67 -6.32 6.34 -7 6 C-7 6.66 -7 7.32 -7 8 C-7.99 7.67 -8.98 7.34 -10 7 C-8.4050992 5.80008401 -6.79873853 4.61538682 -5.1875 3.4375 C-3.84751953 2.44556641 -3.84751953 2.44556641 -2.48046875 1.43359375 C-1.66191406 0.96050781 -0.84335938 0.48742187 0 0 Z " fill="#8CA978" transform="translate(141,122)"/>
<path d="M0 0 C-0.99 0.33 -1.98 0.66 -3 1 C-3.33 1.99 -3.66 2.98 -4 4 C-5.546875 3.9690625 -5.546875 3.9690625 -7.125 3.9375 C-10.55152969 3.99276661 -13.64572414 4.34550715 -17 5 C-14.71636622 2.71636622 -13.25204532 2.2847151 -10.1875 1.375 C-9.33542969 1.11460938 -8.48335937 0.85421875 -7.60546875 0.5859375 C-4.98020834 -0.0044509 -2.68079363 -0.10588413 0 0 Z " fill="#86A877" transform="translate(171,112)"/>
<path d="M0 0 C2.8203125 0.2421875 2.8203125 0.2421875 6.125 0.875 C7.22070312 1.07867187 8.31640625 1.28234375 9.4453125 1.4921875 C10.28835937 1.65976562 11.13140625 1.82734375 12 2 C12 2.66 12 3.32 12 4 C12.99 4.33 13.98 4.66 15 5 C9.147205 4.48517081 3.6702363 3.54642808 -2 2 C-1.34 1.34 -0.68 0.68 0 0 Z " fill="#96B488" transform="translate(187,479)"/>
<path d="M0 0 C0.99 0.33 1.98 0.66 3 1 C0.36 3.97 -2.28 6.94 -5 10 C-5.66 9.34 -6.32 8.68 -7 8 C-6.34 8 -5.68 8 -5 8 C-4.731875 7.05125 -4.46375 6.1025 -4.1875 5.125 C-3 2 -3 2 0 0 Z " fill="#81A575" transform="translate(432,401)"/>
<path d="M0 0 C2.475 0.495 2.475 0.495 5 1 C5.33 1.99 5.66 2.98 6 4 C6.99 4.33 7.98 4.66 9 5 C8.34 6.32 7.68 7.64 7 9 C5.83037314 7.69013727 4.66437056 6.3770374 3.5 5.0625 C2.8503125 4.33160156 2.200625 3.60070312 1.53125 2.84765625 C0 1 0 1 0 0 Z " fill="#88AC7A" transform="translate(188,297)"/>
<path d="M0 0 C2.6855594 2.6855594 3.06049974 5.37621328 4 9 C-0.875 8.125 -0.875 8.125 -2 7 C-2.04080783 5.00041636 -2.04254356 2.99954746 -2 1 C-1.34 0.67 -0.68 0.34 0 0 Z " fill="#729D65" transform="translate(317,223)"/>
<path d="M0 0 C4.875 2.625 4.875 2.625 6 6 C3.625 6.625 3.625 6.625 1 7 C0.34 6.34 -0.32 5.68 -1 5 C-0.625 2.375 -0.625 2.375 0 0 Z " fill="#7EA572" transform="translate(334,160)"/>
<path d="M0 0 C0.98726527 2.66561622 1.0275526 3.90126985 0.25 6.6875 C-1 9 -1 9 -4 10 C-4 10.99 -4 11.98 -4 13 C-4.66 13 -5.32 13 -6 13 C-4.58707905 8.1725201 -2.57025846 4.2837641 0 0 Z " fill="#799C66" transform="translate(116,147)"/>
<path d="M0 0 C1.80030122 2.70045182 2.93377066 5.06677881 4.125 8.0625 C4.47820313 8.94035156 4.83140625 9.81820313 5.1953125 10.72265625 C6 13 6 13 6 15 C5.34 15 4.68 15 4 15 C3.67 13.35 3.34 11.7 3 10 C2.34 10 1.68 10 1 10 C0.67 6.7 0.34 3.4 0 0 Z " fill="#7A9B68" transform="translate(40,323)"/>
<path d="M0 0 C0.66386719 0.20496094 1.32773438 0.40992188 2.01171875 0.62109375 C2.89472656 0.89050781 3.77773437 1.15992188 4.6875 1.4375 C5.55761719 1.70433594 6.42773438 1.97117187 7.32421875 2.24609375 C9.87025921 2.96344529 12.4003423 3.517541 15 4 C15 4.33 15 4.66 15 5 C8.54107286 5.40368295 3.93891422 4.5915262 -2 2 C-1.34 1.34 -0.68 0.68 0 0 Z " fill="#98B38B" transform="translate(226,293)"/>
<path d="M0 0 C1.32 0 2.64 0 4 0 C3.65120368 3.25543229 2.97866739 4.01873107 0.4375 6.25 C-0.366875 6.8275 -1.17125 7.405 -2 8 C-1.125 1.125 -1.125 1.125 0 0 Z " fill="#81A56F" transform="translate(84,101)"/>
<path d="M0 0 C5.19644079 1.59890486 10.06612142 3.74138003 15 6 C10.26600414 7.57799862 6.98283195 5.47321538 2.625 3.375 C1.75875 2.92125 0.8925 2.4675 0 2 C0 1.34 0 0.68 0 0 Z " fill="#91B186" transform="translate(149,446)"/>
<path d="M0 0 C0.33 0 0.66 0 1 0 C0.8125 3.3125 0.8125 3.3125 0 7 C-2.5625 8.9375 -2.5625 8.9375 -5 10 C-5 6.62972148 -4.50175992 5.93297304 -2.5625 3.3125 C-1.88380859 2.37857422 -1.88380859 2.37857422 -1.19140625 1.42578125 C-0.79824219 0.95527344 -0.40507812 0.48476563 0 0 Z " fill="#7A9C66" transform="translate(435,367)"/>
<path d="M0 0 C0 0.66 0 1.32 0 2 C-3.96 3.98 -3.96 3.98 -8 6 C-8 4.02 -8 2.04 -8 0 C-4.71303767 -0.79953138 -3.28976808 -1.09658936 0 0 Z " fill="#82A775" transform="translate(146,58)"/>
<path d="M0 0 C3.63 0 7.26 0 11 0 C8.49751135 1.66832577 6.58850813 2.62381674 3.8125 3.625 C3.09707031 3.88539062 2.38164062 4.14578125 1.64453125 4.4140625 C1.10183594 4.60742188 0.55914062 4.80078125 0 5 C-0.33 4.01 -0.66 3.02 -1 2 C-0.67 1.34 -0.34 0.68 0 0 Z " fill="#8EAD80" transform="translate(154,51)"/>
<path d="M0 0 C0.66 0.99 1.32 1.98 2 3 C0.35 6.3 -1.3 9.6 -3 13 C-3.66 12.67 -4.32 12.34 -5 12 C-3.68938409 7.76570244 -2.05643741 3.92592596 0 0 Z " fill="#86A67A" transform="translate(450,338)"/>
<path d="M0 0 C0.144375 0.61875 0.28875 1.2375 0.4375 1.875 C0.93152225 4.03258322 0.93152225 4.03258322 2 6 C1.0625 8.125 1.0625 8.125 0 10 C-0.99 9.67 -1.98 9.34 -3 9 C-2.4140625 2.84765625 -2.4140625 2.84765625 -2 1 C-1.34 0.67 -0.68 0.34 0 0 Z " fill="#75A568" transform="translate(467,286)"/>
<path d="M0 0 C0.763125 0.185625 1.52625 0.37125 2.3125 0.5625 C3.1478125 0.7790625 3.1478125 0.7790625 4 1 C4 1.66 4 2.32 4 3 C-5.41002278 2.03644647 -5.41002278 2.03644647 -10 1 C-10 0.67 -10 0.34 -10 0 C-6.278452 -0.95696948 -3.71394431 -0.95229341 0 0 Z " fill="#90AF83" transform="translate(297,38)"/>
<path d="M0 0 C2.8125 0.625 2.8125 0.625 6 2 C7.875 5.125 7.875 5.125 9 8 C4.89041233 6.54955729 1.56741255 4.48889248 -2 2 C-1.34 1.34 -0.68 0.68 0 0 Z " fill="#7A9C6D" transform="translate(109,442)"/>
<path d="M0 0 C0.33 0 0.66 0 1 0 C1.41518628 3.52908336 0.99344202 5.0119449 -0.75 8.1875 C-3 11 -3 11 -7 13 C-3.535 6.565 -3.535 6.565 0 0 Z " fill="#7AA172" transform="translate(292,268)"/>
<path d="M0 0 C0.66 0 1.32 0 2 0 C2.33 1.32 2.66 2.64 3 4 C3.66 4 4.32 4 5 4 C5.33 4.99 5.66 5.98 6 7 C4.5625 9.1875 4.5625 9.1875 3 11 C2.49384702 9.73160474 1.99530901 8.46016898 1.5 7.1875 C1.2215625 6.47980469 0.943125 5.77210938 0.65625 5.04296875 C0 3 0 3 0 0 Z " fill="#7FA274" transform="translate(290,230)"/>
<path d="M0 0 C0.99 0.33 1.98 0.66 3 1 C0.36 3.64 -2.28 6.28 -5 9 C-5.66 8.34 -6.32 7.68 -7 7 C-4.66666667 4.66666667 -2.33333333 2.33333333 0 0 Z " fill="#89AC80" transform="translate(217,215)"/>
<path d="M0 0 C-0.99 0.99 -1.98 1.98 -3 3 C-8.75 1.25 -8.75 1.25 -11 -1 C-6.58937864 -2.0257259 -4.07369424 -2.03684712 0 0 Z " fill="#8CAF80" transform="translate(358,59)"/>
<path d="M0 0 C3.3 0.99 6.6 1.98 10 3 C9.01 3.495 9.01 3.495 8 4 C7.67 4.66 7.34 5.32 7 6 C4.36 4.68 1.72 3.36 -1 2 C-0.67 1.34 -0.34 0.68 0 0 Z " fill="#84A677" transform="translate(164,453)"/>
<path d="M0 0 C4.52261321 0.75376887 7.72319334 1.72319334 11 5 C11.33 5.99 11.66 6.98 12 8 C9.14940657 6.61964507 6.44119096 5.10703513 3.75 3.4375 C3.04359375 3.00308594 2.3371875 2.56867188 1.609375 2.12109375 C1.07828125 1.75113281 0.5471875 1.38117188 0 1 C0 0.67 0 0.34 0 0 Z " fill="#759667" transform="translate(368,70)"/>
<path d="M0 0 C-0.33 1.32 -0.66 2.64 -1 4 C-3.31 4.66 -5.62 5.32 -8 6 C-3.375 0 -3.375 0 0 0 Z " fill="#83A574" transform="translate(408,404)"/>
<path d="M0 0 C0.33 0.66 0.66 1.32 1 2 C1.99 2 2.98 2 4 2 C4.66 3.65 5.32 5.3 6 7 C5.01 7.66 4.02 8.32 3 9 C0 3.375 0 3.375 0 0 Z " fill="#83AD77" transform="translate(26,340)"/>
<path d="M0 0 C2 2 2 2 2.1875 5.4375 C2 9 2 9 1 12 C0.34 12 -0.32 12 -1 12 C-0.67 8.04 -0.34 4.08 0 0 Z " fill="#87AD7C" transform="translate(10,220)"/>
<path d="M0 0 C2.1640625 0.2421875 2.1640625 0.2421875 4.625 0.875 C5.44226563 1.07867187 6.25953125 1.28234375 7.1015625 1.4921875 C8.04128906 1.74355469 8.04128906 1.74355469 9 2 C9.33 3.32 9.66 4.64 10 6 C6.04 4.68 2.08 3.36 -2 2 C-1.34 1.34 -0.68 0.68 0 0 Z " fill="#92AE82" transform="translate(262,207)"/>
<path d="M0 0 C0.99 0 1.98 0 3 0 C3 0.66 3 1.32 3 2 C3.99 2.33 4.98 2.66 6 3 C5.34 4.98 4.68 6.96 4 9 C3.34 9 2.68 9 2 9 C2 7.35 2 5.7 2 4 C1.34 3.67 0.68 3.34 0 3 C0 2.01 0 1.02 0 0 Z " fill="#739E59" transform="translate(42,160)"/>
<path d="M0 0 C1.32 0 2.64 0 4 0 C4 0.66 4 1.32 4 2 C5.32 2.33 6.64 2.66 8 3 C8.33 4.32 8.66 5.64 9 7 C5.18315774 5.44499019 2.80804268 2.96404505 0 0 Z " fill="#92B189" transform="translate(196,306)"/>
<path d="M0 0 C-1.0975223 2.99324263 -1.67682892 3.84610901 -4.625 5.25 C-5.40875 5.4975 -6.1925 5.745 -7 6 C-7.66 5.34 -8.32 4.68 -9 4 C-2.25 0 -2.25 0 0 0 Z " fill="#7EA36F" transform="translate(216,186)"/>
<path d="M0 0 C0.66 0.99 1.32 1.98 2 3 C-0.36292656 5.52588702 -1.66462511 6.88820837 -5 8 C-3.8141763 4.62496331 -2.72426311 2.35277269 0 0 Z " fill="#81A678" transform="translate(314,161)"/>
<path d="M0 0 C0.33 1.32 0.66 2.64 1 4 C-0.65 5.32 -2.3 6.64 -4 8 C-4.99 7.34 -5.98 6.68 -7 6 C-4.69 4.02 -2.38 2.04 0 0 Z " fill="#789E6A" transform="translate(103,64)"/>
<path d="M0 0 C1.8871875 0.0309375 1.8871875 0.0309375 3.8125 0.0625 C3.4825 0.7225 3.1525 1.3825 2.8125 2.0625 C0.52734375 2.4765625 0.52734375 2.4765625 -2.25 2.6875 C-3.16910156 2.76226562 -4.08820313 2.83703125 -5.03515625 2.9140625 C-5.74542969 2.96304687 -6.45570313 3.01203125 -7.1875 3.0625 C-7.1875 2.4025 -7.1875 1.7425 -7.1875 1.0625 C-4.43671116 0.14557039 -2.82801087 -0.04636083 0 0 Z " fill="#90AA81" transform="translate(293.1875,482.9375)"/>
<path d="M0 0 C0.66 0 1.32 0 2 0 C1.45276317 3.37462715 0.9451 5.08235 -1 8 C-1.66 7.67 -2.32 7.34 -3 7 C-2.38722388 4.03824877 -1.74627478 2.61941217 0 0 Z " fill="#719860" transform="translate(441,357)"/>
<path d="M0 0 C0.33 0.66 0.66 1.32 1 2 C-0.125 4.625 -0.125 4.625 -2 7 C-4.6875 7.3125 -4.6875 7.3125 -7 7 C-4.66666667 4.66666667 -2.33333333 2.33333333 0 0 Z " fill="#83A672" transform="translate(283,283)"/>
<path d="M0 0 C0.99 0.66 1.98 1.32 3 2 C1.68 5.3 0.36 8.6 -1 12 C-1.83829874 8.64680506 -2.25998454 6.37979896 -2 3 C-1.34 2.01 -0.68 1.02 0 0 Z " fill="#769869" transform="translate(204,229)"/>
<path d="M0 0 C0.33 0 0.66 0 1 0 C0.64766839 5.4611399 0.64766839 5.4611399 0 8 C-2.0625 9.5 -2.0625 9.5 -4 10 C-2.8905928 6.51329166 -1.73662334 3.22515763 0 0 Z " fill="#84AC79" transform="translate(31,151)"/>
<path d="M0 0 C3 1 3 1 4.1875 2.6875 C5.19313465 5.54969093 5.13689641 7.98827908 5 11 C0 3.5 0 3.5 0 0 Z " fill="#8CAC81" transform="translate(445,154)"/>
<path d="M0 0 C0.66 0.33 1.32 0.66 2 1 C1.649375 1.598125 1.29875 2.19625 0.9375 2.8125 C-0.33304698 5.10813214 -0.33304698 5.10813214 1 8 C0.01 8.33 -0.98 8.66 -2 9 C-2.66 8.01 -3.32 7.02 -4 6 C-2.68 4.02 -1.36 2.04 0 0 Z " fill="#729F64" transform="translate(46,125)"/>
<path d="M0 0 C3.33557632 2.9905167 5.15083921 5.93184627 7 10 C5.1875 9.875 5.1875 9.875 3 9 C1.04679411 5.79116175 0 3.7794561 0 0 Z " fill="#74996A" transform="translate(446,120)"/>
<path d="M0 0 C0 0.66 0 1.32 0 2 C-3.63 2.66 -7.26 3.32 -11 4 C-9 1 -9 1 -6.625 0.3125 C-4 0 -4 0 0 0 Z " fill="#81A978" transform="translate(194,41)"/>
<path d="M0 0 C2.64 0 5.28 0 8 0 C8.66 1.32 9.32 2.64 10 4 C6.7 3.01 3.4 2.02 0 1 C0 0.67 0 0.34 0 0 Z " fill="#97B68E" transform="translate(158,471)"/>
<path d="M0 0 C-0.5 1.9375 -0.5 1.9375 -2 4 C-4.69658452 4.68790422 -7.2017019 4.81946464 -10 5 C-3.63636364 0 -3.63636364 0 0 0 Z " fill="#8BB280" transform="translate(356,442)"/>
<path d="M0 0 C2.82504659 1.03585042 3.81669754 1.63339507 5.1875 4.375 C5.86838728 6.57478968 6.50055817 8.75251176 7 11 C3.18699218 7.7129243 1.77027754 4.60272162 0 0 Z " fill="#769967" transform="translate(112,351)"/>
<path d="M0 0 C1.88391785 3.26545761 2.49287967 6.28111761 3 10 C2.01 9.67 1.02 9.34 0 9 C-0.87890625 2.84765625 -0.87890625 2.84765625 -1 1 C-0.67 0.67 -0.34 0.34 0 0 Z " fill="#749667" transform="translate(134,327)"/>
<path d="M0 0 C0.33 0 0.66 0 1 0 C1 1.98 1 3.96 1 6 C1.99 6.33 2.98 6.66 4 7 C3.01 9.31 2.02 11.62 1 14 C0.67 14 0.34 14 0 14 C0 9.38 0 4.76 0 0 Z " fill="#83A675" transform="translate(467,270)"/>
<path d="M0 0 C0.66 0 1.32 0 2 0 C2.33 1.65 2.66 3.3 3 5 C2.236875 5.12375 1.47375 5.2475 0.6875 5.375 C-2.20267136 5.88102792 -2.20267136 5.88102792 -5 8 C-3.63055898 5.05043472 -2.12169591 2.47531189 0 0 Z " fill="#779F68" transform="translate(60,106)"/>
<path d="M0 0 C0.66 0.33 1.32 0.66 2 1 C2 1.99 2 2.98 2 4 C3.32 4 4.64 4 6 4 C6.33 4.99 6.66 5.98 7 7 C3.22454612 5.90931332 0.52956528 5.0916909 -2 2 C-1.34 2 -0.68 2 0 2 C0 1.34 0 0.68 0 0 Z " fill="#9BB78C" transform="translate(142,380)"/>
<path d="M0 0 C1.10844919 3.32534757 0.84454356 5.62182575 0 9 C-0.66 9 -1.32 9 -2 9 C-2.33 9.66 -2.66 10.32 -3 11 C-2.69078116 9.54096742 -2.37751201 8.08279278 -2.0625 6.625 C-1.88847656 5.81289062 -1.71445313 5.00078125 -1.53515625 4.1640625 C-1 2 -1 2 0 0 Z " fill="#729464" transform="translate(179,222)"/>
<path d="M0 0 C1 3 1 3 0 6 C-0.66 6 -1.32 6 -2 6 C-2.33 6.66 -2.66 7.32 -3 8 C-3 5.69 -3 3.38 -3 1 C-2.01 0.67 -1.02 0.34 0 0 Z " fill="#629A4E" transform="translate(339,166)"/>
<path d="M0 0 C1.27162597 3.8148779 0.64661571 5.3931275 -1 9 C-2.32 9.33 -3.64 9.66 -5 10 C-3.35 6.7 -1.7 3.4 0 0 Z " fill="#789F6C" transform="translate(41,133)"/>
<path d="M0 0 C1.65 0.99 3.3 1.98 5 3 C4.67 3.66 4.34 4.32 4 5 C2.35 5 0.7 5 -1 5 C-1 2 -1 2 0 0 Z " fill="#8BAD7B" transform="translate(405,74)"/>
<path d="M0 0 C0.33 0.99 0.66 1.98 1 3 C-1.64 4.65 -4.28 6.3 -7 8 C-7 7.01 -7 6.02 -7 5 C-5.46875 3.61328125 -5.46875 3.61328125 -3.5 2.3125 C-2.8503125 1.87550781 -2.200625 1.43851562 -1.53125 0.98828125 C-1.0259375 0.66214844 -0.520625 0.33601563 0 0 Z " fill="#70925D" transform="translate(125,68)"/>
<path d="M0 0 C6.75 0.75 6.75 0.75 9 3 C8.67 3.99 8.34 4.98 8 6 C6.66402348 5.19185349 5.331275 4.37836819 4 3.5625 C3.2575 3.11003906 2.515 2.65757813 1.75 2.19140625 C1.1725 1.79824219 0.595 1.40507813 0 1 C0 0.67 0 0.34 0 0 Z " fill="#9EB995" transform="translate(355,62)"/>
<path d="M0 0 C0.99 0.495 0.99 0.495 2 1 C2 1.66 2 2.32 2 3 C3.65 3 5.3 3 7 3 C7 3.99 7 4.98 7 6 C4.03 5.505 4.03 5.505 1 5 C0.67 3.35 0.34 1.7 0 0 Z " fill="#83A875" transform="translate(323,44)"/>
<path d="M0 0 C0.33 0.99 0.66 1.98 1 3 C1.99 3.33 2.98 3.66 4 4 C4 4.66 4 5.32 4 6 C1.03 5.01 -1.94 4.02 -5 3 C-5 2.67 -5 2.34 -5 2 C-3.35 2 -1.7 2 0 2 C0 1.34 0 0.68 0 0 Z " fill="#93B288" transform="translate(153,465)"/>
<path d="M0 0 C-0.33 1.32 -0.66 2.64 -1 4 C-2.98 4 -4.96 4 -7 4 C-5.34072249 0.68144498 -3.61238217 0 0 0 Z " fill="#619C4A" transform="translate(360,456)"/>
<path d="M0 0 C2.64 1.65 5.28 3.3 8 5 C7.01 5.66 6.02 6.32 5 7 C4.01 6.34 3.02 5.68 2 5 C2 4.34 2 3.68 2 3 C1.34 3 0.68 3 0 3 C0 2.01 0 1.02 0 0 Z " fill="#799865" transform="translate(214,285)"/>
<path d="M0 0 C3.3 0 6.6 0 10 0 C6.55549263 2.29633824 4.06187717 2.54016485 0 3 C0 2.01 0 1.02 0 0 Z " fill="#879F7C" transform="translate(166,139)"/>
<path d="M0 0 C1.65 1.65 3.3 3.3 5 5 C4.34 6.32 3.68 7.64 3 9 C3 7.68 3 6.36 3 5 C1.68 4.34 0.36 3.68 -1 3 C-0.67 2.01 -0.34 1.02 0 0 Z " fill="#739F63" transform="translate(441,113)"/>
<path d="M0 0 C1.46067199 0.45082469 2.91848032 0.91093537 4.375 1.375 C5.18710937 1.63023438 5.99921875 1.88546875 6.8359375 2.1484375 C9 3 9 3 11 5 C7.37 4.34 3.74 3.68 0 3 C0 2.01 0 1.02 0 0 Z " fill="#96B188" transform="translate(337,33)"/>
<path d="M0 0 C0 0.66 0 1.32 0 2 C-0.66 2 -1.32 2 -2 2 C-2 2.66 -2 3.32 -2 4 C-4.375 4.625 -4.375 4.625 -7 5 C-7.66 4.34 -8.32 3.68 -9 3 C-2.25 0 -2.25 0 0 0 Z " fill="#93B588" transform="translate(344,448)"/>
<path d="M0 0 C3.96 1.98 3.96 1.98 8 4 C7.01 4.66 6.02 5.32 5 6 C2.3125 5.125 2.3125 5.125 0 4 C0 2.68 0 1.36 0 0 Z " fill="#8DAB81" transform="translate(139,440)"/>
<path d="M0 0 C4.75 0.875 4.75 0.875 7 2 C7 2.99 7 3.98 7 5 C3.34683329 3.75023244 2.21934164 3.32901247 0 0 Z " fill="#90AA7F" transform="translate(130,375)"/>
<path d="M0 0 C0 0.66 0 1.32 0 2 C-3.63 1.67 -7.26 1.34 -11 1 C-11 0.67 -11 0.34 -11 0 C-3.57142857 -1.28571429 -3.57142857 -1.28571429 0 0 Z " fill="#9EBC92" transform="translate(327,365)"/>
<path d="M0 0 C0.99 0.33 1.98 0.66 3 1 C2.01 2.98 1.02 4.96 0 7 C-0.66 6.67 -1.32 6.34 -2 6 C-1.125 1.125 -1.125 1.125 0 0 Z " fill="#799D66" transform="translate(461,356)"/>
<path d="M0 0 C0.33 0.99 0.66 1.98 1 3 C1.66 3 2.32 3 3 3 C1.74458443 5.51083114 0.49936512 5.87125446 -2 7 C-2.33 6.01 -2.66 5.02 -3 4 C-1.5625 1.8125 -1.5625 1.8125 0 0 Z " fill="#719B62" transform="translate(354,346)"/>
<path d="M0 0 C0.99 0.33 1.98 0.66 3 1 C1.25 6.75 1.25 6.75 -1 9 C-0.67 6.03 -0.34 3.06 0 0 Z " fill="#80A672" transform="translate(467,342)"/>
<path d="M0 0 C0.33 0 0.66 0 1 0 C1 2.31 1 4.62 1 7 C-0.98 7.99 -0.98 7.99 -3 9 C-2.01 6.03 -1.02 3.06 0 0 Z " fill="#89AE80" transform="translate(454,328)"/>
<path d="M0 0 C0.33 0 0.66 0 1 0 C1.125 3.375 1.125 3.375 1 7 C0.34 7.66 -0.32 8.32 -1 9 C-2.0326802 6.21176345 -2.04509293 5.1322726 -1.0625 2.25 C-0.711875 1.5075 -0.36125 0.765 0 0 Z " fill="#70955A" transform="translate(132,311)"/>
<path d="M0 0 C0.66 0 1.32 0 2 0 C1.34 2.64 0.68 5.28 0 8 C-0.66 8 -1.32 8 -2 8 C-1.125 1.125 -1.125 1.125 0 0 Z " fill="#6A8D55" transform="translate(36,186)"/>
<path d="M0 0 C0.66 0 1.32 0 2 0 C2.20086443 3.71599191 2.1519437 4.77208445 0 8 C-0.66 8 -1.32 8 -2 8 C-1.34 5.36 -0.68 2.72 0 0 Z " fill="#80A476" transform="translate(19,181)"/>
<path d="M0 0 C0.66 0.33 1.32 0.66 2 1 C1.67 3.97 1.34 6.94 1 10 C0.34 9.34 -0.32 8.68 -1 8 C-0.96712417 5.27130593 -0.43602229 2.7033382 0 0 Z " fill="#38B82C" transform="translate(134,171)"/>
<path d="M0 0 C0.99 0.33 1.98 0.66 3 1 C3.33 3.31 3.66 5.62 4 8 C3.34 8 2.68 8 2 8 C1.34 5.36 0.68 2.72 0 0 Z " fill="#88AB7D" transform="translate(453,172)"/>
<path d="M0 0 C2.64 0.33 5.28 0.66 8 1 C4.77208445 3.1519437 3.71599191 3.20086443 0 3 C0 2.01 0 1.02 0 0 Z " fill="#7AA56E" transform="translate(331,113)"/>
<path d="M0 0 C1.32 0.33 2.64 0.66 4 1 C2.68 2.32 1.36 3.64 0 5 C-0.66 4.67 -1.32 4.34 -2 4 C-1.34 2.68 -0.68 1.36 0 0 Z " fill="#6E985E" transform="translate(94,91)"/>
<path d="M0 0 C1.32 0.66 2.64 1.32 4 2 C2.71034824 3.37562854 1.37310707 4.70766393 0 6 C-0.66 6 -1.32 6 -2 6 C-1.125 1.125 -1.125 1.125 0 0 Z " fill="#8BA981" transform="translate(101,85)"/>
<path d="M0 0 C-0.33 0.99 -0.66 1.98 -1 3 C-1.66 3 -2.32 3 -3 3 C-3.33 4.32 -3.66 5.64 -4 7 C-4.99 6.01 -5.98 5.02 -7 4 C-2.25 0 -2.25 0 0 0 Z " fill="#5F9D49" transform="translate(121,70)"/>
<path d="M0 0 C3.3 0.33 6.6 0.66 10 1 C6 4 6 4 4 4 C3.67 3.34 3.34 2.68 3 2 C2.01 1.34 1.02 0.68 0 0 Z " fill="#9AB88F" transform="translate(285,19)"/>
<path d="M0 0 C4.75 0.875 4.75 0.875 7 2 C6.67 3.32 6.34 4.64 6 6 C3.97945196 4.35830472 1.97956942 2.69088222 0 1 C0 0.67 0 0.34 0 0 Z " fill="#7E9D72" transform="translate(93,432)"/>
<path d="M0 0 C2.97 0.495 2.97 0.495 6 1 C4.75 2.5625 4.75 2.5625 3 4 C0.8125 3.6875 0.8125 3.6875 -1 3 C-0.67 2.01 -0.34 1.02 0 0 Z " fill="#70A460" transform="translate(403,426)"/>
<path d="M0 0 C0.99 0 1.98 0 3 0 C1.75453595 3.73639216 0.36595047 4.18756513 -3 6 C-3 4.68 -3 3.36 -3 2 C-2.01 2 -1.02 2 0 2 C0 1.34 0 0.68 0 0 Z " fill="#7FA775" transform="translate(295,307)"/>
<path d="M0 0 C0.66 0 1.32 0 2 0 C1.67 2.31 1.34 4.62 1 7 C0.34 7 -0.32 7 -1 7 C-1.04254356 5.00045254 -1.04080783 2.99958364 -1 1 C-0.67 0.67 -0.34 0.34 0 0 Z " fill="#558D45" transform="translate(31,202)"/>
<path d="M0 0 C2.475 0.99 2.475 0.99 5 2 C4.67 2.66 4.34 3.32 4 4 C2.35 4 0.7 4 -1 4 C-1 1 -1 1 0 0 Z " fill="#7C9E6C" transform="translate(282,186)"/>
<path d="M0 0 C1.65 0 3.3 0 5 0 C5.33 1.32 5.66 2.64 6 4 C5.01 4 4.02 4 3 4 C1.3125 2 1.3125 2 0 0 Z " fill="#77A46B" transform="translate(350,154)"/>
<path d="M0 0 C1.98 0.99 1.98 0.99 4 2 C3.34 3.32 2.68 4.64 2 6 C1.34 5.67 0.68 5.34 0 5 C0 3.35 0 1.7 0 0 Z " fill="#729860" transform="translate(434,105)"/>
</svg>
