<?xml version="1.0" encoding="UTF-8"?>
<svg version="1.1" xmlns="http://www.w3.org/2000/svg" width="500" height="500">
<path d="M0 0 C0.88059082 0.16628906 1.76118164 0.33257813 2.66845703 0.50390625 C37.36397048 7.17730866 67.35288965 21.61632231 96.15185547 41.71582031 C97.74034816 42.81958142 99.3398502 43.90746826 100.94140625 44.9921875 C108.65498143 50.34915625 115.36636482 56.66464394 122.10351562 63.17529297 C123.91314385 64.91643114 125.74339887 66.63304893 127.578125 68.34765625 C136.34027589 76.66717546 143.45960233 85.8210965 150.38330078 95.70410156 C151.86539469 97.80884501 153.37698449 99.88745985 154.90234375 101.9609375 C188.01531002 147.5969458 200.69761145 209.83576082 192.82177734 265.40600586 C192.01575979 270.30277501 191.07353498 275.15508237 190 280 C189.81276367 280.84900879 189.62552734 281.69801758 189.43261719 282.57275391 C188.16767458 288.1164359 186.66677614 293.5645091 185 299 C184.76474609 299.77553223 184.52949219 300.55106445 184.28710938 301.35009766 C169.66187328 348.53481385 138.11634107 394.19056307 97 422 C95.75767919 422.85397277 94.51549322 423.70814172 93.2734375 424.5625 C85.09691427 430.14395807 76.75274109 435.3650053 68 440 C67.34708984 440.34885254 66.69417969 440.69770508 66.02148438 441.05712891 C44.6453424 452.29524698 20.6893125 459.61191258 -3 464 C-3.80550293 464.16081055 -4.61100586 464.32162109 -5.44091797 464.48730469 C-68.32417578 476.74303305 -132.83898875 458.0292749 -185 423 C-192.68315438 417.8075912 -199.98262586 412.41204919 -206.77734375 406.0703125 C-208.78126734 404.20374044 -210.83752915 402.44383926 -212.9375 400.6875 C-220.92533322 393.70016307 -227.82608676 385.6368201 -233.91015625 376.96484375 C-235.4499967 374.78028506 -237.0122905 372.63642507 -238.62109375 370.50390625 C-245.02954774 361.98733441 -250.74707102 353.27203045 -256 344 C-256.3412793 343.40783691 -256.68255859 342.81567383 -257.03417969 342.20556641 C-263.13216141 331.57056957 -267.70962882 320.4683606 -272 309 C-272.28117676 308.26974609 -272.56235352 307.53949219 -272.85205078 306.78710938 C-293.70721083 252.1982554 -288.49406599 187.07662515 -265.14916992 134.34179688 C-257.90043782 118.57456239 -248.28981617 104.4990941 -237.52734375 90.94921875 C-236.1385736 89.17684968 -234.79575639 87.38130429 -233.46875 85.5625 C-221.53090053 69.39730611 -206.49171521 54.50956538 -190 43 C-189.31905273 42.52304687 -188.63810547 42.04609375 -187.93652344 41.5546875 C-158.13496914 20.86468986 -126.86302864 6.65419733 -91 0 C-90.14760742 -0.16371094 -89.29521484 -0.32742187 -88.41699219 -0.49609375 C-60.38903818 -5.62871946 -27.94482513 -5.57908083 0 0 Z M-214 92 C-238.5040855 119.82761221 -254.99303277 156.79733599 -262 193 C-262.16371094 193.83337891 -262.32742188 194.66675781 -262.49609375 195.52539062 C-272.77529833 250.36197375 -257.69977144 306.24546285 -227.70947266 352.51538086 C-225.3502568 355.94436397 -222.77097825 359.08681979 -220 362.1875 C-219.51789063 362.73857422 -219.03578125 363.28964844 -218.5390625 363.85742188 C-217.5492773 364.98729572 -216.55565413 366.11381821 -215.55834961 367.23706055 C-214.48113105 368.45570307 -213.41212458 369.68163628 -212.34985352 370.91333008 C-201.90428266 383.00968345 -190.5900553 394.31241487 -177.6796875 403.76464844 C-175.99823463 405.00129837 -174.34262436 406.26746636 -172.6875 407.5390625 C-146.38597013 427.41465041 -112.31720718 439.81058191 -80 445 C-78.73800781 445.22429687 -77.47601563 445.44859375 -76.17578125 445.6796875 C-23.44353789 453.59223378 37.17240856 440.9667766 80.59765625 409.5859375 C81.73642056 408.73011052 82.87033438 407.86780157 84 407 C84.64437012 406.50532227 85.28874023 406.01064453 85.95263672 405.50097656 C95.41269403 398.15445654 104.35509227 390.28432764 113 382 C113.82113281 381.22011719 114.64226562 380.44023437 115.48828125 379.63671875 C121.14783308 374.13356213 126.09219666 368.17405154 131 362 C131.70382812 361.14019531 132.40765625 360.28039062 133.1328125 359.39453125 C162.3818317 323.5283385 174.51598457 275.37353154 174.3125 229.8125 C174.31067719 228.96037933 174.30885437 228.10825867 174.30697632 227.23031616 C174.25931345 213.96001061 173.70482746 201.03162442 171 188 C170.83371094 187.17129395 170.66742188 186.34258789 170.49609375 185.48876953 C165.05621427 159.21112947 153.13817201 132.45501162 137 111 C136.59072266 110.45375977 136.18144531 109.90751953 135.75976562 109.34472656 C130.25948665 102.04983102 124.46992763 95.12348695 118.24609375 88.43359375 C116.36544087 86.39594724 114.58355404 84.31907394 112.8125 82.1875 C78.29318633 42.75984569 27.34890334 22.17096685 -24 17 C-25.05960938 16.88914062 -26.11921875 16.77828125 -27.2109375 16.6640625 C-99.21317135 10.3360752 -165.35673615 39.93232648 -214 92 Z " fill="#689B54" transform="translate(293,20)"/>
<path d="M0 0 C15.15404485 13.1299545 19.12623388 35.37776145 20.81979752 54.35165405 C21.47568996 63.99097793 21.26104216 73.68818285 21.23046875 83.34375 C21.22927431 85.85054501 21.22882435 88.35734047 21.2290802 90.86413574 C21.22752696 96.07823549 21.21931936 101.29226544 21.20581055 106.50634766 C21.19039033 112.53528346 21.1848174 118.56413653 21.1855461 124.59308958 C21.18615506 130.41890586 21.1809599 136.24470072 21.17275429 142.07051086 C21.16956619 144.54258601 21.16759988 147.01466303 21.16686058 149.48674011 C21.16470651 152.91892771 21.15598684 156.35103304 21.14526367 159.78320312 C21.14571686 160.80953354 21.14617004 161.83586395 21.14663696 162.89329529 C21.14237198 163.82090164 21.13810699 164.748508 21.13371277 165.70422363 C21.13203692 166.51452278 21.13036108 167.32482193 21.12863445 168.1596756 C21 170 21 170 20 171 C18.26237046 171.12836848 16.51964437 171.18841821 14.77758789 171.22119141 C13.6629567 171.24436432 12.5483255 171.26753723 11.3999176 171.29141235 C9.57967323 171.32118668 9.57967323 171.32118668 7.72265625 171.3515625 C5.86742592 171.38629166 5.86742592 171.38629166 3.97471619 171.42172241 C0.67934041 171.48170611 -2.6160769 171.53684991 -5.91156006 171.59051514 C-7.93386875 171.62493819 -9.95606271 171.66328425 -11.97827148 171.703125 C-15.84871869 171.77893715 -19.7192251 171.8476456 -23.58984375 171.9140625 C-25.40705177 171.94990952 -25.40705177 171.94990952 -27.26097107 171.98648071 C-28.37875443 172.0033493 -29.49653778 172.0202179 -30.64819336 172.03759766 C-31.63556992 172.05456696 -32.62294647 172.07153625 -33.64024353 172.08901978 C-36 172 -36 172 -38 171 C-38.01030746 169.92275162 -38.02061493 168.84550323 -38.03123474 167.73561096 C-38.12959336 157.51313765 -38.23237769 147.29071682 -38.33933926 137.06832981 C-38.39417243 131.81469628 -38.44752235 126.56105696 -38.49731445 121.30737305 C-38.54555065 116.22391066 -38.59790244 111.14050487 -38.65294075 106.05711174 C-38.67309975 104.13137181 -38.6918511 102.20561653 -38.70907402 100.2798481 C-37.84400252 73.65834161 -37.84400252 73.65834161 -45.09765625 48.69140625 C-46 47 -46 47 -47 44 C-49.06919326 42.86653414 -49.06919326 42.86653414 -52 42 C-52.75023437 41.73960937 -53.50046875 41.47921875 -54.2734375 41.2109375 C-64.82067037 37.73846391 -73.89025795 38.73579256 -84.18359375 42.87890625 C-89.99230221 45.86445748 -92.5570521 50.25132707 -94.53710938 56.25976562 C-96.53526829 63.13774388 -96.81134257 70.1016875 -97.15625 77.21875 C-97.23650067 78.71130537 -97.31678302 80.20385904 -97.39709473 81.69641113 C-98.34024721 100.11861776 -98.40017969 118.5625415 -98.51568604 137.00445557 C-98.54690099 141.91137532 -98.58584 146.81810415 -98.63594055 151.72486877 C-98.65587302 153.98843956 -98.66427533 156.25186329 -98.67224121 158.51550293 C-98.68518954 159.88078383 -98.69870621 161.24605951 -98.71289062 162.61132812 C-98.72018188 163.8011731 -98.72747314 164.99101807 -98.73498535 166.21691895 C-99 169 -99 169 -101 171 C-103.3664856 171.24050903 -103.3664856 171.24050903 -106.36767578 171.22705078 C-108.04919235 171.22682419 -108.04919235 171.22682419 -109.76467896 171.22659302 C-110.97928802 171.21627045 -112.19389709 171.20594788 -113.4453125 171.1953125 C-114.68546112 171.1924826 -115.92560974 171.18965271 -117.20333862 171.18673706 C-120.50124633 171.17742174 -123.79895972 171.1594489 -127.09680176 171.1373291 C-130.46164526 171.11687474 -133.82651804 171.10762671 -137.19140625 171.09765625 C-143.79435052 171.0772642 -150.3971449 171.03973545 -157 171 C-157.74995799 149.31118562 -158.15427476 127.65119576 -158.1343255 105.94984388 C-158.13171738 102.19813956 -158.13416084 98.44643714 -158.13571167 94.69473267 C-158.13750372 88.43466742 -158.1352006 82.17461418 -158.13037109 75.91455078 C-158.1248717 68.70332633 -158.12674359 61.49212992 -158.1321975 54.28090608 C-158.13674044 48.01942308 -158.13737524 41.75794848 -158.13475883 35.49646437 C-158.13321047 31.78552452 -158.13296362 28.07459788 -158.13629532 24.36365891 C-158.13973137 20.25462933 -158.13496518 16.14564833 -158.12939453 12.03662109 C-158.13141876 10.82839691 -158.13344299 9.62017273 -158.13552856 8.37533569 C-158.13270874 7.25232056 -158.12988892 6.12930542 -158.12698364 4.97225952 C-158.1264181 3.5230716 -158.1264181 3.5230716 -158.12584114 2.04460716 C-157.97301612 -1.65284941 -157.45900462 -5.32796305 -157 -9 C-138.85 -9 -120.7 -9 -102 -9 C-101.40396278 -2.44359063 -100.87760859 3.51325508 -101 10 C-100.27941406 9.26652344 -99.55882812 8.53304687 -98.81640625 7.77734375 C-72.89788622 -17.78169612 -29.80253809 -22.72613635 0 0 Z " fill="#659A50" transform="translate(365,206)"/>
<path d="M0 0 C19.14 0 38.28 0 58 0 C58.06766572 23.02612414 58.12295187 46.05216805 58.15543652 69.07836628 C58.17091919 79.76932135 58.19203541 90.46021037 58.22631836 101.15112305 C58.2561779 110.46704962 58.27556481 119.78292836 58.28226548 129.09890145 C58.28618359 134.03370501 58.29542066 138.9683717 58.31719017 143.90313148 C58.33750095 148.5446793 58.3438448 153.18603343 58.33932304 157.82762146 C58.34015068 159.53407022 58.34614847 161.24052523 58.35761642 162.94693565 C58.37247623 165.27140828 58.36897791 167.59514334 58.36076355 169.91963196 C58.36352893 171.22212544 58.36629431 172.52461893 58.36914349 173.86658192 C58 177 58 177 55 180 C36.85 180 18.7 180 0 180 C0 120.6 0 61.2 0 0 Z " fill="#64994F" transform="translate(116,197)"/>
<path d="M0 0 C8.3777194 6.00242731 13.52534851 13.4036647 16.4140625 23.2734375 C17.4675806 33.54523893 15.52566131 42.12386243 9.4609375 50.60546875 C4.59875238 56.30268131 -1.81850489 61.42551391 -9.3359375 62.7109375 C-18.51307756 63.43425888 -27.39125267 64.0126071 -35.3359375 58.7109375 C-36.11453125 58.20175781 -36.893125 57.69257813 -37.6953125 57.16796875 C-46.63284561 50.78610278 -50.26135361 43.37333375 -52.3359375 32.7109375 C-53.20458052 24.60360269 -51.03606264 16.52131647 -46.2109375 9.9609375 C-34.4326855 -3.78857006 -16.65548247 -9.19115253 0 0 Z " fill="#659A50" transform="translate(162.3359375,112.2890625)"/>
<path d="M0 0 C0.07001619 23.02609967 0.12295189 46.05218184 0.15543652 69.07836628 C0.17091919 79.76932135 0.19203541 90.46021037 0.22631836 101.15112305 C0.2561779 110.46704962 0.27556481 119.78292836 0.28226548 129.09890145 C0.28618359 134.03370501 0.29542066 138.9683717 0.31719017 143.90313148 C0.33750095 148.5446793 0.3438448 153.18603343 0.33932304 157.82762146 C0.34015068 159.53407022 0.34614847 161.24052523 0.35761642 162.94693565 C0.37247623 165.27140828 0.36897791 167.59514334 0.36076355 169.91963196 C0.36352893 171.22212544 0.36629431 172.52461893 0.36914349 173.86658192 C0 177 0 177 -1.3861084 178.91997528 C-3.59207799 180.3962217 -5.10265313 180.36139643 -7.74682617 180.34057617 C-8.70759567 180.34034958 -9.66836517 180.34012299 -10.6582489 180.33988953 C-11.69270645 180.32440567 -12.727164 180.30892181 -13.79296875 180.29296875 C-14.85413406 180.28872391 -15.91529938 180.28447906 -17.00862122 180.28010559 C-20.40183765 180.26329706 -23.79446272 180.22564019 -27.1875 180.1875 C-29.48631956 180.172456 -31.78514841 180.15876711 -34.08398438 180.14648438 C-39.72285842 180.11338645 -45.36138697 180.0631653 -51 180 C-51 179.67 -51 179.34 -51 179 C-35.16 178.67 -19.32 178.34 -3 178 C-3 176.02 -3 174.04 -3 172 C-2.67 171.67 -2.34 171.34 -2 171 C-1.91321049 168.89959823 -1.89872925 166.79620442 -1.91098022 164.69404602 C-1.91350379 164.0277224 -1.91602735 163.36139879 -1.91862738 162.67488354 C-1.9284068 160.42553786 -1.94543344 158.17630408 -1.96240234 155.92700195 C-1.97090352 154.32084872 -1.97897561 152.71469317 -1.98664856 151.10853577 C-2.00891208 146.7322619 -2.03757522 142.35605096 -2.06760359 137.9798243 C-2.09819829 133.40487694 -2.12386639 128.82990153 -2.15029907 124.25492859 C-2.19554994 116.56519028 -2.24502622 108.87548747 -2.296875 101.18579102 C-2.35674228 92.29783982 -2.40955597 83.40986765 -2.45864332 74.52185088 C-2.50603335 65.97726251 -2.55885654 57.4327156 -2.61400223 48.88817406 C-2.63735745 45.25077314 -2.65873579 41.61336853 -2.67850876 37.97594643 C-2.70203835 33.68732382 -2.73030533 29.39875775 -2.76219749 25.11018944 C-2.77312881 23.53725111 -2.78242765 21.96430044 -2.78996086 20.39134216 C-2.80052821 18.24112716 -2.81705202 16.09103601 -2.83505249 13.94087219 C-2.84667954 12.13702796 -2.84667954 12.13702796 -2.85854149 10.29674244 C-2.99494894 7.11771688 -3.40414285 4.12255403 -4 1 C-1 0 -1 0 0 0 Z " fill="#98B68D" transform="translate(174,197)"/>
<path d="M0 0 C0.33 0 0.66 0 1 0 C1.1304801 16.39381777 1.26086987 32.78763626 1.39115143 49.18145561 C1.4516425 56.79300851 1.51216338 64.40456117 1.57275391 72.01611328 C1.62555092 78.64863194 1.67829254 85.28115103 1.73096704 91.91367066 C1.75887186 95.4270653 1.78680483 98.94045972 1.81480408 102.45385361 C1.84602322 106.37141605 1.87711874 110.28897946 1.90820312 114.20654297 C1.91755386 115.37754547 1.9269046 116.54854797 1.9365387 117.7550354 C1.94495285 118.81796814 1.953367 119.88090088 1.96203613 120.9760437 C1.96941048 121.90336744 1.97678482 122.83069118 1.98438263 123.78611565 C1.9942911 125.19071846 2 126.59536224 2 128 C8.423058 127.88193353 14.84595981 127.75711425 21.26879883 127.62768555 C23.45203709 127.58447714 25.63530608 127.54279261 27.81860352 127.50268555 C30.96379846 127.44464025 34.10884075 127.3810458 37.25390625 127.31640625 C38.2239711 127.29969376 39.19403595 127.28298126 40.1934967 127.26576233 C45.22447486 127.15674326 50.03253493 126.79098225 55 126 C55.99 126 56.98 126 58 126 C57.34 126.99 56.68 127.98 56 129 C53.6335144 129.36076355 53.6335144 129.36076355 50.63232422 129.34057617 C49.51131317 129.34034958 48.39030212 129.34012299 47.23532104 129.33988953 C46.02071198 129.32440567 44.80610291 129.30892181 43.5546875 129.29296875 C42.31453888 129.28872391 41.07439026 129.28447906 39.79666138 129.28010559 C36.49864537 129.26613216 33.2010665 129.23917361 29.90319824 129.20599365 C26.53838458 129.17531238 23.17350696 129.16160446 19.80859375 129.14648438 C13.20555729 129.1133473 6.60281442 129.06309697 0 129 C-1.62702721 85.98722304 -1.04807873 43.02140201 0 0 Z " fill="#84A676" transform="translate(208,248)"/>
<path d="M0 0 C0.98321228 -0.00100708 1.96642456 -0.00201416 2.97943115 -0.00305176 C17.44559129 0.00697923 31.52233918 0.38247674 45.75 3.25 C46.62865723 3.42644043 47.50731445 3.60288086 48.41259766 3.78466797 C53.55087244 4.84093599 58.65624344 5.99722841 63.75 7.25 C61.31661348 8.78508028 60.07875493 9.28088304 57.171875 9.0078125 C56.29015625 8.79898437 55.4084375 8.59015625 54.5 8.375 C53.16195312 8.06949219 53.16195312 8.06949219 51.796875 7.7578125 C51.12140625 7.59023438 50.4459375 7.42265625 49.75 7.25 C49.75 6.59 49.75 5.93 49.75 5.25 C48.0484375 5.28480469 48.0484375 5.28480469 46.3125 5.3203125 C44.79167332 5.33908814 43.27083943 5.3572864 41.75 5.375 C40.63431641 5.40013672 40.63431641 5.40013672 39.49609375 5.42578125 C38.75488281 5.43222656 38.01367188 5.43867188 37.25 5.4453125 C36.5796875 5.45578613 35.909375 5.46625977 35.21875 5.47705078 C32.75 5.25 32.75 5.25 29.28100586 4.25219727 C23.50277668 2.74735324 17.68736107 2.98341538 11.75390625 3.01953125 C9.90997536 3.02021858 9.90997536 3.02021858 8.02879333 3.0209198 C5.44439726 3.02392927 2.86000278 3.03177623 0.27563477 3.04418945 C-3.69853156 3.06255097 -7.67228037 3.06469825 -11.64648438 3.06445312 C-14.1588562 3.06936477 -16.67122644 3.07519154 -19.18359375 3.08203125 C-20.37826767 3.08314407 -21.57294159 3.0842569 -22.80381775 3.08540344 C-23.89908279 3.09178329 -24.99434784 3.09816315 -26.12280273 3.10473633 C-27.09128647 3.10854813 -28.0597702 3.11235992 -29.05760193 3.11628723 C-31.22640842 3.00549196 -31.22640842 3.00549196 -32.25 4.25 C-34.92058851 4.39115161 -37.57432238 4.29247107 -40.25 4.25 C-40.25 4.91 -40.25 5.57 -40.25 6.25 C-42.37368444 6.47134176 -44.49904024 6.67670007 -46.625 6.875 C-47.80835938 6.99101562 -48.99171875 7.10703125 -50.2109375 7.2265625 C-51.21382812 7.23429687 -52.21671875 7.24203125 -53.25 7.25 C-53.91 6.59 -54.57 5.93 -55.25 5.25 C-51.64718617 4.59647055 -48.04253712 3.95364199 -44.4375 3.3125 C-43.43267578 3.13009766 -42.42785156 2.94769531 -41.39257812 2.75976562 C-27.57048283 0.31534363 -14.00312418 0.00992405 0 0 Z " fill="#A0BD92" transform="translate(247.25,16.75)"/>
<path d="M0 0 C2.72869407 0.03287583 5.2966618 0.56397771 8 1 C8 1.66 8 2.32 8 3 C9.65 3 11.3 3 13 3 C13 3.99 13 4.98 13 6 C14.65 6.66 16.3 7.32 18 8 C18.33 7.01 18.66 6.02 19 5 C21.0625 7.6875 21.0625 7.6875 23 11 C22.71281674 12.6752357 22.36871088 14.34080104 22 16 C21.931911 18.78075485 21.90521664 21.53364739 21.9375 24.3125 C21.94201172 25.05306641 21.94652344 25.79363281 21.95117188 26.55664062 C21.96287825 28.37112899 21.98081102 30.18557534 22 32 C20.37540637 29.07304619 19.63958688 26.54755677 19.125 23.25 C18.33094457 18.94939577 17.01324716 15.50696373 14.90234375 11.69140625 C14 10 14 10 13 7 C8.3640536 4.60725347 2.99915161 3.45606358 -2 2 C-1.34 1.34 -0.68 0.68 0 0 Z " fill="#719C61" transform="translate(305,243)"/>
<path d="M0 0 C5.08624889 -0.04985767 10.17235197 -0.08593386 15.25878906 -0.10986328 C16.98505129 -0.11985099 18.71129691 -0.13344583 20.4375 -0.15087891 C29.54116273 -0.2404404 38.12327097 -0.31487595 47 2 C47 2.66 47 3.32 47 4 C46.19095215 3.94013916 45.3819043 3.88027832 44.54833984 3.81860352 C34.91124518 3.11664901 25.27028737 2.51354389 15.625 1.9375 C14.09895402 1.8457749 12.57291233 1.75397839 11.046875 1.66210938 C7.3646322 1.44058673 3.68233307 1.22001764 0 1 C0 0.67 0 0.34 0 0 Z " fill="#95B486" transform="translate(236,35)"/>
<path d="M0 0 C6.70742098 -0.23955075 12.91033274 0.66988575 19.5 1.875 C20.49386719 2.04902344 21.48773438 2.22304688 22.51171875 2.40234375 C28.07442922 3.3943727 33.53712357 4.5562398 39 6 C36.56661348 7.53508028 35.32875493 8.03088304 32.421875 7.7578125 C31.09929687 7.44457031 31.09929687 7.44457031 29.75 7.125 C28.85796875 6.92132812 27.9659375 6.71765625 27.046875 6.5078125 C26.03367187 6.25644531 26.03367187 6.25644531 25 6 C25 5.34 25 4.68 25 4 C23.2984375 4.03480469 23.2984375 4.03480469 21.5625 4.0703125 C20.04167332 4.08908814 18.52083943 4.1072864 17 4.125 C15.88431641 4.15013672 15.88431641 4.15013672 14.74609375 4.17578125 C9.49451557 4.22144715 5.0483054 3.45712451 0 2 C0 1.34 0 0.68 0 0 Z " fill="#93B284" transform="translate(272,18)"/>
<path d="M0 0 C5.94 0.33 11.88 0.66 18 1 C18 1.33 18 1.66 18 2 C14.20859884 2.48128247 10.41683282 2.95963127 6.625 3.4375 C5.56410156 3.57220703 4.50320312 3.70691406 3.41015625 3.84570312 C-3.05227119 4.6584624 -9.51514451 5.39073956 -16 6 C-15.67 5.01 -15.34 4.02 -15 3 C-10.03926578 1.67713754 -5.08888488 1.91106803 0 2 C0 1.34 0 0.68 0 0 Z " fill="#89A97D" transform="translate(214,35)"/>
<path d="M0 0 C2.31 0 4.62 0 7 0 C-4.96501458 14.35801749 -4.96501458 14.35801749 -11 17 C-11 16.01 -11 15.02 -11 14 C-10.34 14 -9.68 14 -9 14 C-8.71125 13.195625 -8.4225 12.39125 -8.125 11.5625 C-7 9 -7 9 -5 8 C-4.34 8.33 -3.68 8.66 -3 9 C-2.0123202 6.17665424 -2.0123202 6.17665424 -1.5 3.9375 C-1 2 -1 2 0 0 Z " fill="#A0BE94" transform="translate(418,411)"/>
<path d="M0 0 C0 0.66 0 1.32 0 2 C-1.299375 1.979375 -2.59875 1.95875 -3.9375 1.9375 C-5.29165633 1.91600546 -6.64756083 1.92851801 -8 2 C-8.33 2.33 -8.66 2.66 -9 3 C-11.67058851 3.14115161 -14.32432238 3.04247107 -17 3 C-17 3.66 -17 4.32 -17 5 C-19.12368444 5.22134176 -21.24904024 5.42670007 -23.375 5.625 C-24.55835938 5.74101562 -25.74171875 5.85703125 -26.9609375 5.9765625 C-27.96382812 5.98429687 -28.96671875 5.99203125 -30 6 C-30.66 5.34 -31.32 4.68 -32 4 C-28.35646278 3.32036711 -24.70987334 2.65870806 -21.0625 2 C-20.04091797 1.80921875 -19.01933594 1.6184375 -17.96679688 1.421875 C-11.87060225 0.33118203 -6.19211059 -0.20661891 0 0 Z " fill="#94B486" transform="translate(224,18)"/>
<path d="M0 0 C9.23161862 0.76930155 14.94821451 4.50192921 21.43359375 11 C23.04341544 13.05543319 23.59553032 14.44785327 24 17 C23.01 17 22.02 17 21 17 C19.61558 15.03501678 18.28796166 13.02951535 17 11 C15.00064306 8.66468542 15.00064306 8.66468542 13 7 C12.34 7 11.68 7 11 7 C10.67 6.34 10.34 5.68 10 5 C7.65613191 4.08968728 7.65613191 4.08968728 4.9375 3.375 C4.01839844 3.11460938 3.09929687 2.85421875 2.15234375 2.5859375 C1.08693359 2.29589844 1.08693359 2.29589844 0 2 C0 1.34 0 0.68 0 0 Z " fill="#81A574" transform="translate(150,109)"/>
<path d="M0 0 C0.99 0.33 1.98 0.66 3 1 C-1.11619836 5.91935902 -5.40410362 10.52647956 -10 15 C-10.66 13.68 -11.32 12.36 -12 11 C-8.375 6.125 -8.375 6.125 -5 5 C-3.79117904 2.99983534 -3.79117904 2.99983534 -3 1 C-2.67 1.66 -2.34 2.32 -2 3 C-1.34 3 -0.68 3 0 3 C0 2.01 0 1.02 0 0 Z " fill="#88AB6F" transform="translate(95,92)"/>
<path d="M0 0 C1.32 0 2.64 0 4 0 C4.12375 0.721875 4.2475 1.44375 4.375 2.1875 C4.9960013 4.98200584 5.77816771 7.41259045 7 10 C7.66 10.33 8.32 10.66 9 11 C10.01206866 12.07408958 10.98726428 13.18333949 11.9375 14.3125 C12.46472656 14.93898438 12.99195312 15.56546875 13.53515625 16.2109375 C15.08203893 18.10019688 16.57316982 20.01829141 18 22 C10.68764265 18.71820128 4.8176505 11.26022381 0 5 C-0.33 4.01 -0.66 3.02 -1 2 C-0.67 1.34 -0.34 0.68 0 0 Z " fill="#9DB992" transform="translate(66,401)"/>
<path d="M0 0 C0.87914062 0.22558594 1.75828125 0.45117188 2.6640625 0.68359375 C4.04464844 0.91369141 4.04464844 0.91369141 5.453125 1.1484375 C6.85691406 1.38240234 6.85691406 1.38240234 8.2890625 1.62109375 C9.23007812 1.77449219 10.17109375 1.92789063 11.140625 2.0859375 C13.6640625 2.68359375 13.6640625 2.68359375 16.6640625 4.68359375 C17.6540625 4.02359375 18.6440625 3.36359375 19.6640625 2.68359375 C19.9940625 4.33359375 20.3240625 5.98359375 20.6640625 7.68359375 C11.97305298 5.78737349 3.32043119 3.73090942 -5.3359375 1.68359375 C-2.3359375 -0.31640625 -2.3359375 -0.31640625 0 0 Z " fill="#95B488" transform="translate(300.3359375,40.31640625)"/>
<path d="M0 0 C4 0 8 0 12 0 C14 2 14 2 14 5 C14.99 5 15.98 5 17 5 C17.33 4.34 17.66 3.68 18 3 C18.66 3.33 19.32 3.66 20 4 C20 4.99 20 5.98 20 7 C13.04976736 6.35346673 6.61822697 4.13972752 0 2 C0 1.34 0 0.68 0 0 Z " fill="#86AA76" transform="translate(171,473)"/>
<path d="M0 0 C0.66 0.33 1.32 0.66 2 1 C1.01 1.33 0.02 1.66 -1 2 C-1 2.66 -1 3.32 -1 4 C-2.051875 4.433125 -3.10375 4.86625 -4.1875 5.3125 C-6.45467272 6.27570765 -8.39941464 7.24963415 -10.5 8.5625 C-13.55367924 10.31836556 -16.59899277 11.13307659 -20 12 C-14.9324545 5.8465519 -7.46543369 2.4884779 0 0 Z " fill="#92B385" transform="translate(295,195)"/>
<path d="M0 0 C3.25191199 3.81612385 5.11627147 8.23299891 7.1875 12.75 C7.73954102 13.93916016 7.73954102 13.93916016 8.30273438 15.15234375 C9.20599492 17.09963272 10.1035641 19.04955989 11 21 C10.34 21 9.68 21 9 21 C9 20.34 9 19.68 9 19 C8.34 19 7.68 19 7 19 C7 17.68 7 16.36 7 15 C6.34 15 5.68 15 5 15 C5 14.34 5 13.68 5 13 C4.34 13 3.68 13 3 13 C3.33 11.68 3.66 10.36 4 9 C3.01 9 2.02 9 1 9 C0.67 6.03 0.34 3.06 0 0 Z " fill="#85A571" transform="translate(457,137)"/>
<path d="M0 0 C2.72869407 0.03287583 5.2966618 0.56397771 8 1 C8 1.66 8 2.32 8 3 C9.65 3 11.3 3 13 3 C13 3.99 13 4.98 13 6 C13.99 6.33 14.98 6.66 16 7 C15.67 8.32 15.34 9.64 15 11 C14.773125 10.38125 14.54625 9.7625 14.3125 9.125 C11.31229821 4.26753044 3.24318079 3.52714004 -2 2 C-1.34 1.34 -0.68 0.68 0 0 Z " fill="#83A979" transform="translate(305,243)"/>
<path d="M0 0 C0 0.99 0 1.98 0 3 C-1.32 3.33 -2.64 3.66 -4 4 C-4 4.66 -4 5.32 -4 6 C-5.26362492 6.55827609 -6.5362919 7.09612097 -7.8125 7.625 C-8.52019531 7.92664062 -9.22789062 8.22828125 -9.95703125 8.5390625 C-10.63121094 8.69117188 -11.30539063 8.84328125 -12 9 C-12.99 8.34 -13.98 7.68 -15 7 C-12.87767021 5.82823482 -10.75242209 4.66245215 -8.625 3.5 C-7.72007812 2.99919922 -7.72007812 2.99919922 -6.796875 2.48828125 C-2.2265625 0 -2.2265625 0 0 0 Z " fill="#82A66F" transform="translate(144,39)"/>
<path d="M0 0 C0.66 0.33 1.32 0.66 2 1 C2.3125 3.6875 2.3125 3.6875 2 7 C-0.375 9.875 -0.375 9.875 -3 12 C-3.66 12 -4.32 12 -5 12 C-5 12.99 -5 13.98 -5 15 C-5.66 14.67 -6.32 14.34 -7 14 C-4.69 9.38 -2.38 4.76 0 0 Z " fill="#87A777" transform="translate(444,349)"/>
<path d="M0 0 C7.89516792 0.99331831 14.36839067 3.57090339 21 8 C21.33 8.66 21.66 9.32 22 10 C19.03 9.505 19.03 9.505 16 9 C15.67 8.01 15.34 7.02 15 6 C13.68 6 12.36 6 11 6 C11 5.34 11 4.68 11 4 C9.741875 3.855625 8.48375 3.71125 7.1875 3.5625 C4.57332877 3.26251314 2.52560108 2.84186703 0 2 C0 1.34 0 0.68 0 0 Z " fill="#99B98F" transform="translate(340,195)"/>
<path d="M0 0 C0.99 0 1.98 0 3 0 C3 0.66 3 1.32 3 2 C3.66 2 4.32 2 5 2 C4.95875 3.19625 4.9175 4.3925 4.875 5.625 C4.86148292 9.42329953 5.57990247 12.44975618 7 16 C6.34 16.66 5.68 17.32 5 18 C4.16112944 15.56427941 3.32873471 13.12666783 2.5 10.6875 C2.14228516 9.65206055 2.14228516 9.65206055 1.77734375 8.59570312 C0.76791737 5.61068511 0 3.17341086 0 0 Z " fill="#84A677" transform="translate(455,177)"/>
<path d="M0 0 C2.97 0 5.94 0 9 0 C5.16044277 1.91977861 1.71817199 2.82880087 -2.4375 3.625 C-3.09298828 3.7590625 -3.74847656 3.893125 -4.42382812 4.03125 C-7.99774854 4.73384619 -11.35824021 5.15437132 -15 5 C-14 3 -14 3 -11 2 C-9.10529184 1.9314505 -7.2083166 1.91519628 -5.3125 1.9375 C-4.31863281 1.94652344 -3.32476562 1.95554687 -2.30078125 1.96484375 C-1.16189453 1.98224609 -1.16189453 1.98224609 0 2 C0 1.34 0 0.68 0 0 Z " fill="#9FBB93" transform="translate(295,480)"/>
<path d="M0 0 C1.4370809 -0.05422947 2.87475462 -0.09289723 4.3125 -0.125 C5.11300781 -0.14820313 5.91351563 -0.17140625 6.73828125 -0.1953125 C9 0 9 0 12 2 C14.11280345 2.63292383 14.11280345 2.63292383 16 3 C16 3.99 16 4.98 16 6 C12.21760329 5.34309381 8.78158474 4.279869 5.1875 2.9375 C4.21167969 2.57527344 3.23585938 2.21304688 2.23046875 1.83984375 C1.49441406 1.56269531 0.75835937 1.28554688 0 1 C0 0.67 0 0.34 0 0 Z " fill="#9AB890" transform="translate(321,48)"/>
<path d="M0 0 C2.125 1.9375 2.125 1.9375 4 4 C4.99 4 5.98 4 7 4 C7 4.99 7 5.98 7 7 C1.45949887 6.43174347 -3.03715966 4.37113483 -8 2 C-2.5625 0.1875 -2.5625 0.1875 0 0 Z " fill="#8CB17F" transform="translate(158,465)"/>
<path d="M0 0 C0.66 0 1.32 0 2 0 C2.36517527 6.57315478 1.13619737 11.79485526 -1 18 C-1.33 18 -1.66 18 -2 18 C-2.23268915 11.71739294 -1.40454548 6.11980533 0 0 Z " fill="#91B285" transform="translate(177,138)"/>
<path d="M0 0 C2.475 0.495 2.475 0.495 5 1 C5 1.66 5 2.32 5 3 C5.66 3 6.32 3 7 3 C7.33 4.32 7.66 5.64 8 7 C9.32 7.33 10.64 7.66 12 8 C11.67 8.99 11.34 9.98 11 11 C9.5344405 9.92646259 8.07779848 8.8407446 6.625 7.75 C5.81289062 7.14671875 5.00078125 6.5434375 4.1640625 5.921875 C2.03173222 4.02818096 1.05363296 2.61671482 0 0 Z " fill="#85A879" transform="translate(116,160)"/>
<path d="M0 0 C6.72062767 3.2113344 13.15350506 6.34937902 19 11 C19 11.33 19 11.66 19 12 C17.35 12 15.7 12 14 12 C14 11.34 14 10.68 14 10 C12.3603125 9.3503125 12.3603125 9.3503125 10.6875 8.6875 C7.84833251 7.47885842 6.09211454 6.29136354 4 4 C1.90010348 2.82425289 1.90010348 2.82425289 0 2 C0 1.34 0 0.68 0 0 Z " fill="#8EAA80" transform="translate(357,42)"/>
<path d="M0 0 C2.20826378 -0.02722517 4.41662638 -0.04649729 6.625 -0.0625 C7.85476562 -0.07410156 9.08453125 -0.08570313 10.3515625 -0.09765625 C13.67723791 -0.00863924 16.74047588 0.36313913 20 1 C18 3 18 3 15.13671875 3.01171875 C13.99847656 2.90472656 12.86023438 2.79773438 11.6875 2.6875 C10.55699219 2.58824219 9.42648438 2.48898437 8.26171875 2.38671875 C5.46011344 2.05455237 2.75364423 1.60445849 0 1 C0 0.67 0 0.34 0 0 Z " fill="#9CB98F" transform="translate(200,482)"/>
<path d="M0 0 C-1.41087235 2.82174471 -3.07866953 2.93769801 -6 4 C-6.78375 4.37125 -7.5675 4.7425 -8.375 5.125 C-11.66670564 6.22223521 -14.55419977 6.13512942 -18 6 C-14.87754953 3.91836635 -11.92965119 2.67424387 -8.4375 1.3125 C-7.28121094 0.85488281 -6.12492187 0.39726562 -4.93359375 -0.07421875 C-2 -1 -2 -1 0 0 Z " fill="#93B183" transform="translate(335,451)"/>
<path d="M0 0 C2 3.75 2 3.75 2 6 C2.99 6.33 3.98 6.66 5 7 C4.814375 7.639375 4.62875 8.27875 4.4375 8.9375 C4.293125 9.618125 4.14875 10.29875 4 11 C4.33 11.33 4.66 11.66 5 12 C5.04080783 13.99958364 5.04254356 16.00045254 5 18 C2.99593518 14.99390278 1.96923742 12.40757305 0.8125 9 C0.44769531 7.948125 0.08289063 6.89625 -0.29296875 5.8125 C-1 3 -1 3 0 0 Z " fill="#92B284" transform="translate(17,311)"/>
<path d="M0 0 C1.32 0.33 2.64 0.66 4 1 C1.69 5.29 -0.62 9.58 -3 14 C-3.66 12.68 -4.32 11.36 -5 10 C-4.01 9.67 -3.02 9.34 -2 9 C-2 8.01 -2 7.02 -2 6 C-1.34 6 -0.68 6 0 6 C-0.2784375 4.7934375 -0.2784375 4.7934375 -0.5625 3.5625 C-0.706875 2.716875 -0.85125 1.87125 -1 1 C-0.67 0.67 -0.34 0.34 0 0 Z " fill="#80A270" transform="translate(460,353)"/>
<path d="M0 0 C-3.84344382 2.24538034 -7.9638019 3.1026736 -12.25 4.125 C-12.99507812 4.30675781 -13.74015625 4.48851562 -14.5078125 4.67578125 C-16.3375026 5.12147499 -18.16861575 5.56131959 -20 6 C-17.29550512 1.94325768 -14.78344609 1.38770567 -10.125 0.375 C-6.72271016 -0.03327478 -3.42353822 -0.06847076 0 0 Z " fill="#95B688" transform="translate(198,41)"/>
<path d="M0 0 C0.99 0 1.98 0 3 0 C2.731875 0.515625 2.46375 1.03125 2.1875 1.5625 C-0.11003752 6.27849807 -2.2093381 10.78163148 -3 16 C-4.125 14.375 -4.125 14.375 -5 12 C-3.96937777 7.69012522 -2.04975038 3.91315983 0 0 Z " fill="#80A272" transform="translate(272,252)"/>
<path d="M0 0 C0.99 0 1.98 0 3 0 C1.50829734 4.9723422 -0.60457417 9.41845739 -3 14 C-3.66 13.67 -4.32 13.34 -5 13 C-3.58192622 8.52761347 -1.88695626 4.28853694 0 0 Z " fill="#70985F" transform="translate(51,149)"/>
<path d="M0 0 C0.33 0.99 0.66 1.98 1 3 C0.34 3.66 -0.32 4.32 -1 5 C-1 6.32 -1 7.64 -1 9 C-2.8125 11.25 -2.8125 11.25 -5 13 C-5.99 13 -6.98 13 -8 13 C-6.40956621 7.91061189 -3.2553049 4.12543357 0 0 Z " fill="#7A9E6C" transform="translate(48,121)"/>
<path d="M0 0 C5.94 0.33 11.88 0.66 18 1 C18 1.33 18 1.66 18 2 C10.63959083 2.79725902 3.40239645 3.12886183 -4 3 C-2.68 2.67 -1.36 2.34 0 2 C0 1.34 0 0.68 0 0 Z " fill="#8FB283" transform="translate(214,35)"/>
<path d="M0 0 C0.66 0.33 1.32 0.66 2 1 C-4.90697674 9.95348837 -4.90697674 9.95348837 -9 12 C-9.33 11.01 -9.66 10.02 -10 9 C-6.7 6.03 -3.4 3.06 0 0 Z " fill="#8DB182" transform="translate(396,410)"/>
<path d="M0 0 C6.625 -0.125 6.625 -0.125 10 1 C10.99 1 11.98 1 13 1 C13 1.66 13 2.32 13 3 C7.96488101 4.0070238 4.76052962 3.97387813 0 2 C0 1.34 0 0.68 0 0 Z " fill="#8DAF7E" transform="translate(130,171)"/>
<path d="M0 0 C0.99 0.33 1.98 0.66 3 1 C2.67 2.98 2.34 4.96 2 7 C2.99 6.67 3.98 6.34 5 6 C5 6.99 5 7.98 5 9 C1.7 8.67 -1.6 8.34 -5 8 C-5 7.67 -5 7.34 -5 7 C-3.35 6.67 -1.7 6.34 0 6 C-0.185625 5.38125 -0.37125 4.7625 -0.5625 4.125 C-1 2 -1 2 0 0 Z " fill="#86AF76" transform="translate(289,32)"/>
<path d="M0 0 C7.38461538 -0.36923077 7.38461538 -0.36923077 10.5 1.5 C10.995 1.995 11.49 2.49 12 3 C11.67 3.33 11.34 3.66 11 4 C11.99 4.33 12.98 4.66 14 5 C14 5.66 14 6.32 14 7 C9.25981099 5.16508812 4.63586749 3.08058541 0 1 C0 0.67 0 0.34 0 0 Z " fill="#80A075" transform="translate(348,59)"/>
<path d="M0 0 C6.18160604 0.53753096 11.326858 2.54582388 17 5 C13.52176885 6.15941038 11.54104422 5.70820884 8 5 C8 4.34 8 3.68 8 3 C7.05125 3.061875 6.1025 3.12375 5.125 3.1875 C4.09375 3.125625 3.0625 3.06375 2 3 C1.34 2.01 0.68 1.02 0 0 Z " fill="#97B58C" transform="translate(157,449)"/>
<path d="M0 0 C1.13199353 0.9080162 2.25532363 1.82683826 3.375 2.75 C4.00148438 3.26046875 4.62796875 3.7709375 5.2734375 4.296875 C7.08312318 6.08199481 8.00117455 7.67949644 9 10 C8.01 10.495 8.01 10.495 7 11 C6.34 10.67 5.68 10.34 5 10 C5 9.34 5 8.68 5 8 C4.01 8 3.02 8 2 8 C1.855625 7.236875 1.71125 6.47375 1.5625 5.6875 C1.0367406 2.91827092 1.0367406 2.91827092 0 0 Z " fill="#9DB892" transform="translate(363,205)"/>
<path d="M0 0 C0.66 0.33 1.32 0.66 2 1 C0.92807816 2.3218362 -0.15802695 3.63217927 -1.25 4.9375 C-1.85328125 5.66839844 -2.4565625 6.39929688 -3.078125 7.15234375 C-5.10741134 9.10326334 -6.254407 9.61731779 -9 10 C-7.61811547 6.78956118 -6.07578097 4.95063635 -3.375 2.75 C-2.74335937 2.22921875 -2.11171875 1.7084375 -1.4609375 1.171875 C-0.73777344 0.59179688 -0.73777344 0.59179688 0 0 Z " fill="#709561" transform="translate(126,113)"/>
<path d="M0 0 C1 3 1 3 1 5 C-0.53125 6.2890625 -0.53125 6.2890625 -2.5 7.625 C-3.1496875 8.07101563 -3.799375 8.51703125 -4.46875 8.9765625 C-4.9740625 9.31429687 -5.479375 9.65203125 -6 10 C-6.66 9.34 -7.32 8.68 -8 8 C-5.36 5.36 -2.72 2.72 0 0 Z " fill="#7CA16F" transform="translate(83,80)"/>
<path d="M0 0 C3.14164535 0.73692916 6.10596396 1.55562735 9 3 C10.5625 6.1875 10.5625 6.1875 11 9 C8.03469503 7.64199529 5.70868729 6.07571737 3.25 3.9375 C2.63640625 3.41027344 2.0228125 2.88304687 1.390625 2.33984375 C0.93171875 1.89769531 0.4728125 1.45554687 0 1 C0 0.67 0 0.34 0 0 Z " fill="#A2C099" transform="translate(86,425)"/>
<path d="M0 0 C0.33 0 0.66 0 1 0 C1.36658354 6.47630923 1.36658354 6.47630923 -0.3125 8.875 C-2 10 -2 10 -5 11 C-3.77782954 6.95743617 -2.37245704 3.50711041 0 0 Z " fill="#87A67A" transform="translate(35,141)"/>
<path d="M0 0 C2 3 2 3 1.75 5.625 C1.5025 6.40875 1.255 7.1925 1 8 C-1.95664519 9.4783226 -4.74229737 9.06032783 -8 9 C-8.33 8.34 -8.66 7.68 -9 7 C-6.36 7 -3.72 7 -1 7 C-1.020625 6.030625 -1.04125 5.06125 -1.0625 4.0625 C-1 1 -1 1 0 0 Z " fill="#719565" transform="translate(172,368)"/>
<path d="M0 0 C3.04049801 3.64859761 4.96518762 7.7444533 7 12 C5.35 11.67 3.7 11.34 2 11 C2.33 10.01 2.66 9.02 3 8 C2.34 8 1.68 8 1 8 C0.26919734 6.02253397 -0.39421747 4.01927511 -1 2 C-0.67 1.34 -0.34 0.68 0 0 Z " fill="#94B185" transform="translate(51,347)"/>
<path d="M0 0 C0.99 0 1.98 0 3 0 C3.33 1.98 3.66 3.96 4 6 C4.66 6 5.32 6 6 6 C6 8.31 6 10.62 6 13 C3.87838666 10.87838666 3.07013751 9.2266841 1.875 6.5 C1.52179688 5.7059375 1.16859375 4.911875 0.8046875 4.09375 C0 2 0 2 0 0 Z " fill="#90B287" transform="translate(449,164)"/>
<path d="M0 0 C3.59478807 3.32850747 6.22364768 6.98971331 9 11 C8.67 11.66 8.34 12.32 8 13 C7.34 13 6.68 13 6 13 C6 11.68 6 10.36 6 9 C5.01 8.67 4.02 8.34 3 8 C0.2332241 5.02827774 0 4.25809375 0 0 Z " fill="#7D9D71" transform="translate(444,118)"/>
<path d="M0 0 C3.59905908 0.55550695 4.99909799 1.74887248 7.25 4.5625 C8.03117188 5.52349609 8.03117188 5.52349609 8.828125 6.50390625 C9.21484375 6.99761719 9.6015625 7.49132812 10 8 C9.67 8.66 9.34 9.32 9 10 C8.34 10 7.68 10 7 10 C5.61558 8.03501678 4.28796166 6.02951535 3 4 C2.01133494 2.65824027 1.0161846 1.32103998 0 0 Z " fill="#799A67" transform="translate(164,116)"/>
<path d="M0 0 C0.99 0.33 1.98 0.66 3 1 C2.04578192 2.14926266 1.08647955 3.29430541 0.125 4.4375 C-0.40867187 5.07558594 -0.94234375 5.71367188 -1.4921875 6.37109375 C-3 8 -3 8 -5 9 C-4.74438677 6.6568787 -4.40729228 4.32156597 -4 2 C-3.34 1.67 -2.68 1.34 -2 1 C-2 1.66 -2 2.32 -2 3 C-1.34 3 -0.68 3 0 3 C0 2.01 0 1.02 0 0 Z " fill="#98B785" transform="translate(95,92)"/>
<path d="M0 0 C0 0.66 0 1.32 0 2 C-0.66 2 -1.32 2 -2 2 C-2 2.66 -2 3.32 -2 4 C-10.03571429 5.20535714 -10.03571429 5.20535714 -14 4 C-12.0429132 3.32968281 -10.08428887 2.66385317 -8.125 2 C-7.03445312 1.62875 -5.94390625 1.2575 -4.8203125 0.875 C-2 0 -2 0 0 0 Z " fill="#8BAE7F" transform="translate(178,26)"/>
<path d="M0 0 C-1.91040052 0.8680908 -3.82860737 1.71901783 -5.75 2.5625 C-6.81734375 3.03816406 -7.8846875 3.51382812 -8.984375 4.00390625 C-11.98369837 4.9946154 -13.13421241 5.16161779 -16 4 C-16 3.67 -16 3.34 -16 3 C-14.02 3 -12.04 3 -10 3 C-10 2.34 -10 1.68 -10 1 C-3.375 -1.125 -3.375 -1.125 0 0 Z " fill="#97B58A" transform="translate(346,467)"/>
<path d="M0 0 C6.74233419 -0.12910853 13.30386804 0.202163 20 1 C20 1.33 20 1.66 20 2 C12.77466796 2.99939172 7.04335384 2.96290189 0 1 C0 0.67 0 0.34 0 0 Z " fill="#8BB07F" transform="translate(210,465)"/>
<path d="M0 0 C0.66 1.65 1.32 3.3 2 5 C-0.31 5.33 -2.62 5.66 -5 6 C-5.33 4.68 -5.66 3.36 -6 2 C-2.25 0 -2.25 0 0 0 Z " fill="#89AE79" transform="translate(341,447)"/>
<path d="M0 0 C1.12894876 0.93274109 2.25300876 1.87140122 3.375 2.8125 C4.00148438 3.33457031 4.62796875 3.85664063 5.2734375 4.39453125 C7 6 7 6 9 9 C8.01 9.33 7.02 9.66 6 10 C4.76302083 8.47005208 3.52604167 6.94010417 2.2890625 5.41015625 C1.0333609 3.86733563 1.0333609 3.86733563 -1 3 C-0.67 2.01 -0.34 1.02 0 0 Z " fill="#95B488" transform="translate(92,403)"/>
<path d="M0 0 C3.34998521 1.11666174 3.79340222 1.74694925 5.6875 4.5625 C6.12449219 5.20316406 6.56148438 5.84382813 7.01171875 6.50390625 C7.33785156 6.99761719 7.66398437 7.49132812 8 8 C7.67 8.66 7.34 9.32 7 10 C6.01 9.67 5.02 9.34 4 9 C3.67 8.01 3.34 7.02 3 6 C2.01 5.34 1.02 4.68 0 4 C0 2.68 0 1.36 0 0 Z " fill="#7D9A6C" transform="translate(432,103)"/>
<path d="M0 0 C4.41328187 0.84870805 6.4810099 1.34074231 9.3125 4.9375 C9.869375 5.948125 10.42625 6.95875 11 8 C11.99 9.485 11.99 9.485 13 11 C9.54691313 9.48729451 7.04375621 7.45279358 4.25 4.9375 C3.45078125 4.22464844 2.6515625 3.51179688 1.828125 2.77734375 C1.22484375 2.19082031 0.6215625 1.60429688 0 1 C0 0.67 0 0.34 0 0 Z " fill="#9CBA8F" transform="translate(383,81)"/>
<path d="M0 0 C0.33 0.66 0.66 1.32 1 2 C1.99 2.33 2.98 2.66 4 3 C2.40084119 3.69906942 0.79544955 4.38389468 -0.8125 5.0625 C-1.70582031 5.44535156 -2.59914062 5.82820313 -3.51953125 6.22265625 C-6 7 -6 7 -9 6 C-7.8125 4.5 -7.8125 4.5 -6 3 C-3.3125 2.8125 -3.3125 2.8125 -1 3 C-0.67 2.01 -0.34 1.02 0 0 Z " fill="#95B588" transform="translate(173,45)"/>
<path d="M0 0 C1.77155654 0.11429397 3.54226229 0.24183037 5.3125 0.375 C6.79169922 0.47941406 6.79169922 0.47941406 8.30078125 0.5859375 C11 1 11 1 14 3 C10.59598052 4.13732426 8.22543336 3.83989957 4.75 3.0625 C3.85796875 2.86785156 2.9659375 2.67320313 2.046875 2.47265625 C1.37140625 2.31667969 0.6959375 2.16070313 0 2 C0 1.34 0 0.68 0 0 Z " fill="#88AA7D" transform="translate(297,22)"/>
<path d="M0 0 C-0.98828125 1.51953125 -0.98828125 1.51953125 -3 3 C-5.83056579 3.05538697 -8.39069365 2.9635167 -11.1875 2.6875 C-11.93708984 2.62626953 -12.68667969 2.56503906 -13.45898438 2.50195312 C-15.30722745 2.34891389 -17.1538335 2.17633121 -19 2 C-19 1.67 -19 1.34 -19 1 C-12.63849395 0.34513908 -6.39628979 -0.12068471 0 0 Z " fill="#9CB791" transform="translate(283,465)"/>
<path d="M0 0 C0.33 1.32 0.66 2.64 1 4 C0.360625 4.268125 -0.27875 4.53625 -0.9375 4.8125 C-3.33131686 5.88667752 -3.33131686 5.88667752 -4 9 C-6.0625 9.6875 -6.0625 9.6875 -8 10 C-7.04367001 8.70684939 -6.08486149 7.41553147 -5.125 6.125 C-4.59132813 5.40570313 -4.05765625 4.68640625 -3.5078125 3.9453125 C-2 2 -2 2 0 0 Z " fill="#88A87B" transform="translate(425,380)"/>
<path d="M0 0 C1.32 0.66 2.64 1.32 4 2 C2.8803014 3.00593243 1.7540588 4.0045849 0.625 5 C-0.00148437 5.556875 -0.62796875 6.11375 -1.2734375 6.6875 C-3 8 -3 8 -5 8 C-5 6.68 -5 5.36 -5 4 C-3.35 4 -1.7 4 0 4 C0 2.68 0 1.36 0 0 Z " fill="#99B589" transform="translate(167,162)"/>
<path d="M0 0 C0 0.66 0 1.32 0 2 C-2.31 2.33 -4.62 2.66 -7 3 C-7 3.66 -7 4.32 -7 5 C-9.31 4.67 -11.62 4.34 -14 4 C-9.64512016 1.56126729 -5.00634437 0 0 0 Z " fill="#94B28C" transform="translate(313,458)"/>
<path d="M0 0 C2.52394612 3.12488567 4.39701907 6.31314387 6 10 C5.67 10.66 5.34 11.32 5 12 C2.65398514 9.86725921 1.13735551 7.97462211 0 5 C-0.125 2.25 -0.125 2.25 0 0 Z " fill="#9DB890" transform="translate(45,335)"/>
<path d="M0 0 C0.99 0 1.98 0 3 0 C2.01 4.62 1.02 9.24 0 14 C-2 11 -2 11 -2 9 C-1.34 9 -0.68 9 0 9 C0 6.03 0 3.06 0 0 Z " fill="#93B188" transform="translate(480,298)"/>
<path d="M0 0 C2.97 0.33 5.94 0.66 9 1 C9 1.66 9 2.32 9 3 C7.02 3.66 5.04 4.32 3 5 C1.5 3.625 1.5 3.625 0 2 C0 1.34 0 0.68 0 0 Z " fill="#759F67" transform="translate(122,66)"/>
<path d="M0 0 C1.60568666 0.28317926 3.20952047 0.57687791 4.8125 0.875 C6.15248047 1.11863281 6.15248047 1.11863281 7.51953125 1.3671875 C10 2 10 2 13 4 C9.38295924 5.20568025 7.94133527 4.97946735 4.25 3.6875 C1 2 1 2 0 0 Z " fill="#93AF81" transform="translate(312,25)"/>
<path d="M0 0 C1.32 1.65 2.64 3.3 4 5 C2.68 6.32 1.36 7.64 0 9 C-0.84454356 5.62182575 -1.10844919 3.32534757 0 0 Z " fill="#6A9757" transform="translate(362,205)"/>
<path d="M0 0 C1.051875 -0.02126953 1.051875 -0.02126953 2.125 -0.04296875 C4 0.1875 4 0.1875 6 2.1875 C4.56465159 2.4101746 3.12654475 2.61511906 1.6875 2.8125 C0.88699219 2.92851562 0.08648437 3.04453125 -0.73828125 3.1640625 C-3 3.1875 -3 3.1875 -6 1.1875 C-3.77109005 0.07304502 -2.46944894 0.02269714 0 0 Z " fill="#87AC7B" transform="translate(150,171.8125)"/>
<path d="M0 0 C0 3 0 3 -2 6 C-4.49664253 6.88590541 -6.32115341 7 -9 7 C-6.24479785 4.04070881 -3.53372712 1.96318174 0 0 Z " fill="#799A68" transform="translate(118,53)"/>
<path d="M0 0 C0.33 1.32 0.66 2.64 1 4 C-2.25978366 6.22257977 -5.44774296 8.28564986 -9 10 C-8.06409496 8.8944811 -7.12620142 7.79064547 -6.1875 6.6875 C-5.66542969 6.07261719 -5.14335937 5.45773437 -4.60546875 4.82421875 C-3.12827531 3.14575321 -1.59960869 1.56117966 0 0 Z " fill="#A4C197" transform="translate(410,397)"/>
<path d="M0 0 C1.14926266 0.95421808 2.29430541 1.91352045 3.4375 2.875 C4.07558594 3.40867187 4.71367188 3.94234375 5.37109375 4.4921875 C7 6 7 6 8 8 C5.625 7.6875 5.625 7.6875 3 7 C2.34 6.01 1.68 5.02 1 4 C0.01 3.34 -0.98 2.68 -2 2 C-1.34 2 -0.68 2 0 2 C0 1.34 0 0.68 0 0 Z " fill="#9AB988" transform="translate(84,395)"/>
<path d="M0 0 C0.8125 1.6875 0.8125 1.6875 1 4 C-1.3125 6.75 -1.3125 6.75 -4 9 C-4.66 9 -5.32 9 -6 9 C-4.47291037 5.56404834 -2.40072955 2.88087546 0 0 Z " fill="#96B48A" transform="translate(271,209)"/>
<path d="M0 0 C0.33 0.99 0.66 1.98 1 3 C1.99 3.66 2.98 4.32 4 5 C3.67 5.99 3.34 6.98 3 8 C0.36 6.02 -2.28 4.04 -5 2 C-2 0 -2 0 0 0 Z " fill="#709660" transform="translate(375,70)"/>
<path d="M0 0 C1 2 1 2 1 6 C-1.375 6.625 -1.375 6.625 -4 7 C-4.66 6.34 -5.32 5.68 -6 5 C-4.02 3.35 -2.04 1.7 0 0 Z " fill="#82A570" transform="translate(383,421)"/>
<path d="M0 0 C0.66 0.33 1.32 0.66 2 1 C1.8125 2.8125 1.8125 2.8125 1 5 C-1.5625 6.75 -1.5625 6.75 -4 8 C-4 7.01 -4 6.02 -4 5 C-3.34 5 -2.68 5 -2 5 C-1.34 3.35 -0.68 1.7 0 0 Z " fill="#8EAE81" transform="translate(411,420)"/>
<path d="M0 0 C0.66 0.33 1.32 0.66 2 1 C1.55066068 5.67312888 0.98090266 8.38775335 -2 12 C-1.85962479 10.18706911 -1.71255111 8.3746557 -1.5625 6.5625 C-1.48128906 5.55316406 -1.40007812 4.54382813 -1.31640625 3.50390625 C-1 1 -1 1 0 0 Z " fill="#7DAB70" transform="translate(468,336)"/>
<path d="M0 0 C0 3.20395416 -0.74335022 5.09399739 -2 8 C-3.32 7.67 -4.64 7.34 -6 7 C-4.02 4.69 -2.04 2.38 0 0 Z " fill="#9EB990" transform="translate(70,93)"/>
<path d="M0 0 C2.97 0.495 2.97 0.495 6 1 C3.01353231 2.99097846 0.40312738 3.94124926 -3 5 C-3.33 4.34 -3.66 3.68 -4 3 C-3.01 2.67 -2.02 2.34 -1 2 C-0.67 1.34 -0.34 0.68 0 0 Z " fill="#8CAD7C" transform="translate(158,51)"/>
<path d="M0 0 C0.66 0.66 1.32 1.32 2 2 C1.34 3.65 0.68 5.3 0 7 C-1.32 5.68 -2.64 4.36 -4 3 C-3 1 -3 1 0 0 Z " fill="#7BA16B" transform="translate(45,368)"/>
<path d="M0 0 C2.09350689 3.4019487 2.17942163 6.05272412 2 10 C-0.50298434 7.06171403 -1.46930939 4.82097239 -2 1 C-1.34 0.67 -0.68 0.34 0 0 Z " fill="#99B68E" transform="translate(24,329)"/>
<path d="M0 0 C0.75 1.75 0.75 1.75 1 4 C-0.9375 6.25 -0.9375 6.25 -3 8 C-3.66 7.34 -4.32 6.68 -5 6 C-3.35 4.02 -1.7 2.04 0 0 Z " fill="#759969" transform="translate(54,113)"/>
<path d="M0 0 C0.33 0.99 0.66 1.98 1 3 C-1.3125 6.1875 -1.3125 6.1875 -4 9 C-4.66 9 -5.32 9 -6 9 C-4.47291037 5.56404834 -2.40072955 2.88087546 0 0 Z " fill="#779A67" transform="translate(61,104)"/>
<path d="M0 0 C0.33 0.66 0.66 1.32 1 2 C1.99 2 2.98 2 4 2 C3.67 3.32 3.34 4.64 3 6 C1.68 6 0.36 6 -1 6 C-0.67 4.02 -0.34 2.04 0 0 Z " fill="#89B074" transform="translate(456,320)"/>
<path d="M0 0 C0.66 0 1.32 0 2 0 C2 2.64 2 5.28 2 8 C1.01 8.33 0.02 8.66 -1 9 C-0.67 6.03 -0.34 3.06 0 0 Z " fill="#98BC8F" transform="translate(177,138)"/>
<path d="M0 0 C3.465 1.98 3.465 1.98 7 4 C7 4.99 7 5.98 7 7 C3.535 5.02 3.535 5.02 0 3 C0 2.01 0 1.02 0 0 Z " fill="#6B945E" transform="translate(378,55)"/>
<path d="M0 0 C2.31 0 4.62 0 7 0 C7.33 0.99 7.66 1.98 8 3 C5.36 2.67 2.72 2.34 0 2 C0 1.34 0 0.68 0 0 Z " fill="#7DA370" transform="translate(171,473)"/>
<path d="M0 0 C-1.28913487 0.67154933 -2.58140204 1.33708859 -3.875 2 C-4.59429687 2.37125 -5.31359375 2.7425 -6.0546875 3.125 C-8 4 -8 4 -10 4 C-10 3.01 -10 2.02 -10 1 C-3.375 -1.125 -3.375 -1.125 0 0 Z " fill="#9FB992" transform="translate(357,462)"/>
<path d="M0 0 C0 3 0 3 -1.375 4.6875 C-3 6 -3 6 -5 6 C-4.75 4.125 -4.75 4.125 -4 2 C-1.9375 0.75 -1.9375 0.75 0 0 Z " fill="#6D965D" transform="translate(403,406)"/>
<path d="M0 0 C1.32 0.33 2.64 0.66 4 1 C4 3.64 4 6.28 4 9 C2.00902154 6.01353231 1.05875074 3.40312738 0 0 Z " fill="#9CBE93" transform="translate(321,255)"/>
<path d="M0 0 C2.72869407 0.03287583 5.2966618 0.56397771 8 1 C7.67 1.99 7.34 2.98 7 4 C2.545 3.01 2.545 3.01 -2 2 C-1.34 1.34 -0.68 0.68 0 0 Z " fill="#9AB58D" transform="translate(305,243)"/>
<path d="M0 0 C-0.99 0.33 -1.98 0.66 -3 1 C-3 1.66 -3 2.32 -3 3 C-5.31 3 -7.62 3 -10 3 C-7.28464405 0.28464405 -3.67870689 -1.83935344 0 0 Z " fill="#A0BD92" transform="translate(297,196)"/>
<path d="M0 0 C1.42944945 2.35438733 2.08661261 3.48032433 1.625 6.25 C1.41875 6.8275 1.2125 7.405 1 8 C0.01 7.67 -0.98 7.34 -2 7 C-1.34 4.69 -0.68 2.38 0 0 Z " fill="#86AA77" transform="translate(26,159)"/>
<path d="M0 0 C2.97 0 5.94 0 9 0 C5.39338934 1.80330533 2.91606575 2.46599103 -1 3 C-0.67 2.01 -0.34 1.02 0 0 Z " fill="#8DAF81" transform="translate(310,476)"/>
<path d="M0 0 C0.99 0.33 1.98 0.66 3 1 C1.68 2.32 0.36 3.64 -1 5 C-1.99 4.67 -2.98 4.34 -4 4 C-3.34 3.67 -2.68 3.34 -2 3 C-2 2.34 -2 1.68 -2 1 C-1.34 0.67 -0.68 0.34 0 0 Z " fill="#749862" transform="translate(381,444)"/>
<path d="M0 0 C3.96 1.98 3.96 1.98 8 4 C8 4.33 8 4.66 8 5 C6.02 5 4.04 5 2 5 C1.34 3.35 0.68 1.7 0 0 Z " fill="#95B588" transform="translate(142,440)"/>
<path d="M0 0 C2 2 2 2 2 5 C1.34 5 0.68 5 0 5 C-0.66 6.32 -1.32 7.64 -2 9 C-2.33 8.34 -2.66 7.68 -3 7 C-2.06421005 4.64018187 -1.06652192 2.30368736 0 0 Z " fill="#A8C09B" transform="translate(452,331)"/>
<path d="M0 0 C2.14386959 1.07193479 3.39003402 2.24367347 5 4 C5 4.33 5 4.66 5 5 C3.35 5 1.7 5 0 5 C-0.5625 3.0625 -0.5625 3.0625 -1 1 C-0.67 0.67 -0.34 0.34 0 0 Z " fill="#5F9D49" transform="translate(121,67)"/>
<path d="M0 0 C-2.98646769 1.99097846 -5.59687262 2.94124926 -9 4 C-9 3.01 -9 2.02 -9 1 C-5.92677456 0.08941469 -3.19902639 -0.08886184 0 0 Z " fill="#9BBA93" transform="translate(155,56)"/>
</svg>
