<svg version="1.1" id="Layer_1" xmlns="http://www.w3.org/2000/svg" xmlns:xlink="http://www.w3.org/1999/xlink" x="0px" y="0px"
	 width="100%" viewBox="0 0 532 508" enable-background="new 0 0 532 508" xml:space="preserve">
<path fill="#FFFFFF" opacity="1.000000" stroke="none" 
	d="
M533.000000,185.000000 
	C533.000000,293.307404 533.000000,401.114838 533.000000,508.922241 
	C532.859314,508.948151 532.718567,508.996765 532.577881,508.996765 
	C355.453796,509.000000 178.329697,509.000000 1.102799,509.000000 
	C1.102799,339.775940 1.102799,170.551819 1.102799,1.163842 
	C178.333206,1.163842 355.666595,1.163842 533.000000,1.163842 
	C533.000000,62.196228 533.000000,123.348114 533.000000,185.000000 
M24.308954,271.157898 
	C25.178017,278.093018 25.847927,285.059875 26.947405,291.958282 
	C36.418941,351.385254 64.222000,400.694916 110.996674,438.332306 
	C170.561325,486.261200 238.781891,504.437744 313.829681,488.700745 
	C400.760315,470.472046 461.547089,419.048248 494.986176,336.487701 
	C508.784393,302.420166 511.140564,266.667389 506.711182,230.378998 
	C503.196655,201.585846 496.395294,173.664993 482.552673,147.981796 
	C423.418854,38.266487 313.571472,3.628051 217.913223,22.623705 
	C94.215103,47.187477 17.184206,156.416428 24.308954,271.157898 
z"/>
<path fill="#659A51" opacity="1.000000" stroke="none" 
	d="
M24.272591,270.688232 
	C17.184206,156.416428 94.215103,47.187477 217.913223,22.623705 
	C313.571472,3.628051 423.418854,38.266487 482.552673,147.981796 
	C496.395294,173.664993 503.196655,201.585846 506.711182,230.378998 
	C511.140564,266.667389 508.784393,302.420166 494.986176,336.487701 
	C461.547089,419.048248 400.760315,470.472046 313.829681,488.700745 
	C238.781891,504.437744 170.561325,486.261200 110.996674,438.332306 
	C64.222000,400.694916 36.418941,351.385254 26.947405,291.958282 
	C25.847927,285.059875 25.178017,278.093018 24.272591,270.688232 
M396.044403,435.570892 
	C477.848267,376.181335 510.064514,279.867157 479.076782,186.081070 
	C459.858398,127.915428 420.617371,86.925308 367.006226,59.174057 
	C318.510223,34.070621 267.395721,30.765583 214.444733,41.818687 
	C107.099960,64.226067 19.261124,175.885025 47.347324,302.051086 
	C62.478577,370.022186 101.754349,418.705322 162.555176,450.815674 
	C203.189499,472.275726 246.512985,479.505615 292.184174,474.178070 
	C329.793457,469.790955 364.324219,457.621887 396.044403,435.570892 
z"/>
<path fill="#FFFFFF" opacity="1.000000" stroke="none" 
	d="
M395.746277,435.771912 
	C364.324219,457.621887 329.793457,469.790955 292.184174,474.178070 
	C246.512985,479.505615 203.189499,472.275726 162.555176,450.815674 
	C101.754349,418.705322 62.478577,370.022186 47.347324,302.051086 
	C19.261124,175.885025 107.099960,64.226067 214.444733,41.818687 
	C267.395721,30.765583 318.510223,34.070621 367.006226,59.174057 
	C420.617371,86.925308 459.858398,127.915428 479.076782,186.081070 
	C510.064514,279.867157 477.848267,376.181335 395.746277,435.771912 
M209.497574,214.681946 
	C202.077744,214.681946 194.657928,214.681946 187.325623,214.681946 
	C187.325623,233.724655 187.325623,251.615677 187.325623,269.927856 
	C202.979416,269.927856 218.238586,269.927856 233.947067,269.927856 
	C233.947067,315.939484 233.947067,361.526398 233.947067,407.248749 
	C235.302490,407.543213 236.248672,407.926605 237.195404,407.928040 
	C253.675949,407.952759 270.156799,407.878540 286.637024,407.954376 
	C290.878265,407.973907 291.236877,405.656799 291.229584,402.199799 
	C291.140961,360.204834 291.172089,318.209656 291.172089,276.214508 
	C291.172089,274.260437 291.172089,272.306366 291.172089,270.504303 
	C294.170441,269.949554 296.572144,269.134644 298.977722,269.123260 
	C310.260712,269.069763 321.545380,269.189575 332.828003,269.351044 
	C336.959625,269.410156 338.659393,267.605286 339.100952,263.454773 
	C340.085541,254.199509 341.603455,245.002319 342.782227,235.765915 
	C343.654541,228.930893 344.334717,222.071335 345.150421,214.776276 
	C327.102325,214.776276 309.822052,214.776276 292.292511,214.776276 
	C291.911957,212.860886 291.312988,211.262100 291.322174,209.666809 
	C291.391144,197.673370 291.228333,185.662933 291.829987,173.692596 
	C292.433167,161.691391 299.362915,155.463348 311.539856,155.005615 
	C323.123260,154.570175 334.709930,154.220718 346.482117,153.827209 
	C346.482117,137.419479 346.482117,121.357132 346.482117,105.021271 
	C337.393585,104.355286 328.605621,103.344193 319.800964,103.168457 
	C310.831818,102.989449 301.799133,103.143143 292.876404,104.003304 
	C260.728546,107.102341 238.466202,128.739532 235.139954,160.981384 
	C233.675446,175.177231 234.250015,189.582352 233.865417,203.891556 
	C233.777039,207.179459 233.551270,210.463684 233.342270,214.689072 
	C225.409180,214.689072 217.952408,214.689072 209.497574,214.681946 
z"/>
<path fill="#649950" opacity="1.000000" stroke="none" 
	d="
M209.996613,214.685516 
	C217.952408,214.689072 225.409180,214.689072 233.342270,214.689072 
	C233.551270,210.463684 233.777039,207.179459 233.865417,203.891556 
	C234.250015,189.582352 233.675446,175.177231 235.139954,160.981384 
	C238.466202,128.739532 260.728546,107.102341 292.876404,104.003304 
	C301.799133,103.143143 310.831818,102.989449 319.800964,103.168457 
	C328.605621,103.344193 337.393585,104.355286 346.482117,105.021271 
	C346.482117,121.357132 346.482117,137.419479 346.482117,153.827209 
	C334.709930,154.220718 323.123260,154.570175 311.539856,155.005615 
	C299.362915,155.463348 292.433167,161.691391 291.829987,173.692596 
	C291.228333,185.662933 291.391144,197.673370 291.322174,209.666809 
	C291.312988,211.262100 291.911957,212.860886 292.292511,214.776276 
	C309.822052,214.776276 327.102325,214.776276 345.150421,214.776276 
	C344.334717,222.071335 343.654541,228.930893 342.782227,235.765915 
	C341.603455,245.002319 340.085541,254.199509 339.100952,263.454773 
	C338.659393,267.605286 336.959625,269.410156 332.828003,269.351044 
	C321.545380,269.189575 310.260712,269.069763 298.977722,269.123260 
	C296.572144,269.134644 294.170441,269.949554 291.172089,270.504303 
	C291.172089,272.306366 291.172089,274.260437 291.172089,276.214508 
	C291.172089,318.209656 291.140961,360.204834 291.229584,402.199799 
	C291.236877,405.656799 290.878265,407.973907 286.637024,407.954376 
	C270.156799,407.878540 253.675949,407.952759 237.195404,407.928040 
	C236.248672,407.926605 235.302490,407.543213 233.947067,407.248749 
	C233.947067,361.526398 233.947067,315.939484 233.947067,269.927856 
	C218.238586,269.927856 202.979416,269.927856 187.325623,269.927856 
	C187.325623,251.615677 187.325623,233.724655 187.325623,214.681946 
	C194.657928,214.681946 202.077744,214.681946 209.996613,214.685516 
z"/>
</svg>