<svg version="1.1" id="Layer_1" xmlns="http://www.w3.org/2000/svg" xmlns:xlink="http://www.w3.org/1999/xlink" x="0px" y="0px"
	 width="100%" viewBox="0 0 508 506" enable-background="new 0 0 508 506" xml:space="preserve">
<path fill="#FEFFFE" opacity="1.000000" stroke="none" 
	d="
M509.000000,180.000000 
	C509.000000,289.333313 509.000000,398.166595 509.000000,506.999939 
	C339.666748,506.999939 170.333466,506.999939 1.000149,506.999969 
	C1.000100,338.333435 1.000100,169.666885 1.000050,1.000240 
	C170.333191,1.000160 339.666382,1.000160 508.999786,1.000080 
	C509.000000,60.500000 509.000000,120.000000 509.000000,180.000000 
M488.149475,310.710419 
	C490.432831,294.582855 493.979797,278.513855 494.730896,262.315247 
	C496.198761,230.659042 489.810791,199.940170 478.602356,170.453445 
	C444.519562,80.789696 350.303253,11.273025 237.829132,17.962893 
	C195.885605,20.457661 156.909119,32.883026 121.199593,55.437218 
	C26.784834,115.069748 -17.717762,233.901794 27.278454,344.799286 
	C68.632904,446.721344 178.121170,511.711853 297.569977,490.476318 
	C376.469604,476.449585 464.696259,413.038818 488.149475,310.710419 
z"/>
<path fill="#659A51" opacity="1.000000" stroke="none" 
	d="
M488.077209,311.121460 
	C464.696259,413.038818 376.469604,476.449585 297.569977,490.476318 
	C178.121170,511.711853 68.632904,446.721344 27.278454,344.799286 
	C-17.717762,233.901794 26.784834,115.069748 121.199593,55.437218 
	C156.909119,32.883026 195.885605,20.457661 237.829132,17.962893 
	C350.303253,11.273025 444.519562,80.789696 478.602356,170.453445 
	C489.810791,199.940170 496.198761,230.659042 494.730896,262.315247 
	C493.979797,278.513855 490.432831,294.582855 488.077209,311.121460 
M85.191124,404.301025 
	C144.043762,462.893402 213.678696,487.151123 296.426178,472.192444 
	C400.873383,453.310974 486.128204,355.605438 475.869690,237.237640 
	C471.350830,185.096603 450.617218,140.332199 413.833252,103.170113 
	C356.545319,45.293308 286.502533,25.244596 207.847290,39.801991 
	C125.141182,55.109112 70.316132,106.482872 39.541706,183.615250 
	C25.778498,218.111069 24.833361,254.435181 31.042259,290.895660 
	C38.306507,333.553497 55.021641,371.761139 85.191124,404.301025 
z"/>
<path fill="#FEFEFE" opacity="1.000000" stroke="none" 
	d="
M84.958672,404.034546 
	C55.021641,371.761139 38.306507,333.553497 31.042259,290.895660 
	C24.833361,254.435181 25.778498,218.111069 39.541706,183.615250 
	C70.316132,106.482872 125.141182,55.109112 207.847290,39.801991 
	C286.502533,25.244596 356.545319,45.293308 413.833252,103.170113 
	C450.617218,140.332199 471.350830,185.096603 475.869690,237.237640 
	C486.128204,355.605438 400.873383,453.310974 296.426178,472.192444 
	C213.678696,487.151123 144.043762,462.893402 84.958672,404.034546 
M180.640305,113.037521 
	C178.502594,113.369064 176.351807,113.632805 174.229156,114.042412 
	C146.270706,119.437744 125.042160,133.643036 113.516968,160.510727 
	C108.586632,172.004395 106.231041,184.179733 106.228500,196.517532 
	C106.219780,238.829437 105.635117,281.187561 107.371422,323.441681 
	C109.499069,375.219238 148.639343,396.920685 181.650604,398.701630 
	C229.557571,401.286163 277.568939,401.203003 325.521973,398.213776 
	C361.171265,395.991516 387.657684,370.520782 394.806061,339.621155 
	C397.623413,327.442810 397.791748,314.563934 398.336090,301.968170 
	C399.141418,283.334137 399.549500,264.666962 399.486298,246.016037 
	C399.427643,228.696487 398.497498,211.380661 398.010590,194.061539 
	C397.552216,177.758301 393.822632,162.387115 384.747162,148.655396 
	C369.529694,125.630524 347.504547,113.820312 320.419830,113.336227 
	C274.138245,112.509041 227.832535,113.031418 180.640305,113.037521 
z"/>
<path fill="#649A50" opacity="1.000000" stroke="none" 
	d="
M181.088623,113.012253 
	C227.832535,113.031418 274.138245,112.509041 320.419830,113.336227 
	C347.504547,113.820312 369.529694,125.630524 384.747162,148.655396 
	C393.822632,162.387115 397.552216,177.758301 398.010590,194.061539 
	C398.497498,211.380661 399.427643,228.696487 399.486298,246.016037 
	C399.549500,264.666962 399.141418,283.334137 398.336090,301.968170 
	C397.791748,314.563934 397.623413,327.442810 394.806061,339.621155 
	C387.657684,370.520782 361.171265,395.991516 325.521973,398.213776 
	C277.568939,401.203003 229.557571,401.286163 181.650604,398.701630 
	C148.639343,396.920685 109.499069,375.219238 107.371422,323.441681 
	C105.635117,281.187561 106.219780,238.829437 106.228500,196.517532 
	C106.231041,184.179733 108.586632,172.004395 113.516968,160.510727 
	C125.042160,133.643036 146.270706,119.437744 174.229156,114.042412 
	C176.351807,113.632805 178.502594,113.369064 181.088623,113.012253 
M342.107513,366.773407 
	C349.821899,363.195068 356.326813,358.165985 361.020691,350.974670 
	C367.289764,341.369934 370.588440,330.603516 370.683228,319.362640 
	C371.038391,277.234283 371.258087,235.095016 370.649658,192.972549 
	C370.364777,173.250412 362.612152,156.758591 344.227203,146.793747 
	C334.518982,141.531784 324.076263,139.437561 313.225739,139.272812 
	C281.099030,138.784988 248.968460,138.150391 216.841660,138.257019 
	C203.492432,138.301331 190.086411,139.566391 176.817215,141.185959 
	C155.836029,143.746765 140.600189,157.571747 136.391479,177.870392 
	C134.476059,187.108536 133.338379,196.647736 133.148438,206.076584 
	C132.655289,230.556610 132.605896,255.054733 132.921829,279.538635 
	C133.127640,295.488617 133.265671,311.554199 135.249298,327.339874 
	C138.290024,351.537994 151.124039,364.659027 174.913788,370.075531 
	C181.046097,371.471771 187.401062,372.558136 193.662933,372.606934 
	C230.137512,372.891144 266.619415,373.170166 303.088745,372.688446 
	C315.961456,372.518372 329.128754,372.311218 342.107513,366.773407 
z"/>
<path fill="#FEFEFE" opacity="1.000000" stroke="none" 
	d="
M341.744629,366.897034 
	C329.128754,372.311218 315.961456,372.518372 303.088745,372.688446 
	C266.619415,373.170166 230.137512,372.891144 193.662933,372.606934 
	C187.401062,372.558136 181.046097,371.471771 174.913788,370.075531 
	C151.124039,364.659027 138.290024,351.537994 135.249298,327.339874 
	C133.265671,311.554199 133.127640,295.488617 132.921829,279.538635 
	C132.605896,255.054733 132.655289,230.556610 133.148438,206.076584 
	C133.338379,196.647736 134.476059,187.108536 136.391479,177.870392 
	C140.600189,157.571747 155.836029,143.746765 176.817215,141.185959 
	C190.086411,139.566391 203.492432,138.301331 216.841660,138.257019 
	C248.968460,138.150391 281.099030,138.784988 313.225739,139.272812 
	C324.076263,139.437561 334.518982,141.531784 344.227203,146.793747 
	C362.612152,156.758591 370.364777,173.250412 370.649658,192.972549 
	C371.258087,235.095016 371.038391,277.234283 370.683228,319.362640 
	C370.588440,330.603516 367.289764,341.369934 361.020691,350.974670 
	C356.326813,358.165985 349.821899,363.195068 341.744629,366.897034 
M277.607361,326.142456 
	C313.295593,313.069336 334.089417,276.923950 326.471313,241.203568 
	C317.679291,199.979095 276.705811,173.991669 235.611603,183.575836 
	C194.468674,193.171341 169.312454,232.353851 178.634613,272.321320 
	C188.774689,315.795502 233.282272,340.303314 277.607361,326.142456 
M339.483063,194.136490 
	C341.313782,192.461670 343.400085,190.990326 344.926239,189.073074 
	C349.150726,183.765976 349.432465,176.117203 345.900696,170.370911 
	C341.943665,163.932755 334.378632,160.195389 327.722931,161.553268 
	C320.423920,163.042419 315.249939,167.240829 313.436737,174.540787 
	C311.711029,181.488693 313.378448,187.945358 319.013763,192.618835 
	C325.033844,197.611359 331.838837,198.027893 339.483063,194.136490 
z"/>
<path fill="#649A51" opacity="1.000000" stroke="none" 
	d="
M277.237244,326.277405 
	C233.282272,340.303314 188.774689,315.795502 178.634613,272.321320 
	C169.312454,232.353851 194.468674,193.171341 235.611603,183.575836 
	C276.705811,173.991669 317.679291,199.979095 326.471313,241.203568 
	C334.089417,276.923950 313.295593,313.069336 277.237244,326.277405 
M291.127411,284.568329 
	C298.575684,274.113098 302.079834,262.613892 300.140625,249.751923 
	C297.263611,230.669678 286.411469,217.520493 268.497162,211.436050 
	C249.788666,205.081879 232.093292,208.347397 217.695465,222.635864 
	C203.835327,236.390717 200.589233,253.213913 206.667313,271.455444 
	C212.474594,288.884216 225.158035,299.302521 243.109818,302.580353 
	C262.176910,306.061829 278.223602,300.204163 291.127411,284.568329 
z"/>
<path fill="#659B52" opacity="1.000000" stroke="none" 
	d="
M339.165375,194.325653 
	C331.838837,198.027893 325.033844,197.611359 319.013763,192.618835 
	C313.378448,187.945358 311.711029,181.488693 313.436737,174.540787 
	C315.249939,167.240829 320.423920,163.042419 327.722931,161.553268 
	C334.378632,160.195389 341.943665,163.932755 345.900696,170.370911 
	C349.432465,176.117203 349.150726,183.765976 344.926239,189.073074 
	C343.400085,190.990326 341.313782,192.461670 339.165375,194.325653 
z"/>
<path fill="#FEFEFE" opacity="1.000000" stroke="none" 
	d="
M290.913025,284.856506 
	C278.223602,300.204163 262.176910,306.061829 243.109818,302.580353 
	C225.158035,299.302521 212.474594,288.884216 206.667313,271.455444 
	C200.589233,253.213913 203.835327,236.390717 217.695465,222.635864 
	C232.093292,208.347397 249.788666,205.081879 268.497162,211.436050 
	C286.411469,217.520493 297.263611,230.669678 300.140625,249.751923 
	C302.079834,262.613892 298.575684,274.113098 290.913025,284.856506 
z"/>
</svg>