<svg version="1.1" id="Layer_1" xmlns="http://www.w3.org/2000/svg" xmlns:xlink="http://www.w3.org/1999/xlink" x="0px" y="0px"
	 width="100%" viewBox="0 0 512 512" enable-background="new 0 0 512 512" xml:space="preserve">
<path fill="#000000" opacity="1.000000" stroke="none" 
	d="
M463.379333,375.316589 
	C424.421356,431.167023 371.781921,465.353668 305.272888,478.148743 
	C285.243896,482.001923 264.961395,483.540741 244.663467,482.147125 
	C189.300858,478.345978 140.787750,457.359680 98.753807,421.534454 
	C55.049049,384.285217 29.439358,336.219727 21.222891,280.025574 
	C9.442035,199.453796 32.910076,129.816818 91.679268,72.592674 
	C129.319733,35.941780 174.658752,15.253825 226.170700,7.964864 
	C300.706726,-2.582014 366.581451,17.419138 423.432678,66.567513 
	C465.781006,103.177971 491.124390,149.785110 500.278137,204.703781 
	C510.505219,266.062012 498.136810,323.056183 463.379333,375.316589 
M177.271164,39.866520 
	C143.309265,53.543728 113.736671,73.498840 90.090744,101.647552 
	C43.330158,157.312546 27.332993,220.845352 42.758835,291.907715 
	C53.045517,339.295441 77.346184,378.470917 114.541771,409.539368 
	C150.773102,439.802368 192.120438,458.535400 239.399643,462.459503 
	C264.695526,464.559021 289.868835,462.407196 314.754089,456.716309 
	C414.856628,433.824341 496.839142,337.674042 482.763519,216.397949 
	C479.316193,186.695450 470.072784,158.743591 454.189667,133.501770 
	C412.085632,66.589149 351.357269,29.828297 272.349213,24.522285 
	C239.933731,22.345329 208.276627,27.295815 177.271164,39.866520 
z"/>
<path fill="#000000" opacity="1.000000" stroke="none" 
	d="
M361.047180,136.877563 
	C362.769745,138.232376 364.243561,139.326828 365.619141,140.533249 
	C369.363312,143.817017 373.425568,144.483841 378.132507,142.695160 
	C385.911682,139.739029 393.776855,137.007553 401.625275,134.236511 
	C403.481812,133.581009 405.289001,132.602203 408.351990,132.946701 
	C405.972717,145.347946 397.150238,153.209763 388.896698,161.948257 
	C398.659088,162.039337 406.783569,157.168747 415.834503,155.650818 
	C416.621765,158.105667 415.201874,159.474152 414.236786,160.878464 
	C409.007690,168.487228 402.770020,175.396149 395.472565,180.818466 
	C389.262848,185.432541 387.490387,191.062698 387.360809,197.967148 
	C386.480896,244.849686 368.774048,284.753571 336.406525,318.114746 
	C308.484375,346.894104 274.162659,362.876343 234.235748,367.538422 
	C194.933121,372.127594 158.112885,365.049744 123.371330,346.416290 
	C121.220436,345.262665 118.782990,344.439789 116.604034,341.063629 
	C146.841263,340.484009 175.617462,336.617065 200.420364,318.960846 
	C199.760422,315.693298 197.657501,315.633850 195.719589,315.209930 
	C180.698471,311.924316 168.298874,304.327423 158.494476,292.484741 
	C153.237396,286.134766 149.934631,278.932739 149.746323,273.202820 
	C155.294907,271.640869 161.268723,273.847565 166.930008,271.802368 
	C166.209976,268.921356 163.718582,268.682892 161.927078,267.812805 
	C140.934143,257.616760 129.942596,240.450638 126.833984,217.758713 
	C126.120399,212.549759 127.359375,211.725967 132.670319,213.018936 
	C137.064697,214.088760 141.252930,216.696365 147.489197,215.034393 
	C125.217430,191.607971 121.942642,165.695786 135.042740,137.510925 
	C137.663712,137.381470 138.470032,139.019058 139.551117,140.216400 
	C164.097214,167.402084 193.935181,185.917664 229.476547,195.059952 
	C237.849213,197.213638 246.412292,198.387222 254.959366,199.567886 
	C260.845978,200.381012 261.925659,199.339401 261.714722,193.155533 
	C260.957703,170.959381 268.006866,152.179733 286.041840,138.456055 
	C307.960693,121.776962 337.418365,121.196754 361.047180,136.877563 
z"/>
</svg>