<svg version="1.1" id="Layer_1" xmlns="http://www.w3.org/2000/svg" xmlns:xlink="http://www.w3.org/1999/xlink" x="0px" y="0px"
	 width="100%" viewBox="0 0 508 508" enable-background="new 0 0 508 508" xml:space="preserve">
<path fill="#FFFFFE" opacity="1.000000" stroke="none" 
	d="
M509.000000,181.000000 
	C509.000000,290.666626 509.000000,399.833282 509.000000,508.999939 
	C339.666748,508.999939 170.333466,508.999939 1.000149,508.999969 
	C1.000100,339.666779 1.000100,170.333542 1.000050,1.000240 
	C170.333191,1.000160 339.666382,1.000160 508.999786,1.000080 
	C509.000000,60.833332 509.000000,120.666664 509.000000,181.000000 
M493.658478,272.111938 
	C493.154968,257.483917 493.602081,242.749344 491.976562,228.247086 
	C486.206299,176.766113 465.382690,131.950424 429.530304,94.537086 
	C374.881287,37.508636 307.531891,12.854722 229.202042,19.042580 
	C177.437988,23.131805 130.990021,41.901821 92.031128,76.560822 
	C19.875622,140.752518 -3.847354,220.753448 16.669321,314.530304 
	C55.569725,452.090027 188.594681,512.973633 301.803894,488.610626 
	C360.259613,476.030701 409.281586,447.072815 445.577850,398.635529 
	C473.484283,361.394470 490.079712,319.685272 493.658478,272.111938 
z"/>
<path fill="#659A51" opacity="1.000000" stroke="none" 
	d="
M493.606201,272.575012 
	C490.079712,319.685272 473.484283,361.394470 445.577850,398.635529 
	C409.281586,447.072815 360.259613,476.030701 301.803894,488.610626 
	C188.594681,512.973633 55.569725,452.090027 16.669321,314.530304 
	C-3.847354,220.753448 19.875622,140.752518 92.031128,76.560822 
	C130.990021,41.901821 177.437988,23.131805 229.202042,19.042580 
	C307.531891,12.854722 374.881287,37.508636 429.530304,94.537086 
	C465.382690,131.950424 486.206299,176.766113 491.976562,228.247086 
	C493.602081,242.749344 493.154968,257.483917 493.606201,272.575012 
M335.538116,460.109131 
	C373.847626,444.526917 405.963348,420.571381 431.565308,388.142303 
	C458.947205,353.458588 472.539032,313.576630 475.225769,269.671112 
	C477.560730,231.513870 472.472412,194.436478 454.160095,160.760406 
	C409.649780,78.906540 340.794464,36.038177 246.811325,35.810658 
	C213.649506,35.730381 182.373596,44.143616 152.371048,58.127163 
	C61.609863,100.429001 9.829465,204.065933 32.774078,303.167267 
	C55.122112,399.691956 141.598389,471.643280 241.392380,475.368744 
	C273.638184,476.572510 304.774445,472.239166 335.538116,460.109131 
z"/>
<path fill="#FEFFFE" opacity="1.000000" stroke="none" 
	d="
M335.177673,460.248688 
	C304.774445,472.239166 273.638184,476.572510 241.392380,475.368744 
	C141.598389,471.643280 55.122112,399.691956 32.774078,303.167267 
	C9.829465,204.065933 61.609863,100.429001 152.371048,58.127163 
	C182.373596,44.143616 213.649506,35.730381 246.811325,35.810658 
	C340.794464,36.038177 409.649780,78.906540 454.160095,160.760406 
	C472.472412,194.436478 477.560730,231.513870 475.225769,269.671112 
	C472.539032,313.576630 458.947205,353.458588 431.565308,388.142303 
	C405.963348,420.571381 373.847626,444.526917 335.177673,460.248688 
M272.181000,269.964691 
	C275.129211,256.130676 283.823975,249.027878 297.726624,247.248871 
	C317.672302,244.696609 330.352051,254.170792 331.905060,274.080231 
	C332.960571,287.611725 333.426361,301.213409 333.537750,314.788788 
	C333.711182,335.923401 333.353790,357.062317 333.242218,378.199524 
	C333.234558,379.653412 333.400574,381.108185 333.498077,382.771606 
	C352.718658,382.771606 371.638336,382.771606 390.936707,382.771606 
	C391.172821,379.149414 391.600586,375.699158 391.591064,372.250092 
	C391.498779,338.922150 391.663544,305.587769 390.995056,272.270477 
	C390.783386,261.720367 389.144165,251.010147 386.664398,240.733673 
	C381.544617,219.516647 368.620941,204.952438 346.953827,199.530457 
	C340.068909,197.807571 332.855286,196.925110 325.752258,196.635422 
	C304.072266,195.751251 285.476929,202.593140 271.381989,219.778595 
	C270.296417,221.102173 269.092865,222.328964 266.877686,224.781403 
	C266.877686,215.961319 266.877686,208.758667 266.877686,201.477783 
	C248.371567,201.477783 230.447739,201.477783 212.156403,201.477783 
	C210.320374,261.899017 211.234955,322.042786 212.741547,382.558716 
	C230.135254,382.558716 246.614883,382.331177 263.081665,382.691650 
	C268.302887,382.805969 270.418915,381.286133 269.937836,376.127014 
	C269.784149,374.479004 270.000702,372.799225 269.997009,371.134064 
	C269.950836,350.305176 269.625458,329.472137 269.942688,308.648895 
	C270.135040,296.022858 271.318054,283.411926 272.181000,269.964691 
M123.616982,200.997223 
	C121.850166,200.997223 120.083344,200.997223 118.281631,200.997223 
	C118.281631,261.685913 118.281631,321.750061 118.281631,382.300751 
	C135.511688,382.300751 152.461227,382.214142 169.408875,382.355011 
	C174.317856,382.395813 175.783859,380.635925 175.766571,375.594727 
	C175.573395,319.287506 175.644882,262.979370 175.645050,206.671494 
	C175.645065,204.892059 175.645050,203.112640 175.645050,200.997162 
	C158.201492,200.997162 141.395416,200.997162 123.616982,200.997223 
M172.260880,122.245972 
	C171.429245,121.463226 170.568542,120.708939 169.770447,119.893394 
	C160.428589,110.347237 143.537415,108.102844 130.847839,114.732880 
	C118.007225,121.441811 110.830086,135.700165 113.455467,149.285233 
	C116.214600,163.562439 126.544487,173.725037 141.122559,176.504242 
	C154.118271,178.981812 168.213364,172.606323 175.384933,161.006683 
	C182.735901,149.116882 181.758499,135.034653 172.260880,122.245972 
z"/>
<path fill="#649A50" opacity="1.000000" stroke="none" 
	d="
M272.118530,270.379456 
	C271.318054,283.411926 270.135040,296.022858 269.942688,308.648895 
	C269.625458,329.472137 269.950836,350.305176 269.997009,371.134064 
	C270.000702,372.799225 269.784149,374.479004 269.937836,376.127014 
	C270.418915,381.286133 268.302887,382.805969 263.081665,382.691650 
	C246.614883,382.331177 230.135254,382.558716 212.741547,382.558716 
	C211.234955,322.042786 210.320374,261.899017 212.156403,201.477783 
	C230.447739,201.477783 248.371567,201.477783 266.877686,201.477783 
	C266.877686,208.758667 266.877686,215.961319 266.877686,224.781403 
	C269.092865,222.328964 270.296417,221.102173 271.381989,219.778595 
	C285.476929,202.593140 304.072266,195.751251 325.752258,196.635422 
	C332.855286,196.925110 340.068909,197.807571 346.953827,199.530457 
	C368.620941,204.952438 381.544617,219.516647 386.664398,240.733673 
	C389.144165,251.010147 390.783386,261.720367 390.995056,272.270477 
	C391.663544,305.587769 391.498779,338.922150 391.591064,372.250092 
	C391.600586,375.699158 391.172821,379.149414 390.936707,382.771606 
	C371.638336,382.771606 352.718658,382.771606 333.498077,382.771606 
	C333.400574,381.108185 333.234558,379.653412 333.242218,378.199524 
	C333.353790,357.062317 333.711182,335.923401 333.537750,314.788788 
	C333.426361,301.213409 332.960571,287.611725 331.905060,274.080231 
	C330.352051,254.170792 317.672302,244.696609 297.726624,247.248871 
	C283.823975,249.027878 275.129211,256.130676 272.118530,270.379456 
z"/>
<path fill="#649A50" opacity="1.000000" stroke="none" 
	d="
M124.103149,200.997192 
	C141.395416,200.997162 158.201492,200.997162 175.645050,200.997162 
	C175.645050,203.112640 175.645065,204.892059 175.645050,206.671494 
	C175.644882,262.979370 175.573395,319.287506 175.766571,375.594727 
	C175.783859,380.635925 174.317856,382.395813 169.408875,382.355011 
	C152.461227,382.214142 135.511688,382.300751 118.281631,382.300751 
	C118.281631,321.750061 118.281631,261.685913 118.281631,200.997223 
	C120.083344,200.997223 121.850166,200.997223 124.103149,200.997192 
z"/>
<path fill="#649A50" opacity="1.000000" stroke="none" 
	d="
M172.496246,122.512024 
	C181.758499,135.034653 182.735901,149.116882 175.384933,161.006683 
	C168.213364,172.606323 154.118271,178.981812 141.122559,176.504242 
	C126.544487,173.725037 116.214600,163.562439 113.455467,149.285233 
	C110.830086,135.700165 118.007225,121.441811 130.847839,114.732880 
	C143.537415,108.102844 160.428589,110.347237 169.770447,119.893394 
	C170.568542,120.708939 171.429245,121.463226 172.496246,122.512024 
z"/>
</svg>